%FSLAX46Y46*%
%MOMM*%
%ADD10C,0.300000*%
%ADD11C,0.550000*%
%ADD12C,0.600000*%
%AMPS28*
1,1,2.100000,0.000000,0.000000*
%
%ADD28PS28*%
%AMPS17*
1,1,1.300000,0.000000,0.000000*
%
%ADD17PS17*%
%AMPS20*
1,1,2.200000,0.000000,0.000000*
%
%ADD20PS20*%
%AMPS15*
1,1,1.400000,0.000000,0.000000*
%
%ADD15PS15*%
%AMPS25*
1,1,1.400000,0.000000,0.000000*
%
%ADD25PS25*%
%AMPS27*
21,1,0.900000,1.000000,0.000000,0.000000,0.000000*
%
%ADD27PS27*%
%AMPS37*
21,1,0.900000,1.000000,0.000000,0.000000,90.000000*
%
%ADD37PS37*%
%AMPS26*
21,1,0.900000,1.000000,0.000000,0.000000,180.000000*
%
%ADD26PS26*%
%AMPS38*
21,1,0.900000,1.000000,0.000000,0.000000,270.000000*
%
%ADD38PS38*%
%AMPS30*
21,1,1.600000,3.200000,0.000000,0.000000,90.000000*
%
%ADD30PS30*%
%AMPS29*
21,1,1.600000,3.200000,0.000000,0.000000,270.000000*
%
%ADD29PS29*%
%AMPS32*
21,1,1.500000,2.800000,0.000000,0.000000,0.000000*
%
%ADD32PS32*%
%AMPS22*
21,1,1.500000,2.800000,0.000000,0.000000,90.000000*
%
%ADD22PS22*%
%AMPS31*
21,1,1.500000,2.800000,0.000000,0.000000,180.000000*
%
%ADD31PS31*%
%AMPS21*
21,1,1.500000,2.800000,0.000000,0.000000,270.000000*
%
%ADD21PS21*%
%AMPS33*
21,1,0.700000,0.900000,0.000000,0.000000,0.000000*
%
%ADD33PS33*%
%AMPS34*
21,1,0.700000,0.900000,0.000000,0.000000,180.000000*
%
%ADD34PS34*%
%AMPS24*
21,1,1.800000,1.100000,0.000000,0.000000,0.000000*
%
%ADD24PS24*%
%AMPS35*
21,1,1.800000,1.100000,0.000000,0.000000,90.000000*
%
%ADD35PS35*%
%AMPS23*
21,1,1.800000,1.100000,0.000000,0.000000,180.000000*
%
%ADD23PS23*%
%AMPS36*
21,1,1.800000,1.100000,0.000000,0.000000,270.000000*
%
%ADD36PS36*%
%AMPS13*
21,1,1.000000,0.900000,0.000000,0.000000,0.000000*
%
%ADD13PS13*%
%AMPS18*
21,1,1.000000,0.900000,0.000000,0.000000,90.000000*
%
%ADD18PS18*%
%AMPS14*
21,1,1.000000,0.900000,0.000000,0.000000,180.000000*
%
%ADD14PS14*%
%AMPS19*
21,1,1.000000,0.900000,0.000000,0.000000,270.000000*
%
%ADD19PS19*%
%AMPS40*
1,1,0.700000,0.000000,0.000000*
%
%ADD40PS40*%
%AMPS41*
1,1,1.000000,0.000000,0.000000*
%
%ADD41PS41*%
%AMPS39*
1,1,0.700000,0.000000,0.000000*
%
%ADD39PS39*%
%AMPS16*
21,1,2.000000,2.000000,0.000000,0.000000,0.000000*
%
%ADD16PS16*%
G01*
%LPD*%
G36*
X62640000Y360000D02*
X62640000Y71640000D01*
X360000Y71640000D01*
X360000Y360000D01*
X62640000Y360000D01*
D02*
G37*
%LPC*%
G36*
X20075000Y50635000D02*
X17885000Y50635000D01*
X17885000Y51972954D01*
X13512953Y56345000D01*
X10289935Y56345000D01*
X10230548Y56350849D01*
X10163770Y56371106D01*
X10102223Y56404003D01*
X10048155Y56448372D01*
X10041738Y56456215D01*
X5093213Y61404741D01*
X4976524Y61349551D01*
X4861474Y61308385D01*
X4742935Y61278693D01*
X4622047Y61260762D01*
X4500000Y61254764D01*
X4377953Y61260762D01*
X4257065Y61278693D01*
X4138526Y61308385D01*
X4023471Y61349552D01*
X3913002Y61401800D01*
X3808185Y61464625D01*
X3710033Y61537421D01*
X3619486Y61619486D01*
X3537421Y61710033D01*
X3464625Y61808185D01*
X3401800Y61913002D01*
X3349552Y62023471D01*
X3308385Y62138526D01*
X3278693Y62257065D01*
X3260762Y62377953D01*
X3254764Y62500000D01*
X3260762Y62622047D01*
X3278693Y62742935D01*
X3308385Y62861474D01*
X3349552Y62976529D01*
X3401800Y63086998D01*
X3464625Y63191815D01*
X3537421Y63289967D01*
X3619486Y63380514D01*
X3710033Y63462579D01*
X3808185Y63535375D01*
X3913002Y63598200D01*
X4023471Y63650448D01*
X4138526Y63691615D01*
X4257065Y63721307D01*
X4377953Y63739238D01*
X4500000Y63745236D01*
X4622047Y63739238D01*
X4742935Y63721307D01*
X4861474Y63691615D01*
X4976529Y63650448D01*
X5086998Y63598200D01*
X5191815Y63535375D01*
X5289967Y63462579D01*
X5380514Y63380514D01*
X5462579Y63289967D01*
X5535375Y63191815D01*
X5598200Y63086998D01*
X5650448Y62976529D01*
X5691615Y62861474D01*
X5721307Y62742935D01*
X5739238Y62622047D01*
X5745236Y62500000D01*
X5739238Y62377953D01*
X5721307Y62257065D01*
X5691615Y62138526D01*
X5650449Y62023476D01*
X5595259Y61906787D01*
X10447047Y57055000D01*
X13670077Y57055000D01*
X13729451Y57049151D01*
X13796229Y57028893D01*
X13857776Y56995996D01*
X13903897Y56958148D01*
X18737046Y52125000D01*
X20075000Y52125000D01*
X20075000Y50635000D01*
D02*
G37*
%LPC*%
G36*
X23735000Y48655000D02*
X22345000Y48655000D01*
X22345000Y49945000D01*
X22669989Y49945000D01*
X22669989Y53227964D01*
X16652953Y59245000D01*
X12389935Y59245000D01*
X12330548Y59250849D01*
X12263770Y59271106D01*
X12202223Y59304003D01*
X12148155Y59348372D01*
X12141738Y59356215D01*
X10093213Y61404741D01*
X9976524Y61349551D01*
X9861474Y61308385D01*
X9742935Y61278693D01*
X9622047Y61260762D01*
X9500000Y61254764D01*
X9377953Y61260762D01*
X9257065Y61278693D01*
X9138526Y61308385D01*
X9023471Y61349552D01*
X8913002Y61401800D01*
X8808185Y61464625D01*
X8710033Y61537421D01*
X8619486Y61619486D01*
X8537421Y61710033D01*
X8464625Y61808185D01*
X8401800Y61913002D01*
X8349552Y62023471D01*
X8308385Y62138526D01*
X8278693Y62257065D01*
X8260762Y62377953D01*
X8254764Y62500000D01*
X8260762Y62622047D01*
X8278693Y62742935D01*
X8308385Y62861474D01*
X8349552Y62976529D01*
X8401800Y63086998D01*
X8464625Y63191815D01*
X8537421Y63289967D01*
X8619486Y63380514D01*
X8710033Y63462579D01*
X8808185Y63535375D01*
X8913002Y63598200D01*
X9023471Y63650448D01*
X9138526Y63691615D01*
X9257065Y63721307D01*
X9377953Y63739238D01*
X9500000Y63745236D01*
X9622047Y63739238D01*
X9742935Y63721307D01*
X9861474Y63691615D01*
X9976529Y63650448D01*
X10086998Y63598200D01*
X10191815Y63535375D01*
X10289967Y63462579D01*
X10380514Y63380514D01*
X10462579Y63289967D01*
X10535375Y63191815D01*
X10598200Y63086998D01*
X10650448Y62976529D01*
X10691615Y62861474D01*
X10721307Y62742935D01*
X10739238Y62622047D01*
X10745236Y62500000D01*
X10739238Y62377953D01*
X10721307Y62257065D01*
X10691615Y62138526D01*
X10650449Y62023476D01*
X10595259Y61906787D01*
X12547047Y59955000D01*
X16810077Y59955000D01*
X16869451Y59949151D01*
X16936229Y59928893D01*
X16997776Y59895996D01*
X17043897Y59858148D01*
X23283137Y53618908D01*
X23320985Y53572787D01*
X23353882Y53511240D01*
X23374140Y53444462D01*
X23379989Y53385088D01*
X23379989Y49945000D01*
X23735000Y49945000D01*
X23735000Y48655000D01*
D02*
G37*
%LPC*%
G36*
X14500000Y61254764D02*
X14377953Y61260762D01*
X14257065Y61278693D01*
X14138526Y61308385D01*
X14023471Y61349552D01*
X13913002Y61401800D01*
X13808185Y61464625D01*
X13710033Y61537421D01*
X13619486Y61619486D01*
X13537421Y61710033D01*
X13464625Y61808185D01*
X13401800Y61913002D01*
X13349552Y62023471D01*
X13308385Y62138526D01*
X13278693Y62257065D01*
X13260762Y62377953D01*
X13254764Y62500000D01*
X13260762Y62622047D01*
X13278693Y62742935D01*
X13308385Y62861474D01*
X13349552Y62976529D01*
X13401800Y63086998D01*
X13464625Y63191815D01*
X13537421Y63289967D01*
X13619486Y63380514D01*
X13710033Y63462579D01*
X13808185Y63535375D01*
X13913002Y63598200D01*
X14023471Y63650448D01*
X14138526Y63691615D01*
X14257065Y63721307D01*
X14377953Y63739238D01*
X14500000Y63745236D01*
X14622047Y63739238D01*
X14742935Y63721307D01*
X14861474Y63691615D01*
X14976529Y63650448D01*
X15086998Y63598200D01*
X15191815Y63535375D01*
X15289967Y63462579D01*
X15380514Y63380514D01*
X15462579Y63289967D01*
X15535375Y63191815D01*
X15598200Y63086998D01*
X15650448Y62976529D01*
X15693931Y62855000D01*
X19755000Y62855000D01*
X19755000Y63195000D01*
X21045000Y63195000D01*
X21045000Y61805000D01*
X19755000Y61805000D01*
X19755000Y62145000D01*
X15693931Y62145000D01*
X15650448Y62023471D01*
X15598200Y61913002D01*
X15535375Y61808185D01*
X15462579Y61710033D01*
X15380514Y61619486D01*
X15289967Y61537421D01*
X15191815Y61464625D01*
X15086998Y61401800D01*
X14976529Y61349552D01*
X14861474Y61308385D01*
X14742935Y61278693D01*
X14622047Y61260762D01*
X14500000Y61254764D01*
D02*
G37*
%LPC*%
G36*
X56914998Y40060000D02*
X53724998Y40060000D01*
X53724998Y41950000D01*
X56447953Y41950000D01*
X60555000Y46057047D01*
X60555000Y54942953D01*
X54093213Y61404741D01*
X53976524Y61349551D01*
X53861474Y61308385D01*
X53742935Y61278693D01*
X53622047Y61260762D01*
X53500000Y61254764D01*
X53377953Y61260762D01*
X53257065Y61278693D01*
X53138526Y61308385D01*
X53023471Y61349552D01*
X52913002Y61401800D01*
X52808185Y61464625D01*
X52710033Y61537421D01*
X52619486Y61619486D01*
X52537421Y61710033D01*
X52464625Y61808185D01*
X52401800Y61913002D01*
X52349552Y62023471D01*
X52308385Y62138526D01*
X52278693Y62257065D01*
X52260762Y62377953D01*
X52254764Y62500000D01*
X52260762Y62622047D01*
X52278693Y62742935D01*
X52308385Y62861474D01*
X52349552Y62976529D01*
X52401800Y63086998D01*
X52464625Y63191815D01*
X52537421Y63289967D01*
X52619486Y63380514D01*
X52710033Y63462579D01*
X52808185Y63535375D01*
X52913002Y63598200D01*
X53023471Y63650448D01*
X53138526Y63691615D01*
X53257065Y63721307D01*
X53377953Y63739238D01*
X53500000Y63745236D01*
X53622047Y63739238D01*
X53742935Y63721307D01*
X53861474Y63691615D01*
X53976529Y63650448D01*
X54086998Y63598200D01*
X54191815Y63535375D01*
X54289967Y63462579D01*
X54380514Y63380514D01*
X54462579Y63289967D01*
X54535375Y63191815D01*
X54598200Y63086998D01*
X54650448Y62976529D01*
X54691615Y62861474D01*
X54721307Y62742935D01*
X54739238Y62622047D01*
X54745236Y62500000D01*
X54739238Y62377953D01*
X54721307Y62257065D01*
X54691615Y62138526D01*
X54650449Y62023476D01*
X54595259Y61906787D01*
X61168148Y55333897D01*
X61205996Y55287776D01*
X61238893Y55226229D01*
X61259151Y55159451D01*
X61265000Y55100077D01*
X61265000Y45899923D01*
X61259151Y45840548D01*
X61238893Y45773770D01*
X61205996Y45712222D01*
X61162220Y45658877D01*
X61154448Y45652401D01*
X56914998Y41412951D01*
X56914998Y40060000D01*
D02*
G37*
%LPC*%
G36*
X49810066Y43845000D02*
X43889935Y43845000D01*
X43830548Y43850849D01*
X43763770Y43871106D01*
X43702223Y43904003D01*
X43648157Y43948371D01*
X43641740Y43956214D01*
X41572953Y46025000D01*
X34804998Y46025000D01*
X34804998Y44844996D01*
X31614998Y44844996D01*
X31614998Y46734996D01*
X33789839Y46734996D01*
X33789880Y46735000D01*
X41730077Y46735000D01*
X41789451Y46729151D01*
X41856229Y46708893D01*
X41917776Y46675996D01*
X41963897Y46638148D01*
X44047047Y44555000D01*
X49652953Y44555000D01*
X53145000Y48047047D01*
X53145000Y51253029D01*
X53004337Y51303358D01*
X52889436Y51357702D01*
X52780404Y51423054D01*
X52678310Y51498772D01*
X52584131Y51584131D01*
X52498772Y51678310D01*
X52423054Y51780404D01*
X52357702Y51889436D01*
X52303358Y52004337D01*
X52260538Y52124011D01*
X52229654Y52247308D01*
X52211003Y52373044D01*
X52204765Y52500000D01*
X52211003Y52626956D01*
X52229654Y52752692D01*
X52260538Y52875989D01*
X52303358Y52995662D01*
X52367235Y53130719D01*
X48256215Y57241738D01*
X48248372Y57248155D01*
X48204003Y57302223D01*
X48171106Y57363770D01*
X48150849Y57430548D01*
X48145000Y57489935D01*
X48145000Y61306069D01*
X48023471Y61349552D01*
X47913002Y61401800D01*
X47808185Y61464625D01*
X47710033Y61537421D01*
X47619486Y61619486D01*
X47537421Y61710033D01*
X47464625Y61808185D01*
X47401800Y61913002D01*
X47349552Y62023471D01*
X47308385Y62138526D01*
X47278693Y62257065D01*
X47260762Y62377953D01*
X47254764Y62500000D01*
X47260762Y62622047D01*
X47278693Y62742935D01*
X47308385Y62861474D01*
X47349552Y62976529D01*
X47401800Y63086998D01*
X47464625Y63191815D01*
X47537421Y63289967D01*
X47619486Y63380514D01*
X47710033Y63462579D01*
X47808185Y63535375D01*
X47913002Y63598200D01*
X48023471Y63650448D01*
X48138526Y63691615D01*
X48257065Y63721307D01*
X48377953Y63739238D01*
X48500000Y63745236D01*
X48622047Y63739238D01*
X48742935Y63721307D01*
X48861474Y63691615D01*
X48976529Y63650448D01*
X49086998Y63598200D01*
X49191815Y63535375D01*
X49289967Y63462579D01*
X49380514Y63380514D01*
X49462579Y63289967D01*
X49535375Y63191815D01*
X49598200Y63086998D01*
X49650448Y62976529D01*
X49691615Y62861474D01*
X49721307Y62742935D01*
X49739238Y62622047D01*
X49745236Y62500000D01*
X49739238Y62377953D01*
X49721307Y62257065D01*
X49691615Y62138526D01*
X49650448Y62023471D01*
X49598200Y61913002D01*
X49535375Y61808185D01*
X49462579Y61710033D01*
X49380514Y61619486D01*
X49289967Y61537421D01*
X49191815Y61464625D01*
X49086998Y61401800D01*
X48976529Y61349552D01*
X48855000Y61306069D01*
X48855000Y57647047D01*
X52869280Y53632766D01*
X53004337Y53696642D01*
X53124011Y53739462D01*
X53247308Y53770346D01*
X53373044Y53788997D01*
X53500000Y53795235D01*
X53626956Y53788997D01*
X53752692Y53770346D01*
X53875989Y53739462D01*
X53995663Y53696642D01*
X54110564Y53642298D01*
X54219596Y53576946D01*
X54321690Y53501228D01*
X54415869Y53415869D01*
X54501228Y53321690D01*
X54576946Y53219596D01*
X54642298Y53110564D01*
X54696642Y52995663D01*
X54739462Y52875989D01*
X54770346Y52752692D01*
X54788997Y52626956D01*
X54795235Y52500000D01*
X54788997Y52373044D01*
X54770346Y52247308D01*
X54739462Y52124011D01*
X54696642Y52004337D01*
X54642298Y51889436D01*
X54576946Y51780404D01*
X54501228Y51678310D01*
X54415869Y51584131D01*
X54321690Y51498772D01*
X54219596Y51423054D01*
X54110564Y51357702D01*
X53995663Y51303358D01*
X53855000Y51253029D01*
X53855000Y47889923D01*
X53849151Y47830548D01*
X53828893Y47763770D01*
X53795996Y47702222D01*
X53752220Y47648877D01*
X53744448Y47642401D01*
X50057598Y43955551D01*
X50051122Y43947779D01*
X49997777Y43904003D01*
X49936229Y43871106D01*
X49869451Y43850849D01*
X49810066Y43845000D01*
D02*
G37*
%LPC*%
G36*
X59740147Y62650000D02*
X58650000Y62650000D01*
X58650000Y63740147D01*
X58743912Y63726217D01*
X58862927Y63696405D01*
X58978444Y63655073D01*
X59089358Y63602615D01*
X59194596Y63539537D01*
X59293143Y63466449D01*
X59384054Y63384054D01*
X59466449Y63293143D01*
X59539537Y63194596D01*
X59602615Y63089358D01*
X59655073Y62978444D01*
X59696405Y62862927D01*
X59726217Y62743912D01*
X59740147Y62650000D01*
D02*
G37*
%LPC*%
G36*
X58350000Y62650000D02*
X57259853Y62650000D01*
X57273783Y62743912D01*
X57303595Y62862927D01*
X57344927Y62978444D01*
X57397385Y63089358D01*
X57460463Y63194596D01*
X57533551Y63293143D01*
X57615946Y63384054D01*
X57706857Y63466449D01*
X57805404Y63539537D01*
X57910642Y63602615D01*
X58021556Y63655073D01*
X58137073Y63696405D01*
X58256088Y63726217D01*
X58350000Y63740147D01*
X58350000Y62650000D01*
D02*
G37*
%LPC*%
G36*
X22650000Y62650000D02*
X22150000Y62650000D01*
X22150000Y63200000D01*
X22650000Y63200000D01*
X22650000Y62650000D01*
D02*
G37*
%LPC*%
G36*
X21850000Y62650000D02*
X21350000Y62650000D01*
X21350000Y63200000D01*
X21850000Y63200000D01*
X21850000Y62650000D01*
D02*
G37*
%LPC*%
G36*
X21850000Y61800000D02*
X21350000Y61800000D01*
X21350000Y62350000D01*
X21850000Y62350000D01*
X21850000Y61800000D01*
D02*
G37*
%LPC*%
G36*
X58650000Y61259853D02*
X58650000Y62350000D01*
X59740147Y62350000D01*
X59726217Y62256088D01*
X59696405Y62137073D01*
X59655073Y62021556D01*
X59602615Y61910642D01*
X59539537Y61805404D01*
X59466449Y61706857D01*
X59384054Y61615946D01*
X59293143Y61533551D01*
X59194596Y61460463D01*
X59089358Y61397385D01*
X58978444Y61344927D01*
X58862927Y61303595D01*
X58743912Y61273783D01*
X58650000Y61259853D01*
D02*
G37*
%LPC*%
G36*
X58350000Y61259853D02*
X58256088Y61273783D01*
X58137073Y61303595D01*
X58021556Y61344927D01*
X57910642Y61397385D01*
X57805404Y61460463D01*
X57706857Y61533551D01*
X57615946Y61615946D01*
X57533551Y61706857D01*
X57460463Y61805404D01*
X57397385Y61910642D01*
X57344927Y62021556D01*
X57303595Y62137073D01*
X57273783Y62256088D01*
X57259853Y62350000D01*
X58350000Y62350000D01*
X58350000Y61259853D01*
D02*
G37*
%LPC*%
G36*
X22650000Y61800000D02*
X22150000Y61800000D01*
X22150000Y62350000D01*
X22650000Y62350000D01*
X22650000Y61800000D01*
D02*
G37*
%LPC*%
G36*
X33470000Y55480000D02*
X31820000Y55480000D01*
X31820000Y56330000D01*
X33470000Y56330000D01*
X33470000Y55480000D01*
D02*
G37*
%LPC*%
G36*
X35420000Y55480000D02*
X33770000Y55480000D01*
X33770000Y56330000D01*
X35420000Y56330000D01*
X35420000Y55480000D01*
D02*
G37*
%LPC*%
G36*
X27775000Y49555000D02*
X26485000Y49555000D01*
X26485000Y49895000D01*
X25935000Y49895000D01*
X25935000Y49605000D01*
X24545000Y49605000D01*
X24545000Y50895000D01*
X25935000Y50895000D01*
X25935000Y50605000D01*
X26485000Y50605000D01*
X26485000Y50945000D01*
X26825000Y50945000D01*
X26825000Y56325000D01*
X30415000Y56325000D01*
X30415000Y54335000D01*
X27535000Y54335000D01*
X27535000Y50945000D01*
X27775000Y50945000D01*
X27775000Y49555000D01*
D02*
G37*
%LPC*%
G36*
X33470000Y54330000D02*
X31820000Y54330000D01*
X31820000Y55180000D01*
X33470000Y55180000D01*
X33470000Y54330000D01*
D02*
G37*
%LPC*%
G36*
X35420000Y54330000D02*
X33770000Y54330000D01*
X33770000Y55180000D01*
X35420000Y55180000D01*
X35420000Y54330000D01*
D02*
G37*
%LPC*%
G36*
X8100000Y52950000D02*
X6450000Y52950000D01*
X6450000Y53800000D01*
X8100000Y53800000D01*
X8100000Y52950000D01*
D02*
G37*
%LPC*%
G36*
X6150000Y52950000D02*
X4500000Y52950000D01*
X4500000Y53800000D01*
X6150000Y53800000D01*
X6150000Y52950000D01*
D02*
G37*
%LPC*%
G36*
X49065000Y46405000D02*
X47775000Y46405000D01*
X47775000Y47795000D01*
X48065000Y47795000D01*
X48065000Y51253029D01*
X47924337Y51303358D01*
X47809436Y51357702D01*
X47700404Y51423054D01*
X47598310Y51498772D01*
X47504131Y51584131D01*
X47418772Y51678310D01*
X47343054Y51780404D01*
X47277702Y51889436D01*
X47223358Y52004337D01*
X47180538Y52124011D01*
X47149654Y52247308D01*
X47131003Y52373044D01*
X47124765Y52500000D01*
X47131003Y52626956D01*
X47149654Y52752692D01*
X47180538Y52875989D01*
X47223358Y52995663D01*
X47277702Y53110564D01*
X47343054Y53219596D01*
X47418772Y53321690D01*
X47504131Y53415869D01*
X47598310Y53501228D01*
X47700404Y53576946D01*
X47809436Y53642298D01*
X47924337Y53696642D01*
X48044011Y53739462D01*
X48167308Y53770346D01*
X48293044Y53788997D01*
X48420000Y53795235D01*
X48546956Y53788997D01*
X48672692Y53770346D01*
X48795989Y53739462D01*
X48915663Y53696642D01*
X49030564Y53642298D01*
X49139596Y53576946D01*
X49241690Y53501228D01*
X49335869Y53415869D01*
X49421228Y53321690D01*
X49496946Y53219596D01*
X49562298Y53110564D01*
X49616642Y52995663D01*
X49659462Y52875989D01*
X49690346Y52752692D01*
X49708997Y52626956D01*
X49715235Y52500000D01*
X49708997Y52373044D01*
X49690346Y52247308D01*
X49659462Y52124011D01*
X49616642Y52004337D01*
X49562298Y51889436D01*
X49496946Y51780404D01*
X49421228Y51678310D01*
X49335869Y51584131D01*
X49241690Y51498772D01*
X49139596Y51423054D01*
X49030564Y51357702D01*
X48915663Y51303358D01*
X48775000Y51253029D01*
X48775000Y47795000D01*
X49065000Y47795000D01*
X49065000Y46405000D01*
D02*
G37*
%LPC*%
G36*
X59225000Y46405000D02*
X57935000Y46405000D01*
X57935000Y47795000D01*
X58225000Y47795000D01*
X58225000Y51253029D01*
X58084337Y51303358D01*
X57969436Y51357702D01*
X57860404Y51423054D01*
X57758310Y51498772D01*
X57664131Y51584131D01*
X57578772Y51678310D01*
X57503054Y51780404D01*
X57437702Y51889436D01*
X57383358Y52004337D01*
X57340538Y52124011D01*
X57309654Y52247308D01*
X57291003Y52373044D01*
X57284765Y52500000D01*
X57291003Y52626956D01*
X57309654Y52752692D01*
X57340538Y52875989D01*
X57383358Y52995663D01*
X57437702Y53110564D01*
X57503054Y53219596D01*
X57578772Y53321690D01*
X57664131Y53415869D01*
X57758310Y53501228D01*
X57860404Y53576946D01*
X57969436Y53642298D01*
X58084337Y53696642D01*
X58204011Y53739462D01*
X58327308Y53770346D01*
X58453044Y53788997D01*
X58580000Y53795235D01*
X58706956Y53788997D01*
X58832692Y53770346D01*
X58955989Y53739462D01*
X59075663Y53696642D01*
X59190564Y53642298D01*
X59299596Y53576946D01*
X59401690Y53501228D01*
X59495869Y53415869D01*
X59581228Y53321690D01*
X59656946Y53219596D01*
X59722298Y53110564D01*
X59776642Y52995663D01*
X59819462Y52875989D01*
X59850346Y52752692D01*
X59868997Y52626956D01*
X59875235Y52500000D01*
X59868997Y52373044D01*
X59850346Y52247308D01*
X59819462Y52124011D01*
X59776642Y52004337D01*
X59722298Y51889436D01*
X59656946Y51780404D01*
X59581228Y51678310D01*
X59495869Y51584131D01*
X59401690Y51498772D01*
X59299596Y51423054D01*
X59190564Y51357702D01*
X59075663Y51303358D01*
X58935000Y51253029D01*
X58935000Y47795000D01*
X59225000Y47795000D01*
X59225000Y46405000D01*
D02*
G37*
%LPC*%
G36*
X15295000Y47685000D02*
X14005000Y47685000D01*
X14005000Y49075000D01*
X14295000Y49075000D01*
X14295000Y49635000D01*
X14005000Y49635000D01*
X14005000Y50492953D01*
X12692953Y51805000D01*
X9505000Y51805000D01*
X9505000Y53795000D01*
X13095000Y53795000D01*
X13095000Y52407046D01*
X14477046Y51025000D01*
X15295000Y51025000D01*
X15295000Y49635000D01*
X15005000Y49635000D01*
X15005000Y49075000D01*
X15295000Y49075000D01*
X15295000Y47685000D01*
D02*
G37*
%LPC*%
G36*
X8100000Y51800000D02*
X6450000Y51800000D01*
X6450000Y52650000D01*
X8100000Y52650000D01*
X8100000Y51800000D01*
D02*
G37*
%LPC*%
G36*
X6150000Y51800000D02*
X4500000Y51800000D01*
X4500000Y52650000D01*
X6150000Y52650000D01*
X6150000Y51800000D01*
D02*
G37*
%LPC*%
G36*
X16900000Y50480000D02*
X16400000Y50480000D01*
X16400000Y51030000D01*
X16900000Y51030000D01*
X16900000Y50480000D01*
D02*
G37*
%LPC*%
G36*
X16100000Y50480000D02*
X15600000Y50480000D01*
X15600000Y51030000D01*
X16100000Y51030000D01*
X16100000Y50480000D01*
D02*
G37*
%LPC*%
G36*
X29380000Y50400000D02*
X28880000Y50400000D01*
X28880000Y50950000D01*
X29380000Y50950000D01*
X29380000Y50400000D01*
D02*
G37*
%LPC*%
G36*
X28580000Y50400000D02*
X28080000Y50400000D01*
X28080000Y50950000D01*
X28580000Y50950000D01*
X28580000Y50400000D01*
D02*
G37*
%LPC*%
G36*
X16100000Y49630000D02*
X15600000Y49630000D01*
X15600000Y50180000D01*
X16100000Y50180000D01*
X16100000Y49630000D01*
D02*
G37*
%LPC*%
G36*
X16900000Y49630000D02*
X16400000Y49630000D01*
X16400000Y50180000D01*
X16900000Y50180000D01*
X16900000Y49630000D01*
D02*
G37*
%LPC*%
G36*
X28580000Y49550000D02*
X28080000Y49550000D01*
X28080000Y50100000D01*
X28580000Y50100000D01*
X28580000Y49550000D01*
D02*
G37*
%LPC*%
G36*
X29380000Y49550000D02*
X28880000Y49550000D01*
X28880000Y50100000D01*
X29380000Y50100000D01*
X29380000Y49550000D01*
D02*
G37*
%LPC*%
G36*
X18980000Y45674752D02*
X18910883Y45678148D01*
X18842405Y45688307D01*
X18775284Y45705118D01*
X18710114Y45728438D01*
X18647551Y45758027D01*
X18588179Y45793614D01*
X18532599Y45834834D01*
X18481315Y45881315D01*
X18434834Y45932599D01*
X18393614Y45988179D01*
X18358027Y46047551D01*
X18328438Y46110114D01*
X18305118Y46175284D01*
X18288307Y46242405D01*
X18278148Y46310883D01*
X18274752Y46380000D01*
X18278148Y46449117D01*
X18288307Y46517595D01*
X18305118Y46584716D01*
X18328438Y46649886D01*
X18358027Y46712449D01*
X18393614Y46771821D01*
X18434834Y46827400D01*
X18475000Y46871716D01*
X18475000Y47635000D01*
X17885000Y47635000D01*
X17885000Y47875000D01*
X17195000Y47875000D01*
X17195000Y47685000D01*
X15905000Y47685000D01*
X15905000Y49075000D01*
X17195000Y49075000D01*
X17195000Y48885000D01*
X17885000Y48885000D01*
X17885000Y49125000D01*
X20075000Y49125000D01*
X20075000Y47635000D01*
X19485000Y47635000D01*
X19485000Y46871716D01*
X19525166Y46827400D01*
X19566386Y46771821D01*
X19601973Y46712449D01*
X19631562Y46649886D01*
X19654882Y46584716D01*
X19671693Y46517595D01*
X19681852Y46449117D01*
X19685248Y46380000D01*
X19681852Y46310883D01*
X19671693Y46242405D01*
X19654882Y46175284D01*
X19631562Y46110114D01*
X19601973Y46047551D01*
X19566386Y45988179D01*
X19525166Y45932599D01*
X19478685Y45881315D01*
X19427401Y45834834D01*
X19371821Y45793614D01*
X19312449Y45758027D01*
X19249886Y45728438D01*
X19184716Y45705118D01*
X19117595Y45688307D01*
X19049117Y45678148D01*
X18980000Y45674752D01*
D02*
G37*
%LPC*%
G36*
X30105000Y44844996D02*
X26915000Y44844996D01*
X26915000Y45284996D01*
X25731716Y45284996D01*
X25687400Y45244830D01*
X25631821Y45203610D01*
X25572449Y45168023D01*
X25509886Y45138434D01*
X25444716Y45115114D01*
X25377595Y45098303D01*
X25309117Y45088144D01*
X25240000Y45084748D01*
X25170883Y45088144D01*
X25102405Y45098303D01*
X25035284Y45115114D01*
X24970114Y45138434D01*
X24907551Y45168023D01*
X24848179Y45203610D01*
X24792599Y45244830D01*
X24741315Y45291311D01*
X24694834Y45342595D01*
X24653614Y45398175D01*
X24618027Y45457547D01*
X24588438Y45520110D01*
X24565118Y45585280D01*
X24548307Y45652401D01*
X24538148Y45720879D01*
X24534752Y45789996D01*
X24538148Y45859113D01*
X24548307Y45927591D01*
X24565118Y45994712D01*
X24588438Y46059882D01*
X24618027Y46122445D01*
X24653614Y46181817D01*
X24694834Y46237396D01*
X24735000Y46281712D01*
X24735000Y47705000D01*
X24545000Y47705000D01*
X24545000Y48995000D01*
X25935000Y48995000D01*
X25935000Y47705000D01*
X25745000Y47705000D01*
X25745000Y46294996D01*
X26915000Y46294996D01*
X26915000Y46734996D01*
X30105000Y46734996D01*
X30105000Y44844996D01*
D02*
G37*
%LPC*%
G36*
X5880000Y47930000D02*
X5330000Y47930000D01*
X5330000Y48430000D01*
X5880000Y48430000D01*
X5880000Y47930000D01*
D02*
G37*
%LPC*%
G36*
X5030000Y47930000D02*
X4480000Y47930000D01*
X4480000Y48430000D01*
X5030000Y48430000D01*
X5030000Y47930000D01*
D02*
G37*
%LPC*%
G36*
X10730000Y47930000D02*
X10180000Y47930000D01*
X10180000Y48430000D01*
X10730000Y48430000D01*
X10730000Y47930000D01*
D02*
G37*
%LPC*%
G36*
X11580000Y47930000D02*
X11030000Y47930000D01*
X11030000Y48430000D01*
X11580000Y48430000D01*
X11580000Y47930000D01*
D02*
G37*
%LPC*%
G36*
X12620000Y47930000D02*
X12070000Y47930000D01*
X12070000Y48430000D01*
X12620000Y48430000D01*
X12620000Y47930000D01*
D02*
G37*
%LPC*%
G36*
X13470000Y47930000D02*
X12920000Y47930000D01*
X12920000Y48430000D01*
X13470000Y48430000D01*
X13470000Y47930000D01*
D02*
G37*
%LPC*%
G36*
X7755000Y47135000D02*
X6365000Y47135000D01*
X6365000Y48425000D01*
X7755000Y48425000D01*
X7755000Y48135000D01*
X8255000Y48135000D01*
X8255000Y48425000D01*
X9645000Y48425000D01*
X9645000Y47135000D01*
X8255000Y47135000D01*
X8255000Y47425000D01*
X7755000Y47425000D01*
X7755000Y47135000D01*
D02*
G37*
%LPC*%
G36*
X57630000Y47250000D02*
X57130000Y47250000D01*
X57130000Y47800000D01*
X57630000Y47800000D01*
X57630000Y47250000D01*
D02*
G37*
%LPC*%
G36*
X56830000Y47250000D02*
X56330000Y47250000D01*
X56330000Y47800000D01*
X56830000Y47800000D01*
X56830000Y47250000D01*
D02*
G37*
%LPC*%
G36*
X50670000Y47250000D02*
X50170000Y47250000D01*
X50170000Y47800000D01*
X50670000Y47800000D01*
X50670000Y47250000D01*
D02*
G37*
%LPC*%
G36*
X49870000Y47250000D02*
X49370000Y47250000D01*
X49370000Y47800000D01*
X49870000Y47800000D01*
X49870000Y47250000D01*
D02*
G37*
%LPC*%
G36*
X5030000Y47130000D02*
X4480000Y47130000D01*
X4480000Y47630000D01*
X5030000Y47630000D01*
X5030000Y47130000D01*
D02*
G37*
%LPC*%
G36*
X5880000Y47130000D02*
X5330000Y47130000D01*
X5330000Y47630000D01*
X5880000Y47630000D01*
X5880000Y47130000D01*
D02*
G37*
%LPC*%
G36*
X10730000Y47130000D02*
X10180000Y47130000D01*
X10180000Y47630000D01*
X10730000Y47630000D01*
X10730000Y47130000D01*
D02*
G37*
%LPC*%
G36*
X11580000Y47130000D02*
X11030000Y47130000D01*
X11030000Y47630000D01*
X11580000Y47630000D01*
X11580000Y47130000D01*
D02*
G37*
%LPC*%
G36*
X12620000Y47130000D02*
X12070000Y47130000D01*
X12070000Y47630000D01*
X12620000Y47630000D01*
X12620000Y47130000D01*
D02*
G37*
%LPC*%
G36*
X13470000Y47130000D02*
X12920000Y47130000D01*
X12920000Y47630000D01*
X13470000Y47630000D01*
X13470000Y47130000D01*
D02*
G37*
%LPC*%
G36*
X57630000Y46400000D02*
X57130000Y46400000D01*
X57130000Y46950000D01*
X57630000Y46950000D01*
X57630000Y46400000D01*
D02*
G37*
%LPC*%
G36*
X56830000Y46400000D02*
X56330000Y46400000D01*
X56330000Y46950000D01*
X56830000Y46950000D01*
X56830000Y46400000D01*
D02*
G37*
%LPC*%
G36*
X50670000Y46400000D02*
X50170000Y46400000D01*
X50170000Y46950000D01*
X50670000Y46950000D01*
X50670000Y46400000D01*
D02*
G37*
%LPC*%
G36*
X49870000Y46400000D02*
X49370000Y46400000D01*
X49370000Y46950000D01*
X49870000Y46950000D01*
X49870000Y46400000D01*
D02*
G37*
%LPC*%
G36*
X16245000Y45485000D02*
X14955000Y45485000D01*
X14955000Y45825000D01*
X13465000Y45825000D01*
X13465000Y45535000D01*
X12075000Y45535000D01*
X12075000Y45825000D01*
X11575000Y45825000D01*
X11575000Y45535000D01*
X10185000Y45535000D01*
X10185000Y45825000D01*
X9645000Y45825000D01*
X9645000Y45535000D01*
X8255000Y45535000D01*
X8255000Y46825000D01*
X9645000Y46825000D01*
X9645000Y46535000D01*
X10185000Y46535000D01*
X10185000Y46825000D01*
X11575000Y46825000D01*
X11575000Y46535000D01*
X12075000Y46535000D01*
X12075000Y46825000D01*
X13465000Y46825000D01*
X13465000Y46535000D01*
X14955000Y46535000D01*
X14955000Y46875000D01*
X16245000Y46875000D01*
X16245000Y45485000D01*
D02*
G37*
%LPC*%
G36*
X22502917Y2194501D02*
X22415177Y2198813D01*
X22328261Y2211705D01*
X22243046Y2233050D01*
X22160324Y2262650D01*
X22080907Y2300210D01*
X22005554Y2345375D01*
X21934990Y2397709D01*
X21869891Y2456711D01*
X21810889Y2521810D01*
X21758555Y2592374D01*
X21713390Y2667727D01*
X21675830Y2747144D01*
X21646230Y2829866D01*
X21624885Y2915081D01*
X21611993Y3001997D01*
X21607681Y3089737D01*
X21611993Y3177477D01*
X21624885Y3264393D01*
X21646230Y3349608D01*
X21671204Y3419404D01*
X2006215Y23084392D01*
X1998372Y23090809D01*
X1954003Y23144877D01*
X1921106Y23206424D01*
X1900849Y23273202D01*
X1895000Y23332589D01*
X1895000Y43260066D01*
X1900849Y43319451D01*
X1921106Y43386229D01*
X1954003Y43447777D01*
X1997779Y43501122D01*
X2005551Y43507598D01*
X4485000Y45987047D01*
X4485000Y46825000D01*
X5875000Y46825000D01*
X5875000Y46535000D01*
X6365000Y46535000D01*
X6365000Y46825000D01*
X7755000Y46825000D01*
X7755000Y45535000D01*
X6365000Y45535000D01*
X6365000Y45825000D01*
X5875000Y45825000D01*
X5875000Y45535000D01*
X5037047Y45535000D01*
X2605000Y43102953D01*
X2605000Y23489701D01*
X22173250Y3921450D01*
X22243046Y3946424D01*
X22328261Y3967769D01*
X22415177Y3980661D01*
X22502917Y3984973D01*
X22590657Y3980661D01*
X22677573Y3967769D01*
X22762788Y3946424D01*
X22845510Y3916824D01*
X22924927Y3879264D01*
X23000280Y3834099D01*
X23070844Y3781765D01*
X23135943Y3722763D01*
X23194945Y3657664D01*
X23247279Y3587100D01*
X23292444Y3511747D01*
X23330004Y3432330D01*
X23359604Y3349608D01*
X23380949Y3264393D01*
X23393841Y3177477D01*
X23398153Y3089737D01*
X23395937Y3044645D01*
X23393841Y3001997D01*
X23380949Y2915081D01*
X23359604Y2829866D01*
X23330004Y2747144D01*
X23292444Y2667727D01*
X23247279Y2592374D01*
X23194945Y2521810D01*
X23135943Y2456711D01*
X23070844Y2397709D01*
X23000280Y2345375D01*
X22924927Y2300210D01*
X22845510Y2262650D01*
X22762788Y2233050D01*
X22677573Y2211705D01*
X22590657Y2198813D01*
X22502917Y2194501D01*
D02*
G37*
%LPC*%
G36*
X51265000Y33860000D02*
X49975000Y33860000D01*
X49975000Y35250000D01*
X50265000Y35250000D01*
X50265000Y35790000D01*
X49975000Y35790000D01*
X49975000Y37180000D01*
X50265000Y37180000D01*
X50265000Y40060000D01*
X49025000Y40060000D01*
X49025000Y41950000D01*
X52215000Y41950000D01*
X52215000Y40060000D01*
X50975000Y40060000D01*
X50975000Y37180000D01*
X51265000Y37180000D01*
X51265000Y35790000D01*
X50975000Y35790000D01*
X50975000Y35250000D01*
X51265000Y35250000D01*
X51265000Y34910000D01*
X52005000Y34910000D01*
X52005000Y35200000D01*
X53095000Y35200000D01*
X53095000Y33910000D01*
X52005000Y33910000D01*
X52005000Y34200000D01*
X51265000Y34200000D01*
X51265000Y33860000D01*
D02*
G37*
%LPC*%
G36*
X33515000Y39549765D02*
X33432152Y39553836D01*
X33350095Y39566009D01*
X33269644Y39586159D01*
X33191544Y39614105D01*
X33116561Y39649570D01*
X33045411Y39692214D01*
X32978789Y39741625D01*
X32917329Y39797329D01*
X32861625Y39858789D01*
X32812214Y39925411D01*
X32769570Y39996561D01*
X32734105Y40071544D01*
X32706159Y40149644D01*
X32686009Y40230095D01*
X32673836Y40312152D01*
X32669765Y40395000D01*
X32673836Y40477848D01*
X32686009Y40559905D01*
X32706159Y40640356D01*
X32734105Y40718456D01*
X32769570Y40793439D01*
X32812214Y40864589D01*
X32861625Y40931211D01*
X32917329Y40992671D01*
X32978789Y41048375D01*
X33045411Y41097786D01*
X33116561Y41140430D01*
X33191544Y41175895D01*
X33269644Y41203841D01*
X33350095Y41223991D01*
X33432152Y41236164D01*
X33515000Y41240235D01*
X33597848Y41236164D01*
X33679905Y41223991D01*
X33760356Y41203841D01*
X33838456Y41175895D01*
X33913439Y41140430D01*
X33984589Y41097786D01*
X34051211Y41048375D01*
X34112671Y40992671D01*
X34168375Y40931211D01*
X34217786Y40864589D01*
X34260430Y40793439D01*
X34295895Y40718456D01*
X34323841Y40640356D01*
X34343991Y40559905D01*
X34356164Y40477848D01*
X34360235Y40395000D01*
X34356164Y40312152D01*
X34343991Y40230095D01*
X34323841Y40149644D01*
X34295895Y40071544D01*
X34260430Y39996561D01*
X34217786Y39925411D01*
X34168375Y39858789D01*
X34112671Y39797329D01*
X34051211Y39741625D01*
X33984589Y39692214D01*
X33913439Y39649570D01*
X33838456Y39614105D01*
X33760356Y39586159D01*
X33679905Y39566009D01*
X33597848Y39553836D01*
X33515000Y39549765D01*
D02*
G37*
%LPC*%
G36*
X24400000Y39549765D02*
X24317152Y39553836D01*
X24235095Y39566009D01*
X24154644Y39586159D01*
X24076544Y39614105D01*
X24001561Y39649570D01*
X23930411Y39692214D01*
X23863789Y39741625D01*
X23802329Y39797329D01*
X23746625Y39858789D01*
X23697214Y39925411D01*
X23654570Y39996561D01*
X23619105Y40071544D01*
X23591159Y40149644D01*
X23571009Y40230095D01*
X23558836Y40312152D01*
X23554765Y40395000D01*
X23558836Y40477848D01*
X23571009Y40559905D01*
X23591159Y40640356D01*
X23619105Y40718456D01*
X23654570Y40793439D01*
X23697214Y40864589D01*
X23746625Y40931211D01*
X23802329Y40992671D01*
X23863789Y41048375D01*
X23930411Y41097786D01*
X24001561Y41140430D01*
X24076544Y41175895D01*
X24154644Y41203841D01*
X24235095Y41223991D01*
X24317152Y41236164D01*
X24400000Y41240235D01*
X24482848Y41236164D01*
X24564905Y41223991D01*
X24645356Y41203841D01*
X24723456Y41175895D01*
X24798439Y41140430D01*
X24869589Y41097786D01*
X24936211Y41048375D01*
X24997671Y40992671D01*
X25053375Y40931211D01*
X25102786Y40864589D01*
X25145430Y40793439D01*
X25180895Y40718456D01*
X25208841Y40640356D01*
X25228991Y40559905D01*
X25241164Y40477848D01*
X25245235Y40395000D01*
X25241164Y40312152D01*
X25228991Y40230095D01*
X25208841Y40149644D01*
X25180895Y40071544D01*
X25145430Y39996561D01*
X25102786Y39925411D01*
X25053375Y39858789D01*
X24997671Y39797329D01*
X24936211Y39741625D01*
X24869589Y39692214D01*
X24798439Y39649570D01*
X24723456Y39614105D01*
X24645356Y39586159D01*
X24564905Y39566009D01*
X24482848Y39553836D01*
X24400000Y39549765D01*
D02*
G37*
%LPC*%
G36*
X30975000Y37009765D02*
X30892152Y37013836D01*
X30810095Y37026009D01*
X30729644Y37046159D01*
X30651544Y37074105D01*
X30576561Y37109570D01*
X30505411Y37152214D01*
X30438789Y37201625D01*
X30377329Y37257329D01*
X30321625Y37318789D01*
X30272214Y37385411D01*
X30229570Y37456561D01*
X30194105Y37531544D01*
X30166159Y37609644D01*
X30146009Y37690095D01*
X30133836Y37772152D01*
X30129765Y37855000D01*
X30133836Y37937848D01*
X30146009Y38019905D01*
X30166159Y38100356D01*
X30194105Y38178456D01*
X30229570Y38253439D01*
X30272214Y38324589D01*
X30321625Y38391211D01*
X30377329Y38452671D01*
X30438789Y38508375D01*
X30505411Y38557786D01*
X30576561Y38600430D01*
X30651544Y38635895D01*
X30729644Y38663841D01*
X30810095Y38683991D01*
X30892152Y38696164D01*
X30975000Y38700235D01*
X31057848Y38696164D01*
X31139905Y38683991D01*
X31220356Y38663841D01*
X31298456Y38635895D01*
X31373439Y38600430D01*
X31444589Y38557786D01*
X31511211Y38508375D01*
X31572671Y38452671D01*
X31628375Y38391211D01*
X31677786Y38324589D01*
X31720430Y38253439D01*
X31755895Y38178456D01*
X31783841Y38100356D01*
X31803991Y38019905D01*
X31816164Y37937848D01*
X31820235Y37855000D01*
X31816164Y37772152D01*
X31803991Y37690095D01*
X31783841Y37609644D01*
X31755895Y37531544D01*
X31720430Y37456561D01*
X31677786Y37385411D01*
X31628375Y37318789D01*
X31572671Y37257329D01*
X31511211Y37201625D01*
X31444589Y37152214D01*
X31373439Y37109570D01*
X31298456Y37074105D01*
X31220356Y37046159D01*
X31139905Y37026009D01*
X31057848Y37013836D01*
X30975000Y37009765D01*
D02*
G37*
%LPC*%
G36*
X26940000Y37009765D02*
X26857152Y37013836D01*
X26775095Y37026009D01*
X26694644Y37046159D01*
X26616544Y37074105D01*
X26541561Y37109570D01*
X26470411Y37152214D01*
X26403789Y37201625D01*
X26342329Y37257329D01*
X26286625Y37318789D01*
X26237214Y37385411D01*
X26194570Y37456561D01*
X26159105Y37531544D01*
X26131159Y37609644D01*
X26111009Y37690095D01*
X26098836Y37772152D01*
X26094765Y37855000D01*
X26098836Y37937848D01*
X26111009Y38019905D01*
X26131159Y38100356D01*
X26159105Y38178456D01*
X26194570Y38253439D01*
X26237214Y38324589D01*
X26286625Y38391211D01*
X26342329Y38452671D01*
X26403789Y38508375D01*
X26470411Y38557786D01*
X26541561Y38600430D01*
X26616544Y38635895D01*
X26694644Y38663841D01*
X26775095Y38683991D01*
X26857152Y38696164D01*
X26940000Y38700235D01*
X27022848Y38696164D01*
X27104905Y38683991D01*
X27185356Y38663841D01*
X27263456Y38635895D01*
X27338439Y38600430D01*
X27409589Y38557786D01*
X27476211Y38508375D01*
X27537671Y38452671D01*
X27593375Y38391211D01*
X27642786Y38324589D01*
X27685430Y38253439D01*
X27720895Y38178456D01*
X27748841Y38100356D01*
X27768991Y38019905D01*
X27781164Y37937848D01*
X27785235Y37855000D01*
X27781164Y37772152D01*
X27768991Y37690095D01*
X27748841Y37609644D01*
X27720895Y37531544D01*
X27685430Y37456561D01*
X27642786Y37385411D01*
X27593375Y37318789D01*
X27537671Y37257329D01*
X27476211Y37201625D01*
X27409589Y37152214D01*
X27338439Y37109570D01*
X27263456Y37074105D01*
X27185356Y37046159D01*
X27104905Y37026009D01*
X27022848Y37013836D01*
X26940000Y37009765D01*
D02*
G37*
%LPC*%
G36*
X21860000Y37009765D02*
X21777152Y37013836D01*
X21695095Y37026009D01*
X21614644Y37046159D01*
X21536544Y37074105D01*
X21461561Y37109570D01*
X21390411Y37152214D01*
X21323789Y37201625D01*
X21262329Y37257329D01*
X21206625Y37318789D01*
X21157214Y37385411D01*
X21114570Y37456561D01*
X21079105Y37531544D01*
X21051159Y37609644D01*
X21031009Y37690095D01*
X21018836Y37772152D01*
X21014765Y37855000D01*
X21018836Y37937848D01*
X21031009Y38019905D01*
X21051159Y38100356D01*
X21079105Y38178456D01*
X21114570Y38253439D01*
X21157214Y38324589D01*
X21206625Y38391211D01*
X21262329Y38452671D01*
X21323789Y38508375D01*
X21390411Y38557786D01*
X21461561Y38600430D01*
X21536544Y38635895D01*
X21614644Y38663841D01*
X21695095Y38683991D01*
X21777152Y38696164D01*
X21860000Y38700235D01*
X21942848Y38696164D01*
X22024905Y38683991D01*
X22105356Y38663841D01*
X22183456Y38635895D01*
X22258439Y38600430D01*
X22329589Y38557786D01*
X22396211Y38508375D01*
X22457671Y38452671D01*
X22513375Y38391211D01*
X22562786Y38324589D01*
X22605430Y38253439D01*
X22640895Y38178456D01*
X22668841Y38100356D01*
X22688991Y38019905D01*
X22701164Y37937848D01*
X22705235Y37855000D01*
X22701164Y37772152D01*
X22688991Y37690095D01*
X22668841Y37609644D01*
X22640895Y37531544D01*
X22605430Y37456561D01*
X22562786Y37385411D01*
X22513375Y37318789D01*
X22457671Y37257329D01*
X22396211Y37201625D01*
X22329589Y37152214D01*
X22258439Y37109570D01*
X22183456Y37074105D01*
X22105356Y37046159D01*
X22024905Y37026009D01*
X21942848Y37013836D01*
X21860000Y37009765D01*
D02*
G37*
%LPC*%
G36*
X36055000Y37009765D02*
X35972152Y37013836D01*
X35890095Y37026009D01*
X35809644Y37046159D01*
X35731544Y37074105D01*
X35656561Y37109570D01*
X35585411Y37152214D01*
X35518789Y37201625D01*
X35457329Y37257329D01*
X35401625Y37318789D01*
X35352214Y37385411D01*
X35309570Y37456561D01*
X35274105Y37531544D01*
X35246159Y37609644D01*
X35226009Y37690095D01*
X35213836Y37772152D01*
X35209765Y37855000D01*
X35213836Y37937848D01*
X35226009Y38019905D01*
X35246159Y38100356D01*
X35274105Y38178456D01*
X35309570Y38253439D01*
X35352214Y38324589D01*
X35401625Y38391211D01*
X35457329Y38452671D01*
X35518789Y38508375D01*
X35585411Y38557786D01*
X35656561Y38600430D01*
X35731544Y38635895D01*
X35809644Y38663841D01*
X35890095Y38683991D01*
X35972152Y38696164D01*
X36055000Y38700235D01*
X36137848Y38696164D01*
X36219905Y38683991D01*
X36300356Y38663841D01*
X36378456Y38635895D01*
X36453439Y38600430D01*
X36524589Y38557786D01*
X36591211Y38508375D01*
X36652671Y38452671D01*
X36708375Y38391211D01*
X36757786Y38324589D01*
X36800430Y38253439D01*
X36835895Y38178456D01*
X36863841Y38100356D01*
X36883991Y38019905D01*
X36896164Y37937848D01*
X36900235Y37855000D01*
X36896164Y37772152D01*
X36883991Y37690095D01*
X36863841Y37609644D01*
X36835895Y37531544D01*
X36800430Y37456561D01*
X36757786Y37385411D01*
X36708375Y37318789D01*
X36652671Y37257329D01*
X36591211Y37201625D01*
X36524589Y37152214D01*
X36453439Y37109570D01*
X36378456Y37074105D01*
X36300356Y37046159D01*
X36219905Y37026009D01*
X36137848Y37013836D01*
X36055000Y37009765D01*
D02*
G37*
%LPC*%
G36*
X9500000Y35254764D02*
X9377953Y35260762D01*
X9257065Y35278693D01*
X9138526Y35308385D01*
X9023471Y35349552D01*
X8913002Y35401800D01*
X8808185Y35464625D01*
X8710033Y35537421D01*
X8619486Y35619486D01*
X8537421Y35710033D01*
X8464625Y35808185D01*
X8401800Y35913002D01*
X8349552Y36023471D01*
X8308385Y36138526D01*
X8278693Y36257065D01*
X8260762Y36377953D01*
X8254764Y36500000D01*
X8260762Y36622047D01*
X8278693Y36742935D01*
X8308385Y36861474D01*
X8349552Y36976529D01*
X8401800Y37086998D01*
X8464625Y37191815D01*
X8537421Y37289967D01*
X8619486Y37380514D01*
X8710033Y37462579D01*
X8808185Y37535375D01*
X8913002Y37598200D01*
X9023471Y37650448D01*
X9138526Y37691615D01*
X9257065Y37721307D01*
X9377953Y37739238D01*
X9500000Y37745236D01*
X9622047Y37739238D01*
X9742935Y37721307D01*
X9861474Y37691615D01*
X9976529Y37650448D01*
X10086998Y37598200D01*
X10191815Y37535375D01*
X10289967Y37462579D01*
X10380514Y37380514D01*
X10462579Y37289967D01*
X10535375Y37191815D01*
X10598200Y37086998D01*
X10650448Y36976529D01*
X10691615Y36861474D01*
X10721307Y36742935D01*
X10739238Y36622047D01*
X10745236Y36500000D01*
X10739238Y36377953D01*
X10721307Y36257065D01*
X10691615Y36138526D01*
X10650448Y36023471D01*
X10598200Y35913002D01*
X10535375Y35808185D01*
X10462579Y35710033D01*
X10380514Y35619486D01*
X10289967Y35537421D01*
X10191815Y35464625D01*
X10086998Y35401800D01*
X9976529Y35349552D01*
X9861474Y35308385D01*
X9742935Y35278693D01*
X9622047Y35260762D01*
X9500000Y35254764D01*
D02*
G37*
%LPC*%
G36*
X14500000Y35254764D02*
X14377953Y35260762D01*
X14257065Y35278693D01*
X14138526Y35308385D01*
X14023471Y35349552D01*
X13913002Y35401800D01*
X13808185Y35464625D01*
X13710033Y35537421D01*
X13619486Y35619486D01*
X13537421Y35710033D01*
X13464625Y35808185D01*
X13401800Y35913002D01*
X13349552Y36023471D01*
X13308385Y36138526D01*
X13278693Y36257065D01*
X13260762Y36377953D01*
X13254764Y36500000D01*
X13260762Y36622047D01*
X13278693Y36742935D01*
X13308385Y36861474D01*
X13349552Y36976529D01*
X13401800Y37086998D01*
X13464625Y37191815D01*
X13537421Y37289967D01*
X13619486Y37380514D01*
X13710033Y37462579D01*
X13808185Y37535375D01*
X13913002Y37598200D01*
X14023471Y37650448D01*
X14138526Y37691615D01*
X14257065Y37721307D01*
X14377953Y37739238D01*
X14500000Y37745236D01*
X14622047Y37739238D01*
X14742935Y37721307D01*
X14861474Y37691615D01*
X14976529Y37650448D01*
X15086998Y37598200D01*
X15191815Y37535375D01*
X15289967Y37462579D01*
X15380514Y37380514D01*
X15462579Y37289967D01*
X15535375Y37191815D01*
X15598200Y37086998D01*
X15650448Y36976529D01*
X15691615Y36861474D01*
X15721307Y36742935D01*
X15739238Y36622047D01*
X15745236Y36500000D01*
X15739238Y36377953D01*
X15721307Y36257065D01*
X15691615Y36138526D01*
X15650448Y36023471D01*
X15598200Y35913002D01*
X15535375Y35808185D01*
X15462579Y35710033D01*
X15380514Y35619486D01*
X15289967Y35537421D01*
X15191815Y35464625D01*
X15086998Y35401800D01*
X14976529Y35349552D01*
X14861474Y35308385D01*
X14742935Y35278693D01*
X14622047Y35260762D01*
X14500000Y35254764D01*
D02*
G37*
%LPC*%
G36*
X4500000Y35254764D02*
X4377953Y35260762D01*
X4257065Y35278693D01*
X4138526Y35308385D01*
X4023471Y35349552D01*
X3913002Y35401800D01*
X3808185Y35464625D01*
X3710033Y35537421D01*
X3619486Y35619486D01*
X3537421Y35710033D01*
X3464625Y35808185D01*
X3401800Y35913002D01*
X3349552Y36023471D01*
X3308385Y36138526D01*
X3278693Y36257065D01*
X3260762Y36377953D01*
X3254764Y36500000D01*
X3260762Y36622047D01*
X3278693Y36742935D01*
X3308385Y36861474D01*
X3349552Y36976529D01*
X3401800Y37086998D01*
X3464625Y37191815D01*
X3537421Y37289967D01*
X3619486Y37380514D01*
X3710033Y37462579D01*
X3808185Y37535375D01*
X3913002Y37598200D01*
X4023471Y37650448D01*
X4138526Y37691615D01*
X4257065Y37721307D01*
X4377953Y37739238D01*
X4500000Y37745236D01*
X4622047Y37739238D01*
X4742935Y37721307D01*
X4861474Y37691615D01*
X4976529Y37650448D01*
X5086998Y37598200D01*
X5191815Y37535375D01*
X5289967Y37462579D01*
X5380514Y37380514D01*
X5462579Y37289967D01*
X5535375Y37191815D01*
X5598200Y37086998D01*
X5650448Y36976529D01*
X5691615Y36861474D01*
X5721307Y36742935D01*
X5739238Y36622047D01*
X5745236Y36500000D01*
X5739238Y36377953D01*
X5721307Y36257065D01*
X5691615Y36138526D01*
X5650448Y36023471D01*
X5598200Y35913002D01*
X5535375Y35808185D01*
X5462579Y35710033D01*
X5380514Y35619486D01*
X5289967Y35537421D01*
X5191815Y35464625D01*
X5086998Y35401800D01*
X4976529Y35349552D01*
X4861474Y35308385D01*
X4742935Y35278693D01*
X4622047Y35260762D01*
X4500000Y35254764D01*
D02*
G37*
%LPC*%
G36*
X47120000Y35779752D02*
X47050883Y35783148D01*
X46982405Y35793307D01*
X46915284Y35810118D01*
X46850114Y35833438D01*
X46787551Y35863027D01*
X46728179Y35898614D01*
X46672599Y35939834D01*
X46621315Y35986315D01*
X46574834Y36037599D01*
X46533614Y36093179D01*
X46498027Y36152551D01*
X46468438Y36215114D01*
X46445118Y36280284D01*
X46428307Y36347405D01*
X46418148Y36415883D01*
X46414752Y36485000D01*
X46418148Y36554117D01*
X46428307Y36622595D01*
X46445118Y36689716D01*
X46468438Y36754886D01*
X46498027Y36817449D01*
X46533614Y36876821D01*
X46574834Y36932401D01*
X46621315Y36983685D01*
X46672599Y37030166D01*
X46728179Y37071386D01*
X46787551Y37106973D01*
X46850114Y37136562D01*
X46915284Y37159882D01*
X46982405Y37176693D01*
X47050883Y37186852D01*
X47120000Y37190248D01*
X47189117Y37186852D01*
X47257595Y37176693D01*
X47324716Y37159882D01*
X47389886Y37136562D01*
X47452449Y37106973D01*
X47511821Y37071386D01*
X47567400Y37030166D01*
X47611716Y36990000D01*
X48375000Y36990000D01*
X48375000Y37180000D01*
X49665000Y37180000D01*
X49665000Y35790000D01*
X48375000Y35790000D01*
X48375000Y35980000D01*
X47611716Y35980000D01*
X47567400Y35939834D01*
X47511821Y35898614D01*
X47452449Y35863027D01*
X47389886Y35833438D01*
X47324716Y35810118D01*
X47257595Y35793307D01*
X47189117Y35783148D01*
X47120000Y35779752D01*
D02*
G37*
%LPC*%
G36*
X55000000Y35749752D02*
X54930883Y35753148D01*
X54862405Y35763307D01*
X54795284Y35780118D01*
X54730114Y35803438D01*
X54667551Y35833027D01*
X54608179Y35868614D01*
X54552599Y35909834D01*
X54480699Y35975000D01*
X53745000Y35975000D01*
X53745000Y35810000D01*
X52655000Y35810000D01*
X52655000Y37100000D01*
X53745000Y37100000D01*
X53745000Y36935000D01*
X54480699Y36935000D01*
X54552599Y37000166D01*
X54608179Y37041386D01*
X54667551Y37076973D01*
X54730114Y37106562D01*
X54795284Y37129882D01*
X54862405Y37146693D01*
X54930883Y37156852D01*
X55000000Y37160248D01*
X55069117Y37156852D01*
X55137595Y37146693D01*
X55204716Y37129882D01*
X55269886Y37106562D01*
X55332449Y37076973D01*
X55391821Y37041386D01*
X55447401Y37000166D01*
X55498685Y36953685D01*
X55545166Y36902401D01*
X55586386Y36846821D01*
X55621973Y36787449D01*
X55651562Y36724886D01*
X55674882Y36659716D01*
X55691693Y36592595D01*
X55701852Y36524117D01*
X55705248Y36455000D01*
X55701852Y36385883D01*
X55691693Y36317405D01*
X55674882Y36250284D01*
X55651562Y36185114D01*
X55621973Y36122551D01*
X55586386Y36063179D01*
X55545166Y36007599D01*
X55498685Y35956315D01*
X55447401Y35909834D01*
X55391821Y35868614D01*
X55332449Y35833027D01*
X55269886Y35803438D01*
X55204716Y35780118D01*
X55137595Y35763307D01*
X55069117Y35753148D01*
X55000000Y35749752D01*
D02*
G37*
%LPC*%
G36*
X49670000Y34705000D02*
X49170000Y34705000D01*
X49170000Y35255000D01*
X49670000Y35255000D01*
X49670000Y34705000D01*
D02*
G37*
%LPC*%
G36*
X48870000Y34705000D02*
X48370000Y34705000D01*
X48370000Y35255000D01*
X48870000Y35255000D01*
X48870000Y34705000D01*
D02*
G37*
%LPC*%
G36*
X54495000Y29880000D02*
X53205000Y29880000D01*
X53205000Y31270000D01*
X53495000Y31270000D01*
X53495000Y31810000D01*
X53205000Y31810000D01*
X53205000Y33200000D01*
X53495000Y33200000D01*
X53495000Y33910000D01*
X53305000Y33910000D01*
X53305000Y35200000D01*
X54395000Y35200000D01*
X54395000Y33910000D01*
X54205000Y33910000D01*
X54205000Y33200000D01*
X54495000Y33200000D01*
X54495000Y31810000D01*
X54205000Y31810000D01*
X54205000Y31270000D01*
X54495000Y31270000D01*
X54495000Y29880000D01*
D02*
G37*
%LPC*%
G36*
X48870000Y33855000D02*
X48370000Y33855000D01*
X48370000Y34405000D01*
X48870000Y34405000D01*
X48870000Y33855000D01*
D02*
G37*
%LPC*%
G36*
X49670000Y33855000D02*
X49170000Y33855000D01*
X49170000Y34405000D01*
X49670000Y34405000D01*
X49670000Y33855000D01*
D02*
G37*
%LPC*%
G36*
X52900000Y32655000D02*
X52400000Y32655000D01*
X52400000Y33205000D01*
X52900000Y33205000D01*
X52900000Y32655000D01*
D02*
G37*
%LPC*%
G36*
X52100000Y32655000D02*
X51600000Y32655000D01*
X51600000Y33205000D01*
X52100000Y33205000D01*
X52100000Y32655000D01*
D02*
G37*
%LPC*%
G36*
X48815000Y29584999D02*
X46925000Y29584999D01*
X46925000Y32774999D01*
X48815000Y32774999D01*
X48815000Y30930000D01*
X51605000Y30930000D01*
X51605000Y31270000D01*
X52895000Y31270000D01*
X52895000Y29880000D01*
X51605000Y29880000D01*
X51605000Y30220000D01*
X48815000Y30220000D01*
X48815000Y29584999D01*
D02*
G37*
%LPC*%
G36*
X28135000Y30210000D02*
X25745000Y30210000D01*
X25745000Y32600000D01*
X28135000Y32600000D01*
X28135000Y30210000D01*
D02*
G37*
%LPC*%
G36*
X37250000Y30210000D02*
X34860000Y30210000D01*
X34860000Y32600000D01*
X37250000Y32600000D01*
X37250000Y30210000D01*
D02*
G37*
%LPC*%
G36*
X52900000Y31805000D02*
X52400000Y31805000D01*
X52400000Y32355000D01*
X52900000Y32355000D01*
X52900000Y31805000D01*
D02*
G37*
%LPC*%
G36*
X52100000Y31805000D02*
X51600000Y31805000D01*
X51600000Y32355000D01*
X52100000Y32355000D01*
X52100000Y31805000D01*
D02*
G37*
%LPC*%
G36*
X54486500Y28795000D02*
X53986500Y28795000D01*
X53986500Y29345000D01*
X54486500Y29345000D01*
X54486500Y28795000D01*
D02*
G37*
%LPC*%
G36*
X53686500Y28795000D02*
X53186500Y28795000D01*
X53186500Y29345000D01*
X53686500Y29345000D01*
X53686500Y28795000D01*
D02*
G37*
%LPC*%
G36*
X40502917Y2194501D02*
X40415177Y2198813D01*
X40328261Y2211705D01*
X40243046Y2233050D01*
X40160324Y2262650D01*
X40080907Y2300210D01*
X40005554Y2345375D01*
X39934990Y2397709D01*
X39869891Y2456711D01*
X39810889Y2521810D01*
X39758555Y2592374D01*
X39713390Y2667727D01*
X39675830Y2747144D01*
X39646230Y2829866D01*
X39624885Y2915081D01*
X39611993Y3001997D01*
X39607681Y3089737D01*
X39611993Y3177477D01*
X39624885Y3264393D01*
X39646230Y3349608D01*
X39675830Y3432330D01*
X39713390Y3511747D01*
X39758555Y3587100D01*
X39810889Y3657664D01*
X39869891Y3722763D01*
X39934990Y3781765D01*
X40005554Y3834099D01*
X40080907Y3879264D01*
X40160324Y3916824D01*
X40243046Y3946424D01*
X40328261Y3967769D01*
X40415177Y3980661D01*
X40502917Y3984973D01*
X40590657Y3980661D01*
X40677573Y3967769D01*
X40762788Y3946424D01*
X40832584Y3921450D01*
X47515000Y10603867D01*
X47515000Y24885001D01*
X46925000Y24885001D01*
X46925000Y28075001D01*
X48815000Y28075001D01*
X48815000Y26835001D01*
X49924454Y26835001D01*
X51591500Y28502046D01*
X51591500Y29340000D01*
X52881500Y29340000D01*
X52881500Y27950000D01*
X52043546Y27950000D01*
X50329099Y26235552D01*
X50322623Y26227780D01*
X50269278Y26184004D01*
X50207730Y26151107D01*
X50140952Y26130850D01*
X50081567Y26125001D01*
X48815000Y26125001D01*
X48815000Y24885001D01*
X48225000Y24885001D01*
X48225000Y10446743D01*
X48219151Y10387368D01*
X48198893Y10320590D01*
X48165996Y10259042D01*
X48122220Y10205697D01*
X48114448Y10199221D01*
X41334630Y3419404D01*
X41359604Y3349608D01*
X41380949Y3264393D01*
X41393841Y3177477D01*
X41398153Y3089737D01*
X41393841Y3001997D01*
X41380949Y2915081D01*
X41359604Y2829866D01*
X41330004Y2747144D01*
X41292444Y2667727D01*
X41247279Y2592374D01*
X41194945Y2521810D01*
X41135943Y2456711D01*
X41070844Y2397709D01*
X41000280Y2345375D01*
X40924927Y2300210D01*
X40845510Y2262650D01*
X40762788Y2233050D01*
X40677573Y2211705D01*
X40590657Y2198813D01*
X40502917Y2194501D01*
D02*
G37*
%LPC*%
G36*
X53686500Y27945000D02*
X53186500Y27945000D01*
X53186500Y28495000D01*
X53686500Y28495000D01*
X53686500Y27945000D01*
D02*
G37*
%LPC*%
G36*
X54486500Y27945000D02*
X53986500Y27945000D01*
X53986500Y28495000D01*
X54486500Y28495000D01*
X54486500Y27945000D01*
D02*
G37*
%LPC*%
G36*
X30155000Y9245000D02*
X27845000Y9245000D01*
X27845000Y13145000D01*
X26745000Y13145000D01*
X26745000Y20555000D01*
X31255000Y20555000D01*
X31255000Y13145000D01*
X30155000Y13145000D01*
X30155000Y9245000D01*
D02*
G37*
%LPD*%
G36*
X29900000Y9500000D02*
X29900000Y13400000D01*
X31000000Y13400000D01*
X31000000Y20300000D01*
X27000000Y20300000D01*
X27000000Y13400000D01*
X28100000Y13400000D01*
X28100000Y9500000D01*
X29900000Y9500000D01*
D02*
G37*
%LPC*%
G36*
X35800000Y16550000D02*
X34150000Y16550000D01*
X34150000Y17400000D01*
X35800000Y17400000D01*
X35800000Y16550000D01*
D02*
G37*
%LPC*%
G36*
X33850000Y16550000D02*
X32200000Y16550000D01*
X32200000Y17400000D01*
X33850000Y17400000D01*
X33850000Y16550000D01*
D02*
G37*
%LPC*%
G36*
X35800000Y15400000D02*
X34150000Y15400000D01*
X34150000Y16250000D01*
X35800000Y16250000D01*
X35800000Y15400000D01*
D02*
G37*
%LPC*%
G36*
X33850000Y15400000D02*
X32200000Y15400000D01*
X32200000Y16250000D01*
X33850000Y16250000D01*
X33850000Y15400000D01*
D02*
G37*
%LPC*%
G36*
X31405000Y1715000D02*
X29605000Y1715000D01*
X29605000Y8255000D01*
X30845000Y8255000D01*
X30845000Y12355000D01*
X33155000Y12355000D01*
X33155000Y5545000D01*
X31405000Y5545000D01*
X31405000Y1715000D01*
D02*
G37*
%LPD*%
G36*
X31150000Y1970000D02*
X31150000Y5800000D01*
X32900000Y5800000D01*
X32900000Y12100000D01*
X31100000Y12100000D01*
X31100000Y8000000D01*
X29860000Y8000000D01*
X29860000Y1970000D01*
X31150000Y1970000D01*
D02*
G37*
%LPC*%
G36*
X10477083Y5646027D02*
X10389343Y5650339D01*
X10302427Y5663231D01*
X10217212Y5684576D01*
X10134490Y5714176D01*
X10055073Y5751736D01*
X9979720Y5796901D01*
X9909156Y5849235D01*
X9844057Y5908237D01*
X9785055Y5973336D01*
X9732721Y6043900D01*
X9687556Y6119253D01*
X9649996Y6198670D01*
X9620396Y6281392D01*
X9599051Y6366607D01*
X9586159Y6453523D01*
X9581847Y6541263D01*
X9584063Y6586355D01*
X9586159Y6629003D01*
X9599051Y6715919D01*
X9620396Y6801134D01*
X9649996Y6883856D01*
X9687556Y6963273D01*
X9732721Y7038626D01*
X9785055Y7109190D01*
X9844057Y7174289D01*
X9909156Y7233291D01*
X9979720Y7285625D01*
X10055073Y7330790D01*
X10134490Y7368350D01*
X10217212Y7397950D01*
X10302427Y7419295D01*
X10389343Y7432187D01*
X10477083Y7436499D01*
X10564823Y7432187D01*
X10651739Y7419295D01*
X10736954Y7397950D01*
X10819676Y7368350D01*
X10899093Y7330790D01*
X10974446Y7285625D01*
X11045010Y7233291D01*
X11110109Y7174289D01*
X11169111Y7109190D01*
X11221445Y7038626D01*
X11266610Y6963273D01*
X11304170Y6883856D01*
X11333770Y6801134D01*
X11355115Y6715919D01*
X11368007Y6629003D01*
X11372319Y6541263D01*
X11368007Y6453523D01*
X11355115Y6366607D01*
X11333770Y6281392D01*
X11304170Y6198670D01*
X11266610Y6119253D01*
X11221445Y6043900D01*
X11169111Y5973336D01*
X11110109Y5908237D01*
X11045010Y5849235D01*
X10974446Y5796901D01*
X10899093Y5751736D01*
X10819676Y5714176D01*
X10736954Y5684576D01*
X10651739Y5663231D01*
X10564823Y5650339D01*
X10477083Y5646027D01*
D02*
G37*
%LPC*%
G36*
X54477083Y5646027D02*
X54389343Y5650339D01*
X54302427Y5663231D01*
X54217212Y5684576D01*
X54134490Y5714176D01*
X54055073Y5751736D01*
X53979720Y5796901D01*
X53909156Y5849235D01*
X53844057Y5908237D01*
X53785055Y5973336D01*
X53732721Y6043900D01*
X53687556Y6119253D01*
X53649996Y6198670D01*
X53620396Y6281392D01*
X53599051Y6366607D01*
X53586159Y6453523D01*
X53581847Y6541263D01*
X53584063Y6586355D01*
X53586159Y6629003D01*
X53599051Y6715919D01*
X53620396Y6801134D01*
X53649996Y6883856D01*
X53687556Y6963273D01*
X53732721Y7038626D01*
X53785055Y7109190D01*
X53844057Y7174289D01*
X53909156Y7233291D01*
X53979720Y7285625D01*
X54055073Y7330790D01*
X54134490Y7368350D01*
X54217212Y7397950D01*
X54302427Y7419295D01*
X54389343Y7432187D01*
X54477083Y7436499D01*
X54564823Y7432187D01*
X54651739Y7419295D01*
X54736954Y7397950D01*
X54819676Y7368350D01*
X54899093Y7330790D01*
X54974446Y7285625D01*
X55045010Y7233291D01*
X55110109Y7174289D01*
X55169111Y7109190D01*
X55221445Y7038626D01*
X55266610Y6963273D01*
X55304170Y6883856D01*
X55333770Y6801134D01*
X55355115Y6715919D01*
X55368007Y6629003D01*
X55372319Y6541263D01*
X55368007Y6453523D01*
X55355115Y6366607D01*
X55333770Y6281392D01*
X55304170Y6198670D01*
X55266610Y6119253D01*
X55221445Y6043900D01*
X55169111Y5973336D01*
X55110109Y5908237D01*
X55045010Y5849235D01*
X54974446Y5796901D01*
X54899093Y5751736D01*
X54819676Y5714176D01*
X54736954Y5684576D01*
X54651739Y5663231D01*
X54564823Y5650339D01*
X54477083Y5646027D01*
D02*
G37*
%LPC*%
G36*
X8327083Y6691263D02*
X7590340Y6691263D01*
X7594143Y6716899D01*
X7615605Y6802585D01*
X7645369Y6885768D01*
X7683143Y6965632D01*
X7728565Y7041417D01*
X7781184Y7112366D01*
X7840517Y7177829D01*
X7905980Y7237162D01*
X7976929Y7289781D01*
X8052714Y7335203D01*
X8132578Y7372977D01*
X8215761Y7402741D01*
X8301447Y7424203D01*
X8327083Y7428006D01*
X8327083Y6691263D01*
D02*
G37*
%LPC*%
G36*
X53363826Y6691263D02*
X52627083Y6691263D01*
X52627083Y7428006D01*
X52652719Y7424203D01*
X52738405Y7402741D01*
X52821588Y7372977D01*
X52901452Y7335203D01*
X52977237Y7289781D01*
X53048186Y7237162D01*
X53113649Y7177829D01*
X53172982Y7112366D01*
X53225601Y7041417D01*
X53271023Y6965632D01*
X53308797Y6885768D01*
X53338561Y6802585D01*
X53360023Y6716899D01*
X53363826Y6691263D01*
D02*
G37*
%LPC*%
G36*
X52327083Y6691263D02*
X51590340Y6691263D01*
X51594143Y6716899D01*
X51615605Y6802585D01*
X51645369Y6885768D01*
X51683143Y6965632D01*
X51728565Y7041417D01*
X51781184Y7112366D01*
X51840517Y7177829D01*
X51905980Y7237162D01*
X51976929Y7289781D01*
X52052714Y7335203D01*
X52132578Y7372977D01*
X52215761Y7402741D01*
X52301447Y7424203D01*
X52327083Y7428006D01*
X52327083Y6691263D01*
D02*
G37*
%LPC*%
G36*
X9363826Y6691263D02*
X8627083Y6691263D01*
X8627083Y7428006D01*
X8652719Y7424203D01*
X8738405Y7402741D01*
X8821588Y7372977D01*
X8901452Y7335203D01*
X8977237Y7289781D01*
X9048186Y7237162D01*
X9113649Y7177829D01*
X9172982Y7112366D01*
X9225601Y7041417D01*
X9271023Y6965632D01*
X9308797Y6885768D01*
X9338561Y6802585D01*
X9360023Y6716899D01*
X9363826Y6691263D01*
D02*
G37*
%LPC*%
G36*
X52627083Y5654520D02*
X52627083Y6391263D01*
X53363826Y6391263D01*
X53360023Y6365627D01*
X53338561Y6279941D01*
X53308797Y6196758D01*
X53271023Y6116894D01*
X53225601Y6041109D01*
X53172982Y5970160D01*
X53113649Y5904697D01*
X53048186Y5845364D01*
X52977237Y5792745D01*
X52901452Y5747323D01*
X52821588Y5709549D01*
X52738405Y5679785D01*
X52652719Y5658323D01*
X52627083Y5654520D01*
D02*
G37*
%LPC*%
G36*
X52327083Y5654520D02*
X52301447Y5658323D01*
X52215761Y5679785D01*
X52132578Y5709549D01*
X52052714Y5747323D01*
X51976929Y5792745D01*
X51905980Y5845364D01*
X51840517Y5904697D01*
X51781184Y5970160D01*
X51728565Y6041109D01*
X51683143Y6116894D01*
X51645369Y6196758D01*
X51615605Y6279941D01*
X51594143Y6365627D01*
X51590340Y6391263D01*
X52327083Y6391263D01*
X52327083Y5654520D01*
D02*
G37*
%LPC*%
G36*
X8627083Y5654520D02*
X8627083Y6391263D01*
X9363826Y6391263D01*
X9360023Y6365627D01*
X9338561Y6279941D01*
X9308797Y6196758D01*
X9271023Y6116894D01*
X9225601Y6041109D01*
X9172982Y5970160D01*
X9113649Y5904697D01*
X9048186Y5845364D01*
X8977237Y5792745D01*
X8901452Y5747323D01*
X8821588Y5709549D01*
X8738405Y5679785D01*
X8652719Y5658323D01*
X8627083Y5654520D01*
D02*
G37*
%LPC*%
G36*
X8327083Y5654520D02*
X8301447Y5658323D01*
X8215761Y5679785D01*
X8132578Y5709549D01*
X8052714Y5747323D01*
X7976929Y5792745D01*
X7905980Y5845364D01*
X7840517Y5904697D01*
X7781184Y5970160D01*
X7728565Y6041109D01*
X7683143Y6116894D01*
X7645369Y6196758D01*
X7615605Y6279941D01*
X7594143Y6365627D01*
X7590340Y6391263D01*
X8327083Y6391263D01*
X8327083Y5654520D01*
D02*
G37*
%LPC*%
G36*
X36502917Y2194501D02*
X36415177Y2198813D01*
X36328261Y2211705D01*
X36243046Y2233050D01*
X36160324Y2262650D01*
X36080907Y2300210D01*
X36005554Y2345375D01*
X35934990Y2397709D01*
X35869891Y2456711D01*
X35810889Y2521810D01*
X35758555Y2592374D01*
X35713390Y2667727D01*
X35675830Y2747144D01*
X35646230Y2829866D01*
X35624885Y2915081D01*
X35611993Y3001997D01*
X35607681Y3089737D01*
X35611993Y3177477D01*
X35624885Y3264393D01*
X35646230Y3349608D01*
X35675830Y3432330D01*
X35713390Y3511747D01*
X35758555Y3587100D01*
X35810889Y3657664D01*
X35869891Y3722763D01*
X35934990Y3781765D01*
X36005554Y3834099D01*
X36080907Y3879264D01*
X36160324Y3916824D01*
X36243046Y3946424D01*
X36328261Y3967769D01*
X36415177Y3980661D01*
X36502917Y3984973D01*
X36590657Y3980661D01*
X36677573Y3967769D01*
X36762788Y3946424D01*
X36845510Y3916824D01*
X36924927Y3879264D01*
X37000280Y3834099D01*
X37070844Y3781765D01*
X37135943Y3722763D01*
X37194945Y3657664D01*
X37247279Y3587100D01*
X37292444Y3511747D01*
X37330004Y3432330D01*
X37359604Y3349608D01*
X37380949Y3264393D01*
X37393840Y3177487D01*
X37395936Y3134829D01*
X37398152Y3089727D01*
X37395937Y3044645D01*
X37393841Y3001997D01*
X37380949Y2915081D01*
X37359604Y2829866D01*
X37330004Y2747144D01*
X37292444Y2667727D01*
X37247279Y2592374D01*
X37194945Y2521810D01*
X37135943Y2456711D01*
X37070844Y2397709D01*
X37000280Y2345375D01*
X36924927Y2300210D01*
X36845510Y2262650D01*
X36762788Y2233050D01*
X36677573Y2211705D01*
X36590657Y2198813D01*
X36502917Y2194501D01*
D02*
G37*
%LPC*%
G36*
X34502917Y2194501D02*
X34415177Y2198813D01*
X34328261Y2211705D01*
X34243046Y2233050D01*
X34160324Y2262650D01*
X34080907Y2300210D01*
X34005554Y2345375D01*
X33934990Y2397709D01*
X33869891Y2456711D01*
X33810889Y2521810D01*
X33758555Y2592374D01*
X33713390Y2667727D01*
X33675830Y2747144D01*
X33646230Y2829866D01*
X33624885Y2915081D01*
X33611993Y3001997D01*
X33607681Y3089737D01*
X33611993Y3177477D01*
X33624885Y3264393D01*
X33646230Y3349608D01*
X33675830Y3432330D01*
X33713390Y3511747D01*
X33758555Y3587100D01*
X33810889Y3657664D01*
X33869891Y3722763D01*
X33934990Y3781765D01*
X34005554Y3834099D01*
X34080907Y3879264D01*
X34160324Y3916824D01*
X34243046Y3946424D01*
X34328261Y3967769D01*
X34415177Y3980661D01*
X34502917Y3984973D01*
X34590657Y3980661D01*
X34677573Y3967769D01*
X34762788Y3946424D01*
X34845510Y3916824D01*
X34924927Y3879264D01*
X35000280Y3834099D01*
X35070844Y3781765D01*
X35135943Y3722763D01*
X35194945Y3657664D01*
X35247279Y3587100D01*
X35292444Y3511747D01*
X35330004Y3432330D01*
X35359604Y3349608D01*
X35380949Y3264393D01*
X35393841Y3177477D01*
X35398153Y3089737D01*
X35393841Y3001997D01*
X35380949Y2915081D01*
X35359604Y2829866D01*
X35330004Y2747144D01*
X35292444Y2667727D01*
X35247279Y2592374D01*
X35194945Y2521810D01*
X35135943Y2456711D01*
X35070844Y2397709D01*
X35000280Y2345375D01*
X34924927Y2300210D01*
X34845510Y2262650D01*
X34762788Y2233050D01*
X34677573Y2211705D01*
X34590657Y2198813D01*
X34502917Y2194501D01*
D02*
G37*
%LPC*%
G36*
X32502917Y2194501D02*
X32415177Y2198813D01*
X32328261Y2211705D01*
X32243046Y2233050D01*
X32160324Y2262650D01*
X32080907Y2300210D01*
X32005554Y2345375D01*
X31934990Y2397709D01*
X31869891Y2456711D01*
X31810889Y2521810D01*
X31758555Y2592374D01*
X31713390Y2667727D01*
X31675830Y2747144D01*
X31646230Y2829866D01*
X31624885Y2915081D01*
X31611993Y3001997D01*
X31607681Y3089737D01*
X31611993Y3177477D01*
X31624885Y3264393D01*
X31646230Y3349608D01*
X31675830Y3432330D01*
X31713390Y3511747D01*
X31758555Y3587100D01*
X31810889Y3657664D01*
X31869891Y3722763D01*
X31934990Y3781765D01*
X32005554Y3834099D01*
X32080907Y3879264D01*
X32160324Y3916824D01*
X32243046Y3946424D01*
X32328261Y3967769D01*
X32415177Y3980661D01*
X32502917Y3984973D01*
X32590657Y3980661D01*
X32677573Y3967769D01*
X32762788Y3946424D01*
X32845510Y3916824D01*
X32924927Y3879264D01*
X33000280Y3834099D01*
X33070844Y3781765D01*
X33135943Y3722763D01*
X33194945Y3657664D01*
X33247279Y3587100D01*
X33292444Y3511747D01*
X33330004Y3432330D01*
X33359604Y3349608D01*
X33380949Y3264393D01*
X33393841Y3177477D01*
X33398153Y3089737D01*
X33393841Y3001997D01*
X33380949Y2915081D01*
X33359604Y2829866D01*
X33330004Y2747144D01*
X33292444Y2667727D01*
X33247279Y2592374D01*
X33194945Y2521810D01*
X33135943Y2456711D01*
X33070844Y2397709D01*
X33000280Y2345375D01*
X32924927Y2300210D01*
X32845510Y2262650D01*
X32762788Y2233050D01*
X32677573Y2211705D01*
X32590657Y2198813D01*
X32502917Y2194501D01*
D02*
G37*
%LPC*%
G36*
X26502917Y2194501D02*
X26415177Y2198813D01*
X26328261Y2211705D01*
X26243046Y2233050D01*
X26160324Y2262650D01*
X26080907Y2300210D01*
X26005554Y2345375D01*
X25934990Y2397709D01*
X25869891Y2456711D01*
X25810889Y2521810D01*
X25758555Y2592374D01*
X25713390Y2667727D01*
X25675830Y2747144D01*
X25646230Y2829866D01*
X25624885Y2915081D01*
X25611993Y3001997D01*
X25607681Y3089737D01*
X25611993Y3177477D01*
X25624885Y3264393D01*
X25646230Y3349608D01*
X25675830Y3432330D01*
X25713390Y3511747D01*
X25758555Y3587100D01*
X25810889Y3657664D01*
X25869891Y3722763D01*
X25934990Y3781765D01*
X26005554Y3834099D01*
X26080907Y3879264D01*
X26160324Y3916824D01*
X26243046Y3946424D01*
X26328261Y3967769D01*
X26415177Y3980661D01*
X26502917Y3984973D01*
X26590657Y3980661D01*
X26677573Y3967769D01*
X26762788Y3946424D01*
X26845510Y3916824D01*
X26924927Y3879264D01*
X27000280Y3834099D01*
X27070844Y3781765D01*
X27135943Y3722763D01*
X27194945Y3657664D01*
X27247279Y3587100D01*
X27292444Y3511747D01*
X27330004Y3432330D01*
X27359604Y3349608D01*
X27380949Y3264393D01*
X27393840Y3177487D01*
X27395936Y3134829D01*
X27398152Y3089727D01*
X27395937Y3044645D01*
X27393841Y3001997D01*
X27380949Y2915081D01*
X27359604Y2829866D01*
X27330004Y2747144D01*
X27292444Y2667727D01*
X27247279Y2592374D01*
X27194945Y2521810D01*
X27135943Y2456711D01*
X27070844Y2397709D01*
X27000280Y2345375D01*
X26924927Y2300210D01*
X26845510Y2262650D01*
X26762788Y2233050D01*
X26677573Y2211705D01*
X26590657Y2198813D01*
X26502917Y2194501D01*
D02*
G37*
%LPC*%
G36*
X24352917Y3239737D02*
X23616174Y3239737D01*
X23619977Y3265373D01*
X23641439Y3351059D01*
X23671203Y3434242D01*
X23708977Y3514106D01*
X23754399Y3589891D01*
X23807018Y3660840D01*
X23866351Y3726303D01*
X23931814Y3785636D01*
X24002763Y3838255D01*
X24078548Y3883677D01*
X24158412Y3921451D01*
X24241595Y3951215D01*
X24327281Y3972677D01*
X24352917Y3976480D01*
X24352917Y3239737D01*
D02*
G37*
%LPC*%
G36*
X25389660Y3239737D02*
X24652917Y3239737D01*
X24652917Y3976480D01*
X24678553Y3972677D01*
X24764239Y3951215D01*
X24847422Y3921451D01*
X24927286Y3883677D01*
X25003071Y3838255D01*
X25074020Y3785636D01*
X25139483Y3726303D01*
X25198816Y3660840D01*
X25251435Y3589891D01*
X25296857Y3514106D01*
X25334631Y3434242D01*
X25364395Y3351059D01*
X25385857Y3265373D01*
X25389660Y3239737D01*
D02*
G37*
%LPC*%
G36*
X28352917Y3239737D02*
X27616174Y3239737D01*
X27619977Y3265373D01*
X27641439Y3351059D01*
X27671203Y3434242D01*
X27708977Y3514106D01*
X27754399Y3589891D01*
X27807018Y3660840D01*
X27866351Y3726303D01*
X27931814Y3785636D01*
X28002763Y3838255D01*
X28078548Y3883677D01*
X28158412Y3921451D01*
X28241595Y3951215D01*
X28327281Y3972677D01*
X28352917Y3976480D01*
X28352917Y3239737D01*
D02*
G37*
%LPC*%
G36*
X29389660Y3239737D02*
X28652917Y3239737D01*
X28652917Y3976480D01*
X28678553Y3972677D01*
X28764239Y3951215D01*
X28847422Y3921451D01*
X28927286Y3883677D01*
X29003071Y3838255D01*
X29074020Y3785636D01*
X29139483Y3726303D01*
X29198816Y3660840D01*
X29251435Y3589891D01*
X29296857Y3514106D01*
X29334631Y3434242D01*
X29364395Y3351059D01*
X29385857Y3265373D01*
X29389660Y3239737D01*
D02*
G37*
%LPC*%
G36*
X38352917Y3239737D02*
X37616174Y3239737D01*
X37619977Y3265373D01*
X37641439Y3351059D01*
X37671203Y3434242D01*
X37708977Y3514106D01*
X37754399Y3589891D01*
X37807018Y3660840D01*
X37866351Y3726303D01*
X37931814Y3785636D01*
X38002763Y3838255D01*
X38078548Y3883677D01*
X38158412Y3921451D01*
X38241595Y3951215D01*
X38327281Y3972677D01*
X38352917Y3976480D01*
X38352917Y3239737D01*
D02*
G37*
%LPC*%
G36*
X39389660Y3239737D02*
X38652917Y3239737D01*
X38652917Y3976480D01*
X38678553Y3972677D01*
X38764239Y3951215D01*
X38847422Y3921451D01*
X38927286Y3883677D01*
X39003071Y3838255D01*
X39074020Y3785636D01*
X39139483Y3726303D01*
X39198816Y3660840D01*
X39251435Y3589891D01*
X39296857Y3514106D01*
X39334631Y3434242D01*
X39364395Y3351059D01*
X39385857Y3265373D01*
X39389660Y3239737D01*
D02*
G37*
%LPC*%
G36*
X38652917Y2202994D02*
X38652917Y2939737D01*
X39389660Y2939737D01*
X39385857Y2914101D01*
X39364395Y2828415D01*
X39334631Y2745232D01*
X39296857Y2665368D01*
X39251435Y2589583D01*
X39198816Y2518634D01*
X39139483Y2453171D01*
X39074020Y2393838D01*
X39003071Y2341219D01*
X38927286Y2295797D01*
X38847422Y2258023D01*
X38764239Y2228259D01*
X38678553Y2206797D01*
X38652917Y2202994D01*
D02*
G37*
%LPC*%
G36*
X38352917Y2202994D02*
X38327281Y2206797D01*
X38241595Y2228259D01*
X38158412Y2258023D01*
X38078548Y2295797D01*
X38002763Y2341219D01*
X37931814Y2393838D01*
X37866351Y2453171D01*
X37807018Y2518634D01*
X37754399Y2589583D01*
X37708977Y2665368D01*
X37671203Y2745232D01*
X37641439Y2828415D01*
X37619977Y2914101D01*
X37616174Y2939737D01*
X38352917Y2939737D01*
X38352917Y2202994D01*
D02*
G37*
%LPC*%
G36*
X28652917Y2202994D02*
X28652917Y2939737D01*
X29389660Y2939737D01*
X29385857Y2914101D01*
X29364395Y2828415D01*
X29334631Y2745232D01*
X29296857Y2665368D01*
X29251435Y2589583D01*
X29198816Y2518634D01*
X29139483Y2453171D01*
X29074020Y2393838D01*
X29003071Y2341219D01*
X28927286Y2295797D01*
X28847422Y2258023D01*
X28764239Y2228259D01*
X28678553Y2206797D01*
X28652917Y2202994D01*
D02*
G37*
%LPC*%
G36*
X28352917Y2202994D02*
X28327281Y2206797D01*
X28241595Y2228259D01*
X28158412Y2258023D01*
X28078548Y2295797D01*
X28002763Y2341219D01*
X27931814Y2393838D01*
X27866351Y2453171D01*
X27807018Y2518634D01*
X27754399Y2589583D01*
X27708977Y2665368D01*
X27671203Y2745232D01*
X27641439Y2828415D01*
X27619977Y2914101D01*
X27616174Y2939737D01*
X28352917Y2939737D01*
X28352917Y2202994D01*
D02*
G37*
%LPC*%
G36*
X24652917Y2202994D02*
X24652917Y2939737D01*
X25389660Y2939737D01*
X25385857Y2914101D01*
X25364395Y2828415D01*
X25334631Y2745232D01*
X25296857Y2665368D01*
X25251435Y2589583D01*
X25198816Y2518634D01*
X25139483Y2453171D01*
X25074020Y2393838D01*
X25003071Y2341219D01*
X24927286Y2295797D01*
X24847422Y2258023D01*
X24764239Y2228259D01*
X24678553Y2206797D01*
X24652917Y2202994D01*
D02*
G37*
%LPC*%
G36*
X24352917Y2202994D02*
X24327281Y2206797D01*
X24241595Y2228259D01*
X24158412Y2258023D01*
X24078548Y2295797D01*
X24002763Y2341219D01*
X23931814Y2393838D01*
X23866351Y2453171D01*
X23807018Y2518634D01*
X23754399Y2589583D01*
X23708977Y2665368D01*
X23671203Y2745232D01*
X23641439Y2828415D01*
X23619977Y2914101D01*
X23616174Y2939737D01*
X24352917Y2939737D01*
X24352917Y2202994D01*
D02*
G37*
%LPD*%
G01*
%LPD*%
D10*
X23024989Y53375011D02*
X16800000Y59600000D01*
D10*
X53500000Y52500000D02*
X48500000Y57500000D01*
D11*
X55000000Y36455000D02*
X53200000Y36455000D01*
D10*
X53850000Y30575000D02*
X53850000Y32505000D01*
D10*
X27180000Y50300000D02*
X27180000Y55330000D01*
D10*
X50071501Y26480001D02*
X52236500Y28645000D01*
D10*
X41720000Y46380000D02*
X33800002Y46380000D01*
D10*
X27130000Y50250000D02*
X27180000Y50300000D01*
D12*
X16550000Y48380000D02*
X18980000Y48380000D01*
D10*
X12770000Y46180000D02*
X15600000Y46180000D01*
D12*
X47120000Y36485000D02*
X49020000Y36485000D01*
D10*
X7060000Y47780000D02*
X8950000Y47780000D01*
D10*
X53500000Y52500000D02*
X53500000Y47900000D01*
D10*
X23024989Y49315011D02*
X23024989Y53375011D01*
D10*
X18980000Y51380000D02*
X13660000Y56700000D01*
D12*
X25240000Y45789996D02*
X25240000Y48350000D01*
D10*
X48500000Y57500000D02*
X48500000Y62500000D01*
D10*
X5180000Y46180000D02*
X7060000Y46180000D01*
D10*
X2250000Y23342654D02*
X22502917Y3089737D01*
D10*
X8950000Y46180000D02*
X10880000Y46180000D01*
D10*
X53850000Y34555000D02*
X53850000Y32505000D01*
D10*
X48474999Y30575000D02*
X47870000Y31179999D01*
D10*
X48420000Y52500000D02*
X48420000Y47100000D01*
D10*
X27180000Y55330000D02*
X28620000Y55330000D01*
D10*
X10880000Y46180000D02*
X12770000Y46180000D01*
D10*
X2250000Y43250000D02*
X2250000Y23342654D01*
D10*
X12200000Y52800000D02*
X14650000Y50350000D01*
D10*
X11300000Y52800000D02*
X12200000Y52800000D01*
D10*
X47870000Y26480001D02*
X47870000Y10456820D01*
D10*
X47870000Y10456820D02*
X40502917Y3089737D01*
D10*
X5180000Y46180000D02*
X2250000Y43250000D01*
D10*
X33800002Y46380000D02*
X33209998Y45789996D01*
D10*
X56005000Y41005000D02*
X55319998Y41005000D01*
D10*
X52250000Y30575000D02*
X48474999Y30575000D01*
D10*
X47870000Y26480001D02*
X50071501Y26480001D01*
D10*
X13660000Y56700000D02*
X10300000Y56700000D01*
D10*
X12400000Y59600000D02*
X9500000Y62500000D01*
D10*
X43900000Y44200000D02*
X41720000Y46380000D01*
D10*
X14650000Y50350000D02*
X14650000Y50330000D01*
D10*
X60910000Y55090000D02*
X60910000Y45910000D01*
D10*
X16800000Y59600000D02*
X12400000Y59600000D01*
D10*
X53500000Y62500000D02*
X60910000Y55090000D01*
D10*
X50620000Y34555000D02*
X50620000Y36485000D01*
D10*
X23040000Y49300000D02*
X23024989Y49315011D01*
D10*
X14650000Y48380000D02*
X14650000Y50330000D01*
D10*
X10300000Y56700000D02*
X4500000Y62500000D01*
D10*
X60910000Y45910000D02*
X56005000Y41005000D01*
D12*
X18980000Y46380000D02*
X18980000Y48380000D01*
D12*
X25240000Y45789996D02*
X28510000Y45789996D01*
D10*
X50620000Y34555000D02*
X52550000Y34555000D01*
D10*
X49800000Y44200000D02*
X43900000Y44200000D01*
D10*
X58580000Y52500000D02*
X58580000Y47100000D01*
D10*
X25240000Y50250000D02*
X27130000Y50250000D01*
D10*
X50620000Y41005000D02*
X50620000Y36485000D01*
D10*
X53500000Y47900000D02*
X49800000Y44200000D01*
D10*
X14500000Y62500000D02*
X20400000Y62500000D01*
G75*
D13*
X8950000Y46180000D03*
D14*
X8950000Y47780000D03*
D15*
X54477083Y6541263D03*
D15*
X52477083Y6541263D03*
D16*
X36055000Y31405000D03*
D17*
X30975000Y37855000D03*
D17*
X33515000Y40395000D03*
D17*
X36055000Y37855000D03*
D18*
X50620000Y36485000D03*
D19*
X49020000Y36485000D03*
D18*
X16250000Y50330000D03*
D19*
X14650000Y50330000D03*
D20*
X53500000Y52500000D03*
D20*
X48420000Y52500000D03*
D20*
X58580000Y52500000D03*
D16*
X26940000Y31405000D03*
D14*
X10880000Y47780000D03*
D13*
X10880000Y46180000D03*
D21*
X50620000Y41005000D03*
D22*
X55319998Y41005000D03*
D23*
X18980000Y51380000D03*
D24*
X18980000Y48380000D03*
D17*
X21860000Y37855000D03*
D17*
X24400000Y40395000D03*
D17*
X26940000Y37855000D03*
D25*
X24502917Y3089737D03*
D25*
X38502917Y3089737D03*
D25*
X30502917Y3089737D03*
D25*
X28502917Y3089737D03*
D25*
X22502917Y3089737D03*
D25*
X36502917Y3089737D03*
D25*
X26502917Y3089737D03*
D25*
X32502917Y3089737D03*
D25*
X34502917Y3089737D03*
D25*
X40502917Y3089737D03*
D26*
X14650000Y48380000D03*
D27*
X15600000Y46180000D03*
D26*
X16550000Y48380000D03*
D14*
X5180000Y47780000D03*
D13*
X5180000Y46180000D03*
D21*
X28510000Y45789996D03*
D22*
X33209998Y45789996D03*
D19*
X49020000Y34555000D03*
D18*
X50620000Y34555000D03*
D28*
X4500000Y62500000D03*
D28*
X14500000Y62500000D03*
D28*
X9500000Y62500000D03*
D15*
X10477083Y6541263D03*
D15*
X8477083Y6541263D03*
D18*
X22000000Y62500000D03*
D19*
X20400000Y62500000D03*
D19*
X52250000Y30575000D03*
D18*
X53850000Y30575000D03*
D19*
X52250000Y32505000D03*
D18*
X53850000Y32505000D03*
D29*
X29000000Y16400000D03*
D30*
X34000000Y16400000D03*
D29*
X6300000Y52800000D03*
D30*
X11300000Y52800000D03*
D13*
X7060000Y46180000D03*
D14*
X7060000Y47780000D03*
D31*
X47870000Y31179999D03*
D32*
X47870000Y26480001D03*
D28*
X48500000Y62500000D03*
D28*
X58500000Y62500000D03*
D28*
X53500000Y62500000D03*
D30*
X33620000Y55330000D03*
D29*
X28620000Y55330000D03*
D18*
X53836500Y28645000D03*
D19*
X52236500Y28645000D03*
D28*
X4500000Y36500000D03*
D28*
X14500000Y36500000D03*
D28*
X9500000Y36500000D03*
D33*
X52550000Y34555000D03*
D33*
X53850000Y34555000D03*
D34*
X53200000Y36455000D03*
D35*
X32000000Y10800000D03*
D36*
X29000000Y10800000D03*
D18*
X28730000Y50250000D03*
D19*
X27130000Y50250000D03*
D18*
X50020000Y47100000D03*
D19*
X48420000Y47100000D03*
D19*
X56980000Y47100000D03*
D18*
X58580000Y47100000D03*
D37*
X25240000Y50250000D03*
D38*
X23040000Y49300000D03*
D37*
X25240000Y48350000D03*
D14*
X12770000Y47780000D03*
D13*
X12770000Y46180000D03*
D39*
X46750000Y39000000D03*
D40*
X1000000Y26200000D03*
D40*
X62000000Y64600000D03*
D40*
X54375000Y71000000D03*
D40*
X46750000Y1000000D03*
D39*
X12770000Y49080000D03*
D39*
X39125000Y39000000D03*
D39*
X39125000Y26200000D03*
D39*
X39125000Y13400000D03*
D39*
X36440000Y16400000D03*
D39*
X34000000Y14660000D03*
D39*
X23875000Y13400000D03*
D39*
X16250000Y19800000D03*
D40*
X1000000Y51800000D03*
D40*
X1000000Y32600000D03*
D39*
X8625000Y64600000D03*
D39*
X47720000Y34555000D03*
D40*
X62000000Y13400000D03*
D39*
X31500000Y58200000D03*
D39*
X8625000Y32600000D03*
D39*
X8625000Y39000000D03*
D40*
X46750000Y71000000D03*
D40*
X62000000Y51800000D03*
D39*
X16250000Y58200000D03*
D39*
X54375000Y45400000D03*
D40*
X62000000Y1000000D03*
D40*
X8625000Y71000000D03*
D39*
X16250000Y26200000D03*
D39*
X46750000Y45400000D03*
D39*
X22000000Y61200000D03*
D39*
X39125000Y19800000D03*
D39*
X39125000Y58200000D03*
D39*
X55130000Y28238068D03*
D39*
X39125000Y64600000D03*
D39*
X50020000Y48400000D03*
D40*
X1000000Y19800000D03*
D40*
X62000000Y7000000D03*
D41*
X25240000Y45789996D03*
D40*
X16250000Y1000000D03*
D39*
X36060000Y55330000D03*
D39*
X16250000Y7000000D03*
D40*
X62000000Y32600000D03*
D40*
X31500000Y1000000D03*
D39*
X46750000Y19800000D03*
D39*
X23875000Y32600000D03*
D40*
X62000000Y45400000D03*
D39*
X54375000Y58200000D03*
D40*
X1000000Y71000000D03*
D39*
X46750000Y64600000D03*
D39*
X16250000Y13400000D03*
D39*
X31500000Y64600000D03*
D39*
X46750000Y13400000D03*
D40*
X39125000Y71000000D03*
D41*
X47120000Y36485000D03*
D39*
X24075000Y51800000D03*
D40*
X62000000Y19800000D03*
D40*
X31500000Y71000000D03*
D39*
X34000000Y18140000D03*
D40*
X62000000Y26200000D03*
D39*
X8625000Y13400000D03*
D39*
X39125000Y7000000D03*
D39*
X10880000Y49080000D03*
D40*
X62000000Y39000000D03*
D41*
X55000000Y36455000D03*
D39*
X39125000Y51800000D03*
D39*
X8625000Y19800000D03*
D39*
X28730000Y48950000D03*
D40*
X62000000Y58200000D03*
D40*
X1000000Y1000000D03*
D40*
X8625000Y1000000D03*
D40*
X1000000Y7000000D03*
D40*
X1000000Y45400000D03*
D39*
X54375000Y26200000D03*
D39*
X23875000Y7000000D03*
D40*
X1000000Y58200000D03*
D40*
X23875000Y71000000D03*
D41*
X18980000Y46380000D03*
D39*
X45750000Y26200000D03*
D39*
X31500000Y26200000D03*
D40*
X54375000Y1000000D03*
D40*
X23875000Y1000000D03*
D39*
X5180000Y49080000D03*
D39*
X54375000Y13400000D03*
D39*
X16250000Y64600000D03*
D39*
X23875000Y26200000D03*
D40*
X1000000Y39000000D03*
D39*
X46750000Y58200000D03*
D39*
X31500000Y51800000D03*
D39*
X16250000Y39000000D03*
D40*
X1000000Y13400000D03*
D39*
X16250000Y32600000D03*
D39*
X46450000Y51800000D03*
D40*
X16250000Y71000000D03*
D39*
X54375000Y64600000D03*
D39*
X8625000Y26200000D03*
D41*
X29000000Y19100000D03*
D39*
X23875000Y64600000D03*
D39*
X45750000Y32600000D03*
D39*
X6300000Y54440000D03*
D39*
X23875000Y19800000D03*
D40*
X39125000Y1000000D03*
D39*
X56980000Y48400000D03*
D39*
X39125000Y32600000D03*
D39*
X16250000Y51630000D03*
D40*
X62000000Y71000000D03*
D39*
X39125000Y45400000D03*
D39*
X23875000Y58200000D03*
D39*
X54375000Y19800000D03*
D39*
X50950000Y32505000D03*
D40*
X1000000Y64600000D03*
M02*
