%FSLAX46Y46*%
%MOMM*%
%ADD11C,0.050000*%
%ADD10C,0.150000*%
G01*
%LPD*%
G01*
%LPD*%
D10*
X54571428Y58348808D02*
X54952380Y59348808D01*
D10*
X54571428Y58348808D02*
X54190476Y59348808D01*
D10*
X53809524Y59301192D02*
X53714284Y59348808D01*
D10*
X53904760Y59205952D02*
X53809524Y59301192D01*
D10*
X53952380Y59110716D02*
X53904760Y59205952D01*
D10*
X54000000Y58967856D02*
X53952380Y59110716D01*
D10*
X54000000Y58729760D02*
X54000000Y58967856D01*
D10*
X53952380Y58586904D02*
X54000000Y58729760D01*
D10*
X53904760Y58491668D02*
X53952380Y58586904D01*
D10*
X53809524Y58396428D02*
X53904760Y58491668D01*
D10*
X53714284Y58348808D02*
X53809524Y58396428D01*
D10*
X53523808Y58348808D02*
X53714284Y58348808D01*
D10*
X53428572Y58396428D02*
X53523808Y58348808D01*
D10*
X53333332Y58491668D02*
X53428572Y58396428D01*
D10*
X53285716Y58586904D02*
X53333332Y58491668D01*
D10*
X53238096Y58729760D02*
X53285716Y58586904D01*
D10*
X53238096Y58967856D02*
X53238096Y58729760D01*
D10*
X53285716Y59110716D02*
X53238096Y58967856D01*
D10*
X53333332Y59205952D02*
X53285716Y59110716D01*
D10*
X53428572Y59301192D02*
X53333332Y59205952D01*
D10*
X53523808Y59348808D02*
X53428572Y59301192D01*
D10*
X53714284Y59348808D02*
X53523808Y59348808D01*
D10*
X52904760Y58348808D02*
X52904760Y59348808D01*
D10*
X52333332Y58348808D02*
X52904760Y58348808D01*
D10*
X10285714Y33301190D02*
X10190476Y33205952D01*
D10*
X10428571Y33348810D02*
X10285714Y33301190D01*
D10*
X10619048Y33348810D02*
X10428571Y33348810D01*
D10*
X10761905Y33301190D02*
X10619048Y33348810D01*
D10*
X10857143Y33205952D02*
X10761905Y33301190D01*
D10*
X10857143Y33110714D02*
X10857143Y33205952D01*
D10*
X10809524Y33015476D02*
X10857143Y33110714D01*
D10*
X10761905Y32967858D02*
X10809524Y33015476D01*
D10*
X10666667Y32920238D02*
X10761905Y32967858D01*
D10*
X10380952Y32825000D02*
X10666667Y32920238D01*
D10*
X10285714Y32777380D02*
X10380952Y32825000D01*
D10*
X10238095Y32729762D02*
X10285714Y32777380D01*
D10*
X10190476Y32634524D02*
X10238095Y32729762D01*
D10*
X10190476Y32491666D02*
X10190476Y32634524D01*
D10*
X10285714Y32396428D02*
X10190476Y32491666D01*
D10*
X10428571Y32348810D02*
X10285714Y32396428D01*
D10*
X10619048Y32348810D02*
X10428571Y32348810D01*
D10*
X10761905Y32396428D02*
X10619048Y32348810D01*
D10*
X10857143Y32491666D02*
X10761905Y32396428D01*
D10*
X10000000Y32348810D02*
X9619048Y33348810D01*
D10*
X9238095Y32348810D02*
X9619048Y33348810D01*
D10*
X9380952Y32682142D02*
X9857143Y32682142D01*
D10*
X8380952Y33205952D02*
X8333333Y33110714D01*
D10*
X8476190Y33301190D02*
X8380952Y33205952D01*
D10*
X8571428Y33348810D02*
X8476190Y33301190D01*
D10*
X8761905Y33348810D02*
X8571428Y33348810D01*
D10*
X8857143Y33301190D02*
X8761905Y33348810D01*
D10*
X8952381Y33205952D02*
X8857143Y33301190D01*
D10*
X9000000Y33110714D02*
X8952381Y33205952D01*
D10*
X9047619Y32967858D02*
X9000000Y33110714D01*
D10*
X9047619Y32729762D02*
X9047619Y32967858D01*
D10*
X9000000Y32586904D02*
X9047619Y32729762D01*
D10*
X8952381Y32491666D02*
X9000000Y32586904D01*
D10*
X8857143Y32396428D02*
X8952381Y32491666D01*
D10*
X8761905Y32348810D02*
X8857143Y32396428D01*
D10*
X8571428Y32348810D02*
X8761905Y32348810D01*
D10*
X8476190Y32396428D02*
X8571428Y32348810D01*
D10*
X8380952Y32491666D02*
X8476190Y32396428D01*
D10*
X8333333Y32586904D02*
X8380952Y32491666D01*
D10*
X8333333Y32729762D02*
X8333333Y32586904D01*
D10*
X8333333Y32729762D02*
X8571428Y32729762D01*
D10*
X44993808Y51106952D02*
X45993808Y51106952D01*
D10*
X45993808Y51440284D02*
X45993808Y50773620D01*
D10*
X45946192Y51821240D02*
X45993808Y51916476D01*
D10*
X45850952Y51726000D02*
X45946192Y51821240D01*
D10*
X45755716Y51678380D02*
X45850952Y51726000D01*
D10*
X45612856Y51630760D02*
X45755716Y51678380D01*
D10*
X45374760Y51630760D02*
X45612856Y51630760D01*
D10*
X45231904Y51678380D02*
X45374760Y51630760D01*
D10*
X45136668Y51726000D02*
X45231904Y51678380D01*
D10*
X45041428Y51821240D02*
X45136668Y51726000D01*
D10*
X44993808Y51916476D02*
X45041428Y51821240D01*
D10*
X44993808Y52106952D02*
X44993808Y51916476D01*
D10*
X45041428Y52202192D02*
X44993808Y52106952D01*
D10*
X45136668Y52297428D02*
X45041428Y52202192D01*
D10*
X45231904Y52345048D02*
X45136668Y52297428D01*
D10*
X45374760Y52392668D02*
X45231904Y52345048D01*
D10*
X45612856Y52392668D02*
X45374760Y52392668D01*
D10*
X45755716Y52345048D02*
X45612856Y52392668D01*
D10*
X45850952Y52297428D02*
X45755716Y52345048D01*
D10*
X45946192Y52202192D02*
X45850952Y52297428D01*
D10*
X45993808Y52106952D02*
X45946192Y52202192D01*
D10*
X45993808Y51916476D02*
X45993808Y52106952D01*
D10*
X44993808Y52726000D02*
X45993808Y52726000D01*
D10*
X44993808Y53392668D02*
X45993808Y52726000D01*
D10*
X44993808Y53392668D02*
X45993808Y53392668D01*
D10*
X44993808Y53773620D02*
X45993808Y53773620D01*
D10*
X45993808Y54392668D02*
X45993808Y53773620D01*
D10*
X45517620Y54154572D02*
X45517620Y53773620D01*
D10*
X44993808Y54392668D02*
X44993808Y53773620D01*
D10*
X10809524Y58348808D02*
X10809524Y59348808D01*
D10*
X10476190Y59348808D02*
X10809524Y59348808D01*
D10*
X10333333Y59301192D02*
X10476190Y59348808D01*
D10*
X10238095Y59205952D02*
X10333333Y59301192D01*
D10*
X10190476Y59110716D02*
X10238095Y59205952D01*
D10*
X10142857Y58967856D02*
X10190476Y59110716D01*
D10*
X10142857Y58729760D02*
X10142857Y58967856D01*
D10*
X10190476Y58586904D02*
X10142857Y58729760D01*
D10*
X10238095Y58491668D02*
X10190476Y58586904D01*
D10*
X10333333Y58396428D02*
X10238095Y58491668D01*
D10*
X10476190Y58348808D02*
X10333333Y58396428D01*
D10*
X10809524Y58348808D02*
X10476190Y58348808D01*
D10*
X9809524Y58348808D02*
X9809524Y59348808D01*
D10*
X9380952Y59348808D02*
X9809524Y59348808D01*
D10*
X9238095Y59301192D02*
X9380952Y59348808D01*
D10*
X9190476Y59253572D02*
X9238095Y59301192D01*
D10*
X9142857Y59158332D02*
X9190476Y59253572D01*
D10*
X9142857Y59063096D02*
X9142857Y59158332D01*
D10*
X9190476Y58967856D02*
X9142857Y59063096D01*
D10*
X9238095Y58920240D02*
X9190476Y58967856D01*
D10*
X9380952Y58872620D02*
X9238095Y58920240D01*
D10*
X9809524Y58872620D02*
X9380952Y58872620D01*
D10*
X9142857Y58348808D02*
X9476190Y58872620D01*
D10*
X8809524Y58348808D02*
X8809524Y59348808D01*
D10*
X8190476Y58348808D02*
X8571428Y59348808D01*
D10*
X8190476Y58348808D02*
X7809524Y59348808D01*
D10*
X7571428Y58348808D02*
X7571428Y59348808D01*
D10*
X6952381Y59348808D02*
X7571428Y59348808D01*
D10*
X7190476Y58872620D02*
X7571428Y58872620D01*
D10*
X6952381Y58348808D02*
X7571428Y58348808D01*
D11*
X59875000Y55925000D02*
X47125000Y55925000D01*
D11*
X59875000Y49075000D02*
X59875000Y55925000D01*
D11*
X47125000Y55925000D02*
X47125000Y49075000D01*
D11*
X47125000Y49075000D02*
X59875000Y49075000D01*
D11*
X16025000Y66475000D02*
X2975000Y66475000D01*
D11*
X16025000Y73000000D02*
X16025000Y66475000D01*
D11*
X-3500000Y69500000D02*
X-3500000Y69500000D01*
D11*
X2975000Y66475000D02*
X2975000Y73000000D01*
D11*
X60025000Y66475000D02*
X46975000Y66475000D01*
D11*
X60025000Y73000000D02*
X60025000Y66475000D01*
D11*
X40500000Y69500000D02*
X40500000Y69500000D01*
D11*
X46975000Y66475000D02*
X46975000Y73000000D01*
D11*
X16025000Y40475000D02*
X2975000Y40475000D01*
D11*
X16025000Y47000000D02*
X16025000Y40475000D01*
D11*
X-3500000Y43500000D02*
X-3500000Y43500000D01*
D11*
X2975000Y40475000D02*
X2975000Y47000000D01*
G75*
D11*
G02*
X975000Y78500000D02*
X18025000Y78500000I8525000J0D01*
D11*
G02*
X18025000Y78500000D02*
X16018276Y73005668I-8525000J1D01*
D11*
G02*
X3000000Y73000000D02*
X985307Y78500000I6500000J5499999D01*
D11*
G02*
X44975000Y78500000D02*
X62025000Y78500000I8525000J0D01*
D11*
G02*
X62025000Y78500000D02*
X60018276Y73005668I-8525000J1D01*
D11*
G02*
X47000000Y73000000D02*
X44985307Y78500000I6500000J5499999D01*
D11*
G02*
X975000Y52500000D02*
X18025000Y52500000I8525000J0D01*
D11*
G02*
X18025000Y52500000D02*
X16018276Y47005668I-8525000J1D01*
D11*
G02*
X3000000Y47000000D02*
X985307Y52500000I6500000J5499999D01*
M02*
