%FSLAX46Y46*%
%MOMM*%
%AMPS15*
1,1,2.100000,0.000000,0.000000*
%
%ADD15PS15*%
%AMPS12*
1,1,1.300000,0.000000,0.000000*
%
%ADD12PS12*%
%AMPS13*
1,1,2.200000,0.000000,0.000000*
%
%ADD13PS13*%
%AMPS10*
1,1,1.400000,0.000000,0.000000*
%
%ADD10PS10*%
%AMPS14*
1,1,1.400000,0.000000,0.000000*
%
%ADD14PS14*%
%AMPS17*
1,1,0.700000,0.000000,0.000000*
%
%ADD17PS17*%
%AMPS18*
1,1,1.000000,0.000000,0.000000*
%
%ADD18PS18*%
%AMPS16*
1,1,0.700000,0.000000,0.000000*
%
%ADD16PS16*%
%AMPS11*
21,1,2.000000,2.000000,0.000000,0.000000,0.000000*
%
%ADD11PS11*%
G01*
%LPD*%
G36*
X62640000Y360000D02*
X62640000Y71640000D01*
X360000Y71640000D01*
X360000Y360000D01*
X62640000Y360000D01*
D02*
G37*
%LPC*%
G36*
X4500000Y61254764D02*
X4377953Y61260762D01*
X4257065Y61278693D01*
X4138526Y61308385D01*
X4023471Y61349552D01*
X3913002Y61401800D01*
X3808185Y61464625D01*
X3710033Y61537421D01*
X3619486Y61619486D01*
X3537421Y61710033D01*
X3464625Y61808185D01*
X3401800Y61913002D01*
X3349552Y62023471D01*
X3308385Y62138526D01*
X3278693Y62257065D01*
X3260762Y62377953D01*
X3254764Y62500000D01*
X3260762Y62622047D01*
X3278693Y62742935D01*
X3308385Y62861474D01*
X3349552Y62976529D01*
X3401800Y63086998D01*
X3464625Y63191815D01*
X3537421Y63289967D01*
X3619486Y63380514D01*
X3710033Y63462579D01*
X3808185Y63535375D01*
X3913002Y63598200D01*
X4023471Y63650448D01*
X4138526Y63691615D01*
X4257065Y63721307D01*
X4377953Y63739238D01*
X4500000Y63745236D01*
X4622047Y63739238D01*
X4742935Y63721307D01*
X4861474Y63691615D01*
X4976529Y63650448D01*
X5086998Y63598200D01*
X5191815Y63535375D01*
X5289967Y63462579D01*
X5380514Y63380514D01*
X5462579Y63289967D01*
X5535375Y63191815D01*
X5598200Y63086998D01*
X5650448Y62976529D01*
X5691615Y62861474D01*
X5721307Y62742935D01*
X5739238Y62622047D01*
X5745236Y62500000D01*
X5739238Y62377953D01*
X5721307Y62257065D01*
X5691615Y62138526D01*
X5650448Y62023471D01*
X5598200Y61913002D01*
X5535375Y61808185D01*
X5462579Y61710033D01*
X5380514Y61619486D01*
X5289967Y61537421D01*
X5191815Y61464625D01*
X5086998Y61401800D01*
X4976529Y61349552D01*
X4861474Y61308385D01*
X4742935Y61278693D01*
X4622047Y61260762D01*
X4500000Y61254764D01*
D02*
G37*
%LPC*%
G36*
X9500000Y61254764D02*
X9377953Y61260762D01*
X9257065Y61278693D01*
X9138526Y61308385D01*
X9023471Y61349552D01*
X8913002Y61401800D01*
X8808185Y61464625D01*
X8710033Y61537421D01*
X8619486Y61619486D01*
X8537421Y61710033D01*
X8464625Y61808185D01*
X8401800Y61913002D01*
X8349552Y62023471D01*
X8308385Y62138526D01*
X8278693Y62257065D01*
X8260762Y62377953D01*
X8254764Y62500000D01*
X8260762Y62622047D01*
X8278693Y62742935D01*
X8308385Y62861474D01*
X8349552Y62976529D01*
X8401800Y63086998D01*
X8464625Y63191815D01*
X8537421Y63289967D01*
X8619486Y63380514D01*
X8710033Y63462579D01*
X8808185Y63535375D01*
X8913002Y63598200D01*
X9023471Y63650448D01*
X9138526Y63691615D01*
X9257065Y63721307D01*
X9377953Y63739238D01*
X9500000Y63745236D01*
X9622047Y63739238D01*
X9742935Y63721307D01*
X9861474Y63691615D01*
X9976529Y63650448D01*
X10086998Y63598200D01*
X10191815Y63535375D01*
X10289967Y63462579D01*
X10380514Y63380514D01*
X10462579Y63289967D01*
X10535375Y63191815D01*
X10598200Y63086998D01*
X10650448Y62976529D01*
X10691615Y62861474D01*
X10721307Y62742935D01*
X10739238Y62622047D01*
X10745236Y62500000D01*
X10739238Y62377953D01*
X10721307Y62257065D01*
X10691615Y62138526D01*
X10650448Y62023471D01*
X10598200Y61913002D01*
X10535375Y61808185D01*
X10462579Y61710033D01*
X10380514Y61619486D01*
X10289967Y61537421D01*
X10191815Y61464625D01*
X10086998Y61401800D01*
X9976529Y61349552D01*
X9861474Y61308385D01*
X9742935Y61278693D01*
X9622047Y61260762D01*
X9500000Y61254764D01*
D02*
G37*
%LPC*%
G36*
X14500000Y61254764D02*
X14377953Y61260762D01*
X14257065Y61278693D01*
X14138526Y61308385D01*
X14023471Y61349552D01*
X13913002Y61401800D01*
X13808185Y61464625D01*
X13710033Y61537421D01*
X13619486Y61619486D01*
X13537421Y61710033D01*
X13464625Y61808185D01*
X13401800Y61913002D01*
X13349552Y62023471D01*
X13308385Y62138526D01*
X13278693Y62257065D01*
X13260762Y62377953D01*
X13254764Y62500000D01*
X13260762Y62622047D01*
X13278693Y62742935D01*
X13308385Y62861474D01*
X13349552Y62976529D01*
X13401800Y63086998D01*
X13464625Y63191815D01*
X13537421Y63289967D01*
X13619486Y63380514D01*
X13710033Y63462579D01*
X13808185Y63535375D01*
X13913002Y63598200D01*
X14023471Y63650448D01*
X14138526Y63691615D01*
X14257065Y63721307D01*
X14377953Y63739238D01*
X14500000Y63745236D01*
X14622047Y63739238D01*
X14742935Y63721307D01*
X14861474Y63691615D01*
X14976529Y63650448D01*
X15086998Y63598200D01*
X15191815Y63535375D01*
X15289967Y63462579D01*
X15380514Y63380514D01*
X15462579Y63289967D01*
X15535375Y63191815D01*
X15598200Y63086998D01*
X15650448Y62976529D01*
X15691615Y62861474D01*
X15721307Y62742935D01*
X15739238Y62622047D01*
X15745236Y62500000D01*
X15739238Y62377953D01*
X15721307Y62257065D01*
X15691615Y62138526D01*
X15650448Y62023471D01*
X15598200Y61913002D01*
X15535375Y61808185D01*
X15462579Y61710033D01*
X15380514Y61619486D01*
X15289967Y61537421D01*
X15191815Y61464625D01*
X15086998Y61401800D01*
X14976529Y61349552D01*
X14861474Y61308385D01*
X14742935Y61278693D01*
X14622047Y61260762D01*
X14500000Y61254764D01*
D02*
G37*
%LPC*%
G36*
X48500000Y61254764D02*
X48377953Y61260762D01*
X48257065Y61278693D01*
X48138526Y61308385D01*
X48023471Y61349552D01*
X47913002Y61401800D01*
X47808185Y61464625D01*
X47710033Y61537421D01*
X47619486Y61619486D01*
X47537421Y61710033D01*
X47464625Y61808185D01*
X47401800Y61913002D01*
X47349552Y62023471D01*
X47308385Y62138526D01*
X47278693Y62257065D01*
X47260762Y62377953D01*
X47254764Y62500000D01*
X47260762Y62622047D01*
X47278693Y62742935D01*
X47308385Y62861474D01*
X47349552Y62976529D01*
X47401800Y63086998D01*
X47464625Y63191815D01*
X47537421Y63289967D01*
X47619486Y63380514D01*
X47710033Y63462579D01*
X47808185Y63535375D01*
X47913002Y63598200D01*
X48023471Y63650448D01*
X48138526Y63691615D01*
X48257065Y63721307D01*
X48377953Y63739238D01*
X48500000Y63745236D01*
X48622047Y63739238D01*
X48742935Y63721307D01*
X48861474Y63691615D01*
X48976529Y63650448D01*
X49086998Y63598200D01*
X49191815Y63535375D01*
X49289967Y63462579D01*
X49380514Y63380514D01*
X49462579Y63289967D01*
X49535375Y63191815D01*
X49598200Y63086998D01*
X49650448Y62976529D01*
X49691615Y62861474D01*
X49721307Y62742935D01*
X49739238Y62622047D01*
X49745236Y62500000D01*
X49739238Y62377953D01*
X49721307Y62257065D01*
X49691615Y62138526D01*
X49650448Y62023471D01*
X49598200Y61913002D01*
X49535375Y61808185D01*
X49462579Y61710033D01*
X49380514Y61619486D01*
X49289967Y61537421D01*
X49191815Y61464625D01*
X49086998Y61401800D01*
X48976529Y61349552D01*
X48861474Y61308385D01*
X48742935Y61278693D01*
X48622047Y61260762D01*
X48500000Y61254764D01*
D02*
G37*
%LPC*%
G36*
X53500000Y61254764D02*
X53377953Y61260762D01*
X53257065Y61278693D01*
X53138526Y61308385D01*
X53023471Y61349552D01*
X52913002Y61401800D01*
X52808185Y61464625D01*
X52710033Y61537421D01*
X52619486Y61619486D01*
X52537421Y61710033D01*
X52464625Y61808185D01*
X52401800Y61913002D01*
X52349552Y62023471D01*
X52308385Y62138526D01*
X52278693Y62257065D01*
X52260762Y62377953D01*
X52254764Y62500000D01*
X52260762Y62622047D01*
X52278693Y62742935D01*
X52308385Y62861474D01*
X52349552Y62976529D01*
X52401800Y63086998D01*
X52464625Y63191815D01*
X52537421Y63289967D01*
X52619486Y63380514D01*
X52710033Y63462579D01*
X52808185Y63535375D01*
X52913002Y63598200D01*
X53023471Y63650448D01*
X53138526Y63691615D01*
X53257065Y63721307D01*
X53377953Y63739238D01*
X53500000Y63745236D01*
X53622047Y63739238D01*
X53742935Y63721307D01*
X53861474Y63691615D01*
X53976529Y63650448D01*
X54086998Y63598200D01*
X54191815Y63535375D01*
X54289967Y63462579D01*
X54380514Y63380514D01*
X54462579Y63289967D01*
X54535375Y63191815D01*
X54598200Y63086998D01*
X54650448Y62976529D01*
X54691615Y62861474D01*
X54721307Y62742935D01*
X54739238Y62622047D01*
X54745236Y62500000D01*
X54739238Y62377953D01*
X54721307Y62257065D01*
X54691615Y62138526D01*
X54650448Y62023471D01*
X54598200Y61913002D01*
X54535375Y61808185D01*
X54462579Y61710033D01*
X54380514Y61619486D01*
X54289967Y61537421D01*
X54191815Y61464625D01*
X54086998Y61401800D01*
X53976529Y61349552D01*
X53861474Y61308385D01*
X53742935Y61278693D01*
X53622047Y61260762D01*
X53500000Y61254764D01*
D02*
G37*
%LPC*%
G36*
X48420000Y51204765D02*
X48293044Y51211003D01*
X48167308Y51229654D01*
X48044011Y51260538D01*
X47924337Y51303358D01*
X47809436Y51357702D01*
X47700404Y51423054D01*
X47598310Y51498772D01*
X47504131Y51584131D01*
X47418772Y51678310D01*
X47343054Y51780404D01*
X47277702Y51889436D01*
X47223358Y52004337D01*
X47180538Y52124011D01*
X47149654Y52247308D01*
X47131003Y52373044D01*
X47124765Y52500000D01*
X47131003Y52626956D01*
X47149654Y52752692D01*
X47180538Y52875989D01*
X47223358Y52995663D01*
X47277702Y53110564D01*
X47343054Y53219596D01*
X47418772Y53321690D01*
X47504131Y53415869D01*
X47598310Y53501228D01*
X47700404Y53576946D01*
X47809436Y53642298D01*
X47924337Y53696642D01*
X48044011Y53739462D01*
X48167308Y53770346D01*
X48293044Y53788997D01*
X48420000Y53795235D01*
X48546956Y53788997D01*
X48672692Y53770346D01*
X48795989Y53739462D01*
X48915663Y53696642D01*
X49030564Y53642298D01*
X49139596Y53576946D01*
X49241690Y53501228D01*
X49335869Y53415869D01*
X49421228Y53321690D01*
X49496946Y53219596D01*
X49562298Y53110564D01*
X49616642Y52995663D01*
X49659462Y52875989D01*
X49690346Y52752692D01*
X49708997Y52626956D01*
X49715235Y52500000D01*
X49708997Y52373044D01*
X49690346Y52247308D01*
X49659462Y52124011D01*
X49616642Y52004337D01*
X49562298Y51889436D01*
X49496946Y51780404D01*
X49421228Y51678310D01*
X49335869Y51584131D01*
X49241690Y51498772D01*
X49139596Y51423054D01*
X49030564Y51357702D01*
X48915663Y51303358D01*
X48795989Y51260538D01*
X48672692Y51229654D01*
X48546956Y51211003D01*
X48420000Y51204765D01*
D02*
G37*
%LPC*%
G36*
X53500000Y51204765D02*
X53373044Y51211003D01*
X53247308Y51229654D01*
X53124011Y51260538D01*
X53004337Y51303358D01*
X52889436Y51357702D01*
X52780404Y51423054D01*
X52678310Y51498772D01*
X52584131Y51584131D01*
X52498772Y51678310D01*
X52423054Y51780404D01*
X52357702Y51889436D01*
X52303358Y52004337D01*
X52260538Y52124011D01*
X52229654Y52247308D01*
X52211003Y52373044D01*
X52204765Y52500000D01*
X52211003Y52626956D01*
X52229654Y52752692D01*
X52260538Y52875989D01*
X52303358Y52995663D01*
X52357702Y53110564D01*
X52423054Y53219596D01*
X52498772Y53321690D01*
X52584131Y53415869D01*
X52678310Y53501228D01*
X52780404Y53576946D01*
X52889436Y53642298D01*
X53004337Y53696642D01*
X53124011Y53739462D01*
X53247308Y53770346D01*
X53373044Y53788997D01*
X53500000Y53795235D01*
X53626956Y53788997D01*
X53752692Y53770346D01*
X53875989Y53739462D01*
X53995663Y53696642D01*
X54110564Y53642298D01*
X54219596Y53576946D01*
X54321690Y53501228D01*
X54415869Y53415869D01*
X54501228Y53321690D01*
X54576946Y53219596D01*
X54642298Y53110564D01*
X54696642Y52995663D01*
X54739462Y52875989D01*
X54770346Y52752692D01*
X54788997Y52626956D01*
X54795235Y52500000D01*
X54788997Y52373044D01*
X54770346Y52247308D01*
X54739462Y52124011D01*
X54696642Y52004337D01*
X54642298Y51889436D01*
X54576946Y51780404D01*
X54501228Y51678310D01*
X54415869Y51584131D01*
X54321690Y51498772D01*
X54219596Y51423054D01*
X54110564Y51357702D01*
X53995663Y51303358D01*
X53875989Y51260538D01*
X53752692Y51229654D01*
X53626956Y51211003D01*
X53500000Y51204765D01*
D02*
G37*
%LPC*%
G36*
X58580000Y51204765D02*
X58453044Y51211003D01*
X58327308Y51229654D01*
X58204011Y51260538D01*
X58084337Y51303358D01*
X57969436Y51357702D01*
X57860404Y51423054D01*
X57758310Y51498772D01*
X57664131Y51584131D01*
X57578772Y51678310D01*
X57503054Y51780404D01*
X57437702Y51889436D01*
X57383358Y52004337D01*
X57340538Y52124011D01*
X57309654Y52247308D01*
X57291003Y52373044D01*
X57284765Y52500000D01*
X57291003Y52626956D01*
X57309654Y52752692D01*
X57340538Y52875989D01*
X57383358Y52995663D01*
X57437702Y53110564D01*
X57503054Y53219596D01*
X57578772Y53321690D01*
X57664131Y53415869D01*
X57758310Y53501228D01*
X57860404Y53576946D01*
X57969436Y53642298D01*
X58084337Y53696642D01*
X58204011Y53739462D01*
X58327308Y53770346D01*
X58453044Y53788997D01*
X58580000Y53795235D01*
X58706956Y53788997D01*
X58832692Y53770346D01*
X58955989Y53739462D01*
X59075663Y53696642D01*
X59190564Y53642298D01*
X59299596Y53576946D01*
X59401690Y53501228D01*
X59495869Y53415869D01*
X59581228Y53321690D01*
X59656946Y53219596D01*
X59722298Y53110564D01*
X59776642Y52995663D01*
X59819462Y52875989D01*
X59850346Y52752692D01*
X59868997Y52626956D01*
X59875235Y52500000D01*
X59868997Y52373044D01*
X59850346Y52247308D01*
X59819462Y52124011D01*
X59776642Y52004337D01*
X59722298Y51889436D01*
X59656946Y51780404D01*
X59581228Y51678310D01*
X59495869Y51584131D01*
X59401690Y51498772D01*
X59299596Y51423054D01*
X59190564Y51357702D01*
X59075663Y51303358D01*
X58955989Y51260538D01*
X58832692Y51229654D01*
X58706956Y51211003D01*
X58580000Y51204765D01*
D02*
G37*
%LPC*%
G36*
X18980000Y45674752D02*
X18910883Y45678148D01*
X18842405Y45688307D01*
X18775284Y45705118D01*
X18710114Y45728438D01*
X18647551Y45758027D01*
X18588179Y45793614D01*
X18532599Y45834834D01*
X18481315Y45881315D01*
X18434834Y45932599D01*
X18393614Y45988179D01*
X18358027Y46047551D01*
X18328438Y46110114D01*
X18305118Y46175284D01*
X18288307Y46242405D01*
X18278148Y46310883D01*
X18274752Y46380000D01*
X18278148Y46449117D01*
X18288307Y46517595D01*
X18305118Y46584716D01*
X18328438Y46649886D01*
X18358027Y46712449D01*
X18393614Y46771821D01*
X18434834Y46827401D01*
X18481315Y46878685D01*
X18532599Y46925166D01*
X18588179Y46966386D01*
X18647551Y47001973D01*
X18710114Y47031562D01*
X18775284Y47054882D01*
X18842405Y47071693D01*
X18910883Y47081852D01*
X18980000Y47085248D01*
X19049117Y47081852D01*
X19117595Y47071693D01*
X19184716Y47054882D01*
X19249886Y47031562D01*
X19312449Y47001973D01*
X19371821Y46966386D01*
X19427401Y46925166D01*
X19478685Y46878685D01*
X19525166Y46827401D01*
X19566386Y46771821D01*
X19601973Y46712449D01*
X19631562Y46649886D01*
X19654882Y46584716D01*
X19671693Y46517595D01*
X19681852Y46449117D01*
X19685248Y46380000D01*
X19681852Y46310883D01*
X19671693Y46242405D01*
X19654882Y46175284D01*
X19631562Y46110114D01*
X19601973Y46047551D01*
X19566386Y45988179D01*
X19525166Y45932599D01*
X19478685Y45881315D01*
X19427401Y45834834D01*
X19371821Y45793614D01*
X19312449Y45758027D01*
X19249886Y45728438D01*
X19184716Y45705118D01*
X19117595Y45688307D01*
X19049117Y45678148D01*
X18980000Y45674752D01*
D02*
G37*
%LPC*%
G36*
X25240000Y45084748D02*
X25170883Y45088144D01*
X25102405Y45098303D01*
X25035284Y45115114D01*
X24970114Y45138434D01*
X24907551Y45168023D01*
X24848179Y45203610D01*
X24792599Y45244830D01*
X24741315Y45291311D01*
X24694834Y45342595D01*
X24653614Y45398175D01*
X24618027Y45457547D01*
X24588438Y45520110D01*
X24565118Y45585280D01*
X24548307Y45652401D01*
X24538148Y45720879D01*
X24534752Y45789996D01*
X24538148Y45859113D01*
X24548307Y45927591D01*
X24565118Y45994712D01*
X24588438Y46059882D01*
X24618027Y46122445D01*
X24653614Y46181817D01*
X24694834Y46237397D01*
X24741315Y46288681D01*
X24792599Y46335162D01*
X24848179Y46376382D01*
X24907551Y46411969D01*
X24970114Y46441558D01*
X25035284Y46464878D01*
X25102405Y46481689D01*
X25170883Y46491848D01*
X25240000Y46495244D01*
X25309117Y46491848D01*
X25377595Y46481689D01*
X25444716Y46464878D01*
X25509886Y46441558D01*
X25572449Y46411969D01*
X25631821Y46376382D01*
X25687401Y46335162D01*
X25738685Y46288681D01*
X25785166Y46237397D01*
X25826386Y46181817D01*
X25861973Y46122445D01*
X25891562Y46059882D01*
X25914882Y45994712D01*
X25931693Y45927591D01*
X25941852Y45859113D01*
X25945248Y45789996D01*
X25941852Y45720879D01*
X25931693Y45652401D01*
X25914882Y45585280D01*
X25891562Y45520110D01*
X25861973Y45457547D01*
X25826386Y45398175D01*
X25785166Y45342595D01*
X25738685Y45291311D01*
X25687401Y45244830D01*
X25631821Y45203610D01*
X25572449Y45168023D01*
X25509886Y45138434D01*
X25444716Y45115114D01*
X25377595Y45098303D01*
X25309117Y45088144D01*
X25240000Y45084748D01*
D02*
G37*
%LPC*%
G36*
X24400000Y39549765D02*
X24317152Y39553836D01*
X24235095Y39566009D01*
X24154644Y39586159D01*
X24076544Y39614105D01*
X24001561Y39649570D01*
X23930411Y39692214D01*
X23863789Y39741625D01*
X23802329Y39797329D01*
X23746625Y39858789D01*
X23697214Y39925411D01*
X23654570Y39996561D01*
X23619105Y40071544D01*
X23591159Y40149644D01*
X23571009Y40230095D01*
X23558836Y40312152D01*
X23554765Y40395000D01*
X23558836Y40477848D01*
X23571009Y40559905D01*
X23591159Y40640356D01*
X23619105Y40718456D01*
X23654570Y40793439D01*
X23697214Y40864589D01*
X23746625Y40931211D01*
X23802329Y40992671D01*
X23863789Y41048375D01*
X23930411Y41097786D01*
X24001561Y41140430D01*
X24076544Y41175895D01*
X24154644Y41203841D01*
X24235095Y41223991D01*
X24317152Y41236164D01*
X24400000Y41240235D01*
X24482848Y41236164D01*
X24564905Y41223991D01*
X24645356Y41203841D01*
X24723456Y41175895D01*
X24798439Y41140430D01*
X24869589Y41097786D01*
X24936211Y41048375D01*
X24997671Y40992671D01*
X25053375Y40931211D01*
X25102786Y40864589D01*
X25145430Y40793439D01*
X25180895Y40718456D01*
X25208841Y40640356D01*
X25228991Y40559905D01*
X25241164Y40477848D01*
X25245235Y40395000D01*
X25241164Y40312152D01*
X25228991Y40230095D01*
X25208841Y40149644D01*
X25180895Y40071544D01*
X25145430Y39996561D01*
X25102786Y39925411D01*
X25053375Y39858789D01*
X24997671Y39797329D01*
X24936211Y39741625D01*
X24869589Y39692214D01*
X24798439Y39649570D01*
X24723456Y39614105D01*
X24645356Y39586159D01*
X24564905Y39566009D01*
X24482848Y39553836D01*
X24400000Y39549765D01*
D02*
G37*
%LPC*%
G36*
X33515000Y39549765D02*
X33432152Y39553836D01*
X33350095Y39566009D01*
X33269644Y39586159D01*
X33191544Y39614105D01*
X33116561Y39649570D01*
X33045411Y39692214D01*
X32978789Y39741625D01*
X32917329Y39797329D01*
X32861625Y39858789D01*
X32812214Y39925411D01*
X32769570Y39996561D01*
X32734105Y40071544D01*
X32706159Y40149644D01*
X32686009Y40230095D01*
X32673836Y40312152D01*
X32669765Y40395000D01*
X32673836Y40477848D01*
X32686009Y40559905D01*
X32706159Y40640356D01*
X32734105Y40718456D01*
X32769570Y40793439D01*
X32812214Y40864589D01*
X32861625Y40931211D01*
X32917329Y40992671D01*
X32978789Y41048375D01*
X33045411Y41097786D01*
X33116561Y41140430D01*
X33191544Y41175895D01*
X33269644Y41203841D01*
X33350095Y41223991D01*
X33432152Y41236164D01*
X33515000Y41240235D01*
X33597848Y41236164D01*
X33679905Y41223991D01*
X33760356Y41203841D01*
X33838456Y41175895D01*
X33913439Y41140430D01*
X33984589Y41097786D01*
X34051211Y41048375D01*
X34112671Y40992671D01*
X34168375Y40931211D01*
X34217786Y40864589D01*
X34260430Y40793439D01*
X34295895Y40718456D01*
X34323841Y40640356D01*
X34343991Y40559905D01*
X34356164Y40477848D01*
X34360235Y40395000D01*
X34356164Y40312152D01*
X34343991Y40230095D01*
X34323841Y40149644D01*
X34295895Y40071544D01*
X34260430Y39996561D01*
X34217786Y39925411D01*
X34168375Y39858789D01*
X34112671Y39797329D01*
X34051211Y39741625D01*
X33984589Y39692214D01*
X33913439Y39649570D01*
X33838456Y39614105D01*
X33760356Y39586159D01*
X33679905Y39566009D01*
X33597848Y39553836D01*
X33515000Y39549765D01*
D02*
G37*
%LPC*%
G36*
X21860000Y37009765D02*
X21777152Y37013836D01*
X21695095Y37026009D01*
X21614644Y37046159D01*
X21536544Y37074105D01*
X21461561Y37109570D01*
X21390411Y37152214D01*
X21323789Y37201625D01*
X21262329Y37257329D01*
X21206625Y37318789D01*
X21157214Y37385411D01*
X21114570Y37456561D01*
X21079105Y37531544D01*
X21051159Y37609644D01*
X21031009Y37690095D01*
X21018836Y37772152D01*
X21014765Y37855000D01*
X21018836Y37937848D01*
X21031009Y38019905D01*
X21051159Y38100356D01*
X21079105Y38178456D01*
X21114570Y38253439D01*
X21157214Y38324589D01*
X21206625Y38391211D01*
X21262329Y38452671D01*
X21323789Y38508375D01*
X21390411Y38557786D01*
X21461561Y38600430D01*
X21536544Y38635895D01*
X21614644Y38663841D01*
X21695095Y38683991D01*
X21777152Y38696164D01*
X21860000Y38700235D01*
X21942848Y38696164D01*
X22024905Y38683991D01*
X22105356Y38663841D01*
X22183456Y38635895D01*
X22258439Y38600430D01*
X22329589Y38557786D01*
X22396211Y38508375D01*
X22457671Y38452671D01*
X22513375Y38391211D01*
X22562786Y38324589D01*
X22605430Y38253439D01*
X22640895Y38178456D01*
X22668841Y38100356D01*
X22688991Y38019905D01*
X22701164Y37937848D01*
X22705235Y37855000D01*
X22701164Y37772152D01*
X22688991Y37690095D01*
X22668841Y37609644D01*
X22640895Y37531544D01*
X22605430Y37456561D01*
X22562786Y37385411D01*
X22513375Y37318789D01*
X22457671Y37257329D01*
X22396211Y37201625D01*
X22329589Y37152214D01*
X22258439Y37109570D01*
X22183456Y37074105D01*
X22105356Y37046159D01*
X22024905Y37026009D01*
X21942848Y37013836D01*
X21860000Y37009765D01*
D02*
G37*
%LPC*%
G36*
X26940000Y37009765D02*
X26857152Y37013836D01*
X26775095Y37026009D01*
X26694644Y37046159D01*
X26616544Y37074105D01*
X26541561Y37109570D01*
X26470411Y37152214D01*
X26403789Y37201625D01*
X26342329Y37257329D01*
X26286625Y37318789D01*
X26237214Y37385411D01*
X26194570Y37456561D01*
X26159105Y37531544D01*
X26131159Y37609644D01*
X26111009Y37690095D01*
X26098836Y37772152D01*
X26094765Y37855000D01*
X26098836Y37937848D01*
X26111009Y38019905D01*
X26131159Y38100356D01*
X26159105Y38178456D01*
X26194570Y38253439D01*
X26237214Y38324589D01*
X26286625Y38391211D01*
X26342329Y38452671D01*
X26403789Y38508375D01*
X26470411Y38557786D01*
X26541561Y38600430D01*
X26616544Y38635895D01*
X26694644Y38663841D01*
X26775095Y38683991D01*
X26857152Y38696164D01*
X26940000Y38700235D01*
X27022848Y38696164D01*
X27104905Y38683991D01*
X27185356Y38663841D01*
X27263456Y38635895D01*
X27338439Y38600430D01*
X27409589Y38557786D01*
X27476211Y38508375D01*
X27537671Y38452671D01*
X27593375Y38391211D01*
X27642786Y38324589D01*
X27685430Y38253439D01*
X27720895Y38178456D01*
X27748841Y38100356D01*
X27768991Y38019905D01*
X27781164Y37937848D01*
X27785235Y37855000D01*
X27781164Y37772152D01*
X27768991Y37690095D01*
X27748841Y37609644D01*
X27720895Y37531544D01*
X27685430Y37456561D01*
X27642786Y37385411D01*
X27593375Y37318789D01*
X27537671Y37257329D01*
X27476211Y37201625D01*
X27409589Y37152214D01*
X27338439Y37109570D01*
X27263456Y37074105D01*
X27185356Y37046159D01*
X27104905Y37026009D01*
X27022848Y37013836D01*
X26940000Y37009765D01*
D02*
G37*
%LPC*%
G36*
X30975000Y37009765D02*
X30892152Y37013836D01*
X30810095Y37026009D01*
X30729644Y37046159D01*
X30651544Y37074105D01*
X30576561Y37109570D01*
X30505411Y37152214D01*
X30438789Y37201625D01*
X30377329Y37257329D01*
X30321625Y37318789D01*
X30272214Y37385411D01*
X30229570Y37456561D01*
X30194105Y37531544D01*
X30166159Y37609644D01*
X30146009Y37690095D01*
X30133836Y37772152D01*
X30129765Y37855000D01*
X30133836Y37937848D01*
X30146009Y38019905D01*
X30166159Y38100356D01*
X30194105Y38178456D01*
X30229570Y38253439D01*
X30272214Y38324589D01*
X30321625Y38391211D01*
X30377329Y38452671D01*
X30438789Y38508375D01*
X30505411Y38557786D01*
X30576561Y38600430D01*
X30651544Y38635895D01*
X30729644Y38663841D01*
X30810095Y38683991D01*
X30892152Y38696164D01*
X30975000Y38700235D01*
X31057848Y38696164D01*
X31139905Y38683991D01*
X31220356Y38663841D01*
X31298456Y38635895D01*
X31373439Y38600430D01*
X31444589Y38557786D01*
X31511211Y38508375D01*
X31572671Y38452671D01*
X31628375Y38391211D01*
X31677786Y38324589D01*
X31720430Y38253439D01*
X31755895Y38178456D01*
X31783841Y38100356D01*
X31803991Y38019905D01*
X31816164Y37937848D01*
X31820235Y37855000D01*
X31816164Y37772152D01*
X31803991Y37690095D01*
X31783841Y37609644D01*
X31755895Y37531544D01*
X31720430Y37456561D01*
X31677786Y37385411D01*
X31628375Y37318789D01*
X31572671Y37257329D01*
X31511211Y37201625D01*
X31444589Y37152214D01*
X31373439Y37109570D01*
X31298456Y37074105D01*
X31220356Y37046159D01*
X31139905Y37026009D01*
X31057848Y37013836D01*
X30975000Y37009765D01*
D02*
G37*
%LPC*%
G36*
X36055000Y37009765D02*
X35972152Y37013836D01*
X35890095Y37026009D01*
X35809644Y37046159D01*
X35731544Y37074105D01*
X35656561Y37109570D01*
X35585411Y37152214D01*
X35518789Y37201625D01*
X35457329Y37257329D01*
X35401625Y37318789D01*
X35352214Y37385411D01*
X35309570Y37456561D01*
X35274105Y37531544D01*
X35246159Y37609644D01*
X35226009Y37690095D01*
X35213836Y37772152D01*
X35209765Y37855000D01*
X35213836Y37937848D01*
X35226009Y38019905D01*
X35246159Y38100356D01*
X35274105Y38178456D01*
X35309570Y38253439D01*
X35352214Y38324589D01*
X35401625Y38391211D01*
X35457329Y38452671D01*
X35518789Y38508375D01*
X35585411Y38557786D01*
X35656561Y38600430D01*
X35731544Y38635895D01*
X35809644Y38663841D01*
X35890095Y38683991D01*
X35972152Y38696164D01*
X36055000Y38700235D01*
X36137848Y38696164D01*
X36219905Y38683991D01*
X36300356Y38663841D01*
X36378456Y38635895D01*
X36453439Y38600430D01*
X36524589Y38557786D01*
X36591211Y38508375D01*
X36652671Y38452671D01*
X36708375Y38391211D01*
X36757786Y38324589D01*
X36800430Y38253439D01*
X36835895Y38178456D01*
X36863841Y38100356D01*
X36883991Y38019905D01*
X36896164Y37937848D01*
X36900235Y37855000D01*
X36896164Y37772152D01*
X36883991Y37690095D01*
X36863841Y37609644D01*
X36835895Y37531544D01*
X36800430Y37456561D01*
X36757786Y37385411D01*
X36708375Y37318789D01*
X36652671Y37257329D01*
X36591211Y37201625D01*
X36524589Y37152214D01*
X36453439Y37109570D01*
X36378456Y37074105D01*
X36300356Y37046159D01*
X36219905Y37026009D01*
X36137848Y37013836D01*
X36055000Y37009765D01*
D02*
G37*
%LPC*%
G36*
X4500000Y35254764D02*
X4377953Y35260762D01*
X4257065Y35278693D01*
X4138526Y35308385D01*
X4023471Y35349552D01*
X3913002Y35401800D01*
X3808185Y35464625D01*
X3710033Y35537421D01*
X3619486Y35619486D01*
X3537421Y35710033D01*
X3464625Y35808185D01*
X3401800Y35913002D01*
X3349552Y36023471D01*
X3308385Y36138526D01*
X3278693Y36257065D01*
X3260762Y36377953D01*
X3254764Y36500000D01*
X3260762Y36622047D01*
X3278693Y36742935D01*
X3308385Y36861474D01*
X3349552Y36976529D01*
X3401800Y37086998D01*
X3464625Y37191815D01*
X3537421Y37289967D01*
X3619486Y37380514D01*
X3710033Y37462579D01*
X3808185Y37535375D01*
X3913002Y37598200D01*
X4023471Y37650448D01*
X4138526Y37691615D01*
X4257065Y37721307D01*
X4377953Y37739238D01*
X4500000Y37745236D01*
X4622047Y37739238D01*
X4742935Y37721307D01*
X4861474Y37691615D01*
X4976529Y37650448D01*
X5086998Y37598200D01*
X5191815Y37535375D01*
X5289967Y37462579D01*
X5380514Y37380514D01*
X5462579Y37289967D01*
X5535375Y37191815D01*
X5598200Y37086998D01*
X5650448Y36976529D01*
X5691615Y36861474D01*
X5721307Y36742935D01*
X5739238Y36622047D01*
X5745236Y36500000D01*
X5739238Y36377953D01*
X5721307Y36257065D01*
X5691615Y36138526D01*
X5650448Y36023471D01*
X5598200Y35913002D01*
X5535375Y35808185D01*
X5462579Y35710033D01*
X5380514Y35619486D01*
X5289967Y35537421D01*
X5191815Y35464625D01*
X5086998Y35401800D01*
X4976529Y35349552D01*
X4861474Y35308385D01*
X4742935Y35278693D01*
X4622047Y35260762D01*
X4500000Y35254764D01*
D02*
G37*
%LPC*%
G36*
X14500000Y35254764D02*
X14377953Y35260762D01*
X14257065Y35278693D01*
X14138526Y35308385D01*
X14023471Y35349552D01*
X13913002Y35401800D01*
X13808185Y35464625D01*
X13710033Y35537421D01*
X13619486Y35619486D01*
X13537421Y35710033D01*
X13464625Y35808185D01*
X13401800Y35913002D01*
X13349552Y36023471D01*
X13308385Y36138526D01*
X13278693Y36257065D01*
X13260762Y36377953D01*
X13254764Y36500000D01*
X13260762Y36622047D01*
X13278693Y36742935D01*
X13308385Y36861474D01*
X13349552Y36976529D01*
X13401800Y37086998D01*
X13464625Y37191815D01*
X13537421Y37289967D01*
X13619486Y37380514D01*
X13710033Y37462579D01*
X13808185Y37535375D01*
X13913002Y37598200D01*
X14023471Y37650448D01*
X14138526Y37691615D01*
X14257065Y37721307D01*
X14377953Y37739238D01*
X14500000Y37745236D01*
X14622047Y37739238D01*
X14742935Y37721307D01*
X14861474Y37691615D01*
X14976529Y37650448D01*
X15086998Y37598200D01*
X15191815Y37535375D01*
X15289967Y37462579D01*
X15380514Y37380514D01*
X15462579Y37289967D01*
X15535375Y37191815D01*
X15598200Y37086998D01*
X15650448Y36976529D01*
X15691615Y36861474D01*
X15721307Y36742935D01*
X15739238Y36622047D01*
X15745236Y36500000D01*
X15739238Y36377953D01*
X15721307Y36257065D01*
X15691615Y36138526D01*
X15650448Y36023471D01*
X15598200Y35913002D01*
X15535375Y35808185D01*
X15462579Y35710033D01*
X15380514Y35619486D01*
X15289967Y35537421D01*
X15191815Y35464625D01*
X15086998Y35401800D01*
X14976529Y35349552D01*
X14861474Y35308385D01*
X14742935Y35278693D01*
X14622047Y35260762D01*
X14500000Y35254764D01*
D02*
G37*
%LPC*%
G36*
X9500000Y35254764D02*
X9377953Y35260762D01*
X9257065Y35278693D01*
X9138526Y35308385D01*
X9023471Y35349552D01*
X8913002Y35401800D01*
X8808185Y35464625D01*
X8710033Y35537421D01*
X8619486Y35619486D01*
X8537421Y35710033D01*
X8464625Y35808185D01*
X8401800Y35913002D01*
X8349552Y36023471D01*
X8308385Y36138526D01*
X8278693Y36257065D01*
X8260762Y36377953D01*
X8254764Y36500000D01*
X8260762Y36622047D01*
X8278693Y36742935D01*
X8308385Y36861474D01*
X8349552Y36976529D01*
X8401800Y37086998D01*
X8464625Y37191815D01*
X8537421Y37289967D01*
X8619486Y37380514D01*
X8710033Y37462579D01*
X8808185Y37535375D01*
X8913002Y37598200D01*
X9023471Y37650448D01*
X9138526Y37691615D01*
X9257065Y37721307D01*
X9377953Y37739238D01*
X9500000Y37745236D01*
X9622047Y37739238D01*
X9742935Y37721307D01*
X9861474Y37691615D01*
X9976529Y37650448D01*
X10086998Y37598200D01*
X10191815Y37535375D01*
X10289967Y37462579D01*
X10380514Y37380514D01*
X10462579Y37289967D01*
X10535375Y37191815D01*
X10598200Y37086998D01*
X10650448Y36976529D01*
X10691615Y36861474D01*
X10721307Y36742935D01*
X10739238Y36622047D01*
X10745236Y36500000D01*
X10739238Y36377953D01*
X10721307Y36257065D01*
X10691615Y36138526D01*
X10650448Y36023471D01*
X10598200Y35913002D01*
X10535375Y35808185D01*
X10462579Y35710033D01*
X10380514Y35619486D01*
X10289967Y35537421D01*
X10191815Y35464625D01*
X10086998Y35401800D01*
X9976529Y35349552D01*
X9861474Y35308385D01*
X9742935Y35278693D01*
X9622047Y35260762D01*
X9500000Y35254764D01*
D02*
G37*
%LPC*%
G36*
X47120000Y35779752D02*
X47050883Y35783148D01*
X46982405Y35793307D01*
X46915284Y35810118D01*
X46850114Y35833438D01*
X46787551Y35863027D01*
X46728179Y35898614D01*
X46672599Y35939834D01*
X46621315Y35986315D01*
X46574834Y36037599D01*
X46533614Y36093179D01*
X46498027Y36152551D01*
X46468438Y36215114D01*
X46445118Y36280284D01*
X46428307Y36347405D01*
X46418148Y36415883D01*
X46414752Y36485000D01*
X46418148Y36554117D01*
X46428307Y36622595D01*
X46445118Y36689716D01*
X46468438Y36754886D01*
X46498027Y36817449D01*
X46533614Y36876821D01*
X46574834Y36932401D01*
X46621315Y36983685D01*
X46672599Y37030166D01*
X46728179Y37071386D01*
X46787551Y37106973D01*
X46850114Y37136562D01*
X46915284Y37159882D01*
X46982405Y37176693D01*
X47050883Y37186852D01*
X47120000Y37190248D01*
X47189117Y37186852D01*
X47257595Y37176693D01*
X47324716Y37159882D01*
X47389886Y37136562D01*
X47452449Y37106973D01*
X47511821Y37071386D01*
X47567401Y37030166D01*
X47618685Y36983685D01*
X47665166Y36932401D01*
X47706386Y36876821D01*
X47741973Y36817449D01*
X47771562Y36754886D01*
X47794882Y36689716D01*
X47811693Y36622595D01*
X47821852Y36554117D01*
X47825248Y36485000D01*
X47821852Y36415883D01*
X47811693Y36347405D01*
X47794882Y36280284D01*
X47771562Y36215114D01*
X47741973Y36152551D01*
X47706386Y36093179D01*
X47665166Y36037599D01*
X47618685Y35986315D01*
X47567401Y35939834D01*
X47511821Y35898614D01*
X47452449Y35863027D01*
X47389886Y35833438D01*
X47324716Y35810118D01*
X47257595Y35793307D01*
X47189117Y35783148D01*
X47120000Y35779752D01*
D02*
G37*
%LPC*%
G36*
X55000000Y35749752D02*
X54930883Y35753148D01*
X54862405Y35763307D01*
X54795284Y35780118D01*
X54730114Y35803438D01*
X54667551Y35833027D01*
X54608179Y35868614D01*
X54552599Y35909834D01*
X54501315Y35956315D01*
X54454834Y36007599D01*
X54413614Y36063179D01*
X54378027Y36122551D01*
X54348438Y36185114D01*
X54325118Y36250284D01*
X54308307Y36317405D01*
X54298148Y36385883D01*
X54294752Y36455000D01*
X54298148Y36524117D01*
X54308307Y36592595D01*
X54325118Y36659716D01*
X54348438Y36724886D01*
X54378027Y36787449D01*
X54413614Y36846821D01*
X54454834Y36902401D01*
X54501315Y36953685D01*
X54552599Y37000166D01*
X54608179Y37041386D01*
X54667551Y37076973D01*
X54730114Y37106562D01*
X54795284Y37129882D01*
X54862405Y37146693D01*
X54930883Y37156852D01*
X55000000Y37160248D01*
X55069117Y37156852D01*
X55137595Y37146693D01*
X55204716Y37129882D01*
X55269886Y37106562D01*
X55332449Y37076973D01*
X55391821Y37041386D01*
X55447401Y37000166D01*
X55498685Y36953685D01*
X55545166Y36902401D01*
X55586386Y36846821D01*
X55621973Y36787449D01*
X55651562Y36724886D01*
X55674882Y36659716D01*
X55691693Y36592595D01*
X55701852Y36524117D01*
X55705248Y36455000D01*
X55701852Y36385883D01*
X55691693Y36317405D01*
X55674882Y36250284D01*
X55651562Y36185114D01*
X55621973Y36122551D01*
X55586386Y36063179D01*
X55545166Y36007599D01*
X55498685Y35956315D01*
X55447401Y35909834D01*
X55391821Y35868614D01*
X55332449Y35833027D01*
X55269886Y35803438D01*
X55204716Y35780118D01*
X55137595Y35763307D01*
X55069117Y35753148D01*
X55000000Y35749752D01*
D02*
G37*
%LPC*%
G36*
X37250000Y30210000D02*
X34860000Y30210000D01*
X34860000Y32600000D01*
X37250000Y32600000D01*
X37250000Y30210000D01*
D02*
G37*
%LPC*%
G36*
X28135000Y30210000D02*
X25745000Y30210000D01*
X25745000Y32600000D01*
X28135000Y32600000D01*
X28135000Y30210000D01*
D02*
G37*
%LPC*%
G36*
X29000000Y18394752D02*
X28930883Y18398148D01*
X28862405Y18408307D01*
X28795284Y18425118D01*
X28730114Y18448438D01*
X28667551Y18478027D01*
X28608179Y18513614D01*
X28552599Y18554834D01*
X28501315Y18601315D01*
X28454834Y18652599D01*
X28413614Y18708179D01*
X28378027Y18767551D01*
X28348438Y18830114D01*
X28325118Y18895284D01*
X28308307Y18962405D01*
X28298148Y19030883D01*
X28294752Y19100000D01*
X28298148Y19169117D01*
X28308307Y19237595D01*
X28325118Y19304716D01*
X28348438Y19369886D01*
X28378027Y19432449D01*
X28413614Y19491821D01*
X28454834Y19547401D01*
X28501315Y19598685D01*
X28552599Y19645166D01*
X28608179Y19686386D01*
X28667551Y19721973D01*
X28730114Y19751562D01*
X28795284Y19774882D01*
X28862405Y19791693D01*
X28930883Y19801852D01*
X29000000Y19805248D01*
X29069117Y19801852D01*
X29137595Y19791693D01*
X29204716Y19774882D01*
X29269886Y19751562D01*
X29332449Y19721973D01*
X29391821Y19686386D01*
X29447401Y19645166D01*
X29498685Y19598685D01*
X29545166Y19547401D01*
X29586386Y19491821D01*
X29621973Y19432449D01*
X29651562Y19369886D01*
X29674882Y19304716D01*
X29691693Y19237595D01*
X29701852Y19169117D01*
X29705248Y19100000D01*
X29701852Y19030883D01*
X29691693Y18962405D01*
X29674882Y18895284D01*
X29651562Y18830114D01*
X29621973Y18767551D01*
X29586386Y18708179D01*
X29545166Y18652599D01*
X29498685Y18601315D01*
X29447401Y18554834D01*
X29391821Y18513614D01*
X29332449Y18478027D01*
X29269886Y18448438D01*
X29204716Y18425118D01*
X29137595Y18408307D01*
X29069117Y18398148D01*
X29000000Y18394752D01*
D02*
G37*
%LPC*%
G36*
X10477083Y5646027D02*
X10389343Y5650339D01*
X10302427Y5663231D01*
X10217212Y5684576D01*
X10134490Y5714176D01*
X10055073Y5751736D01*
X9979720Y5796901D01*
X9909156Y5849235D01*
X9844057Y5908237D01*
X9785055Y5973336D01*
X9732721Y6043900D01*
X9687556Y6119253D01*
X9649996Y6198670D01*
X9620396Y6281392D01*
X9599051Y6366607D01*
X9586159Y6453523D01*
X9581847Y6541263D01*
X9586159Y6629003D01*
X9599051Y6715919D01*
X9620396Y6801134D01*
X9649996Y6883856D01*
X9687556Y6963273D01*
X9732721Y7038626D01*
X9785055Y7109190D01*
X9844057Y7174289D01*
X9909156Y7233291D01*
X9979720Y7285625D01*
X10055073Y7330790D01*
X10134490Y7368350D01*
X10217212Y7397950D01*
X10302427Y7419295D01*
X10389343Y7432187D01*
X10477083Y7436499D01*
X10564823Y7432187D01*
X10651739Y7419295D01*
X10736954Y7397950D01*
X10819676Y7368350D01*
X10899093Y7330790D01*
X10974446Y7285625D01*
X11045010Y7233291D01*
X11110109Y7174289D01*
X11169111Y7109190D01*
X11221445Y7038626D01*
X11266610Y6963273D01*
X11304170Y6883856D01*
X11333770Y6801134D01*
X11355115Y6715919D01*
X11368007Y6629003D01*
X11372319Y6541263D01*
X11368007Y6453523D01*
X11355115Y6366607D01*
X11333770Y6281392D01*
X11304170Y6198670D01*
X11266610Y6119253D01*
X11221445Y6043900D01*
X11169111Y5973336D01*
X11110109Y5908237D01*
X11045010Y5849235D01*
X10974446Y5796901D01*
X10899093Y5751736D01*
X10819676Y5714176D01*
X10736954Y5684576D01*
X10651739Y5663231D01*
X10564823Y5650339D01*
X10477083Y5646027D01*
D02*
G37*
%LPC*%
G36*
X54477083Y5646027D02*
X54389343Y5650339D01*
X54302427Y5663231D01*
X54217212Y5684576D01*
X54134490Y5714176D01*
X54055073Y5751736D01*
X53979720Y5796901D01*
X53909156Y5849235D01*
X53844057Y5908237D01*
X53785055Y5973336D01*
X53732721Y6043900D01*
X53687556Y6119253D01*
X53649996Y6198670D01*
X53620396Y6281392D01*
X53599051Y6366607D01*
X53586159Y6453523D01*
X53581847Y6541263D01*
X53586159Y6629003D01*
X53599051Y6715919D01*
X53620396Y6801134D01*
X53649996Y6883856D01*
X53687556Y6963273D01*
X53732721Y7038626D01*
X53785055Y7109190D01*
X53844057Y7174289D01*
X53909156Y7233291D01*
X53979720Y7285625D01*
X54055073Y7330790D01*
X54134490Y7368350D01*
X54217212Y7397950D01*
X54302427Y7419295D01*
X54389343Y7432187D01*
X54477083Y7436499D01*
X54564823Y7432187D01*
X54651739Y7419295D01*
X54736954Y7397950D01*
X54819676Y7368350D01*
X54899093Y7330790D01*
X54974446Y7285625D01*
X55045010Y7233291D01*
X55110109Y7174289D01*
X55169111Y7109190D01*
X55221445Y7038626D01*
X55266610Y6963273D01*
X55304170Y6883856D01*
X55333770Y6801134D01*
X55355115Y6715919D01*
X55368007Y6629003D01*
X55372319Y6541263D01*
X55368007Y6453523D01*
X55355115Y6366607D01*
X55333770Y6281392D01*
X55304170Y6198670D01*
X55266610Y6119253D01*
X55221445Y6043900D01*
X55169111Y5973336D01*
X55110109Y5908237D01*
X55045010Y5849235D01*
X54974446Y5796901D01*
X54899093Y5751736D01*
X54819676Y5714176D01*
X54736954Y5684576D01*
X54651739Y5663231D01*
X54564823Y5650339D01*
X54477083Y5646027D01*
D02*
G37*
%LPC*%
G36*
X22502917Y2194501D02*
X22415177Y2198813D01*
X22328261Y2211705D01*
X22243046Y2233050D01*
X22160324Y2262650D01*
X22080907Y2300210D01*
X22005554Y2345375D01*
X21934990Y2397709D01*
X21869891Y2456711D01*
X21810889Y2521810D01*
X21758555Y2592374D01*
X21713390Y2667727D01*
X21675830Y2747144D01*
X21646230Y2829866D01*
X21624885Y2915081D01*
X21611993Y3001997D01*
X21607681Y3089737D01*
X21611993Y3177477D01*
X21624885Y3264393D01*
X21646230Y3349608D01*
X21675830Y3432330D01*
X21713390Y3511747D01*
X21758555Y3587100D01*
X21810889Y3657664D01*
X21869891Y3722763D01*
X21934990Y3781765D01*
X22005554Y3834099D01*
X22080907Y3879264D01*
X22160324Y3916824D01*
X22243046Y3946424D01*
X22328261Y3967769D01*
X22415177Y3980661D01*
X22502917Y3984973D01*
X22590657Y3980661D01*
X22677573Y3967769D01*
X22762788Y3946424D01*
X22845510Y3916824D01*
X22924927Y3879264D01*
X23000280Y3834099D01*
X23070844Y3781765D01*
X23135943Y3722763D01*
X23194945Y3657664D01*
X23247279Y3587100D01*
X23292444Y3511747D01*
X23330004Y3432330D01*
X23359604Y3349608D01*
X23380949Y3264393D01*
X23393841Y3177477D01*
X23398153Y3089737D01*
X23393841Y3001997D01*
X23380949Y2915081D01*
X23359604Y2829866D01*
X23330004Y2747144D01*
X23292444Y2667727D01*
X23247279Y2592374D01*
X23194945Y2521810D01*
X23135943Y2456711D01*
X23070844Y2397709D01*
X23000280Y2345375D01*
X22924927Y2300210D01*
X22845510Y2262650D01*
X22762788Y2233050D01*
X22677573Y2211705D01*
X22590657Y2198813D01*
X22502917Y2194501D01*
D02*
G37*
%LPC*%
G36*
X26502917Y2194501D02*
X26415177Y2198813D01*
X26328261Y2211705D01*
X26243046Y2233050D01*
X26160324Y2262650D01*
X26080907Y2300210D01*
X26005554Y2345375D01*
X25934990Y2397709D01*
X25869891Y2456711D01*
X25810889Y2521810D01*
X25758555Y2592374D01*
X25713390Y2667727D01*
X25675830Y2747144D01*
X25646230Y2829866D01*
X25624885Y2915081D01*
X25611993Y3001997D01*
X25607681Y3089737D01*
X25611993Y3177477D01*
X25624885Y3264393D01*
X25646230Y3349608D01*
X25675830Y3432330D01*
X25713390Y3511747D01*
X25758555Y3587100D01*
X25810889Y3657664D01*
X25869891Y3722763D01*
X25934990Y3781765D01*
X26005554Y3834099D01*
X26080907Y3879264D01*
X26160324Y3916824D01*
X26243046Y3946424D01*
X26328261Y3967769D01*
X26415177Y3980661D01*
X26502917Y3984973D01*
X26590657Y3980661D01*
X26677573Y3967769D01*
X26762788Y3946424D01*
X26845510Y3916824D01*
X26924927Y3879264D01*
X27000280Y3834099D01*
X27070844Y3781765D01*
X27135943Y3722763D01*
X27194945Y3657664D01*
X27247279Y3587100D01*
X27292444Y3511747D01*
X27330004Y3432330D01*
X27359604Y3349608D01*
X27380949Y3264393D01*
X27393841Y3177477D01*
X27398153Y3089737D01*
X27393841Y3001997D01*
X27380949Y2915081D01*
X27359604Y2829866D01*
X27330004Y2747144D01*
X27292444Y2667727D01*
X27247279Y2592374D01*
X27194945Y2521810D01*
X27135943Y2456711D01*
X27070844Y2397709D01*
X27000280Y2345375D01*
X26924927Y2300210D01*
X26845510Y2262650D01*
X26762788Y2233050D01*
X26677573Y2211705D01*
X26590657Y2198813D01*
X26502917Y2194501D01*
D02*
G37*
%LPC*%
G36*
X30502917Y2194501D02*
X30415177Y2198813D01*
X30328261Y2211705D01*
X30243046Y2233050D01*
X30160324Y2262650D01*
X30080907Y2300210D01*
X30005554Y2345375D01*
X29934990Y2397709D01*
X29869891Y2456711D01*
X29810889Y2521810D01*
X29758555Y2592374D01*
X29713390Y2667727D01*
X29675830Y2747144D01*
X29646230Y2829866D01*
X29624885Y2915081D01*
X29611993Y3001997D01*
X29607681Y3089737D01*
X29611993Y3177477D01*
X29624885Y3264393D01*
X29646230Y3349608D01*
X29675830Y3432330D01*
X29713390Y3511747D01*
X29758555Y3587100D01*
X29810889Y3657664D01*
X29869891Y3722763D01*
X29934990Y3781765D01*
X30005554Y3834099D01*
X30080907Y3879264D01*
X30160324Y3916824D01*
X30243046Y3946424D01*
X30328261Y3967769D01*
X30415177Y3980661D01*
X30502917Y3984973D01*
X30590657Y3980661D01*
X30677573Y3967769D01*
X30762788Y3946424D01*
X30845510Y3916824D01*
X30924927Y3879264D01*
X31000280Y3834099D01*
X31070844Y3781765D01*
X31135943Y3722763D01*
X31194945Y3657664D01*
X31247279Y3587100D01*
X31292444Y3511747D01*
X31330004Y3432330D01*
X31359604Y3349608D01*
X31380949Y3264393D01*
X31393841Y3177477D01*
X31398153Y3089737D01*
X31393841Y3001997D01*
X31380949Y2915081D01*
X31359604Y2829866D01*
X31330004Y2747144D01*
X31292444Y2667727D01*
X31247279Y2592374D01*
X31194945Y2521810D01*
X31135943Y2456711D01*
X31070844Y2397709D01*
X31000280Y2345375D01*
X30924927Y2300210D01*
X30845510Y2262650D01*
X30762788Y2233050D01*
X30677573Y2211705D01*
X30590657Y2198813D01*
X30502917Y2194501D01*
D02*
G37*
%LPC*%
G36*
X32502917Y2194501D02*
X32415177Y2198813D01*
X32328261Y2211705D01*
X32243046Y2233050D01*
X32160324Y2262650D01*
X32080907Y2300210D01*
X32005554Y2345375D01*
X31934990Y2397709D01*
X31869891Y2456711D01*
X31810889Y2521810D01*
X31758555Y2592374D01*
X31713390Y2667727D01*
X31675830Y2747144D01*
X31646230Y2829866D01*
X31624885Y2915081D01*
X31611993Y3001997D01*
X31607681Y3089737D01*
X31611993Y3177477D01*
X31624885Y3264393D01*
X31646230Y3349608D01*
X31675830Y3432330D01*
X31713390Y3511747D01*
X31758555Y3587100D01*
X31810889Y3657664D01*
X31869891Y3722763D01*
X31934990Y3781765D01*
X32005554Y3834099D01*
X32080907Y3879264D01*
X32160324Y3916824D01*
X32243046Y3946424D01*
X32328261Y3967769D01*
X32415177Y3980661D01*
X32502917Y3984973D01*
X32590657Y3980661D01*
X32677573Y3967769D01*
X32762788Y3946424D01*
X32845510Y3916824D01*
X32924927Y3879264D01*
X33000280Y3834099D01*
X33070844Y3781765D01*
X33135943Y3722763D01*
X33194945Y3657664D01*
X33247279Y3587100D01*
X33292444Y3511747D01*
X33330004Y3432330D01*
X33359604Y3349608D01*
X33380949Y3264393D01*
X33393841Y3177477D01*
X33398153Y3089737D01*
X33393841Y3001997D01*
X33380949Y2915081D01*
X33359604Y2829866D01*
X33330004Y2747144D01*
X33292444Y2667727D01*
X33247279Y2592374D01*
X33194945Y2521810D01*
X33135943Y2456711D01*
X33070844Y2397709D01*
X33000280Y2345375D01*
X32924927Y2300210D01*
X32845510Y2262650D01*
X32762788Y2233050D01*
X32677573Y2211705D01*
X32590657Y2198813D01*
X32502917Y2194501D01*
D02*
G37*
%LPC*%
G36*
X34502917Y2194501D02*
X34415177Y2198813D01*
X34328261Y2211705D01*
X34243046Y2233050D01*
X34160324Y2262650D01*
X34080907Y2300210D01*
X34005554Y2345375D01*
X33934990Y2397709D01*
X33869891Y2456711D01*
X33810889Y2521810D01*
X33758555Y2592374D01*
X33713390Y2667727D01*
X33675830Y2747144D01*
X33646230Y2829866D01*
X33624885Y2915081D01*
X33611993Y3001997D01*
X33607681Y3089737D01*
X33611993Y3177477D01*
X33624885Y3264393D01*
X33646230Y3349608D01*
X33675830Y3432330D01*
X33713390Y3511747D01*
X33758555Y3587100D01*
X33810889Y3657664D01*
X33869891Y3722763D01*
X33934990Y3781765D01*
X34005554Y3834099D01*
X34080907Y3879264D01*
X34160324Y3916824D01*
X34243046Y3946424D01*
X34328261Y3967769D01*
X34415177Y3980661D01*
X34502917Y3984973D01*
X34590657Y3980661D01*
X34677573Y3967769D01*
X34762788Y3946424D01*
X34845510Y3916824D01*
X34924927Y3879264D01*
X35000280Y3834099D01*
X35070844Y3781765D01*
X35135943Y3722763D01*
X35194945Y3657664D01*
X35247279Y3587100D01*
X35292444Y3511747D01*
X35330004Y3432330D01*
X35359604Y3349608D01*
X35380949Y3264393D01*
X35393841Y3177477D01*
X35398153Y3089737D01*
X35393841Y3001997D01*
X35380949Y2915081D01*
X35359604Y2829866D01*
X35330004Y2747144D01*
X35292444Y2667727D01*
X35247279Y2592374D01*
X35194945Y2521810D01*
X35135943Y2456711D01*
X35070844Y2397709D01*
X35000280Y2345375D01*
X34924927Y2300210D01*
X34845510Y2262650D01*
X34762788Y2233050D01*
X34677573Y2211705D01*
X34590657Y2198813D01*
X34502917Y2194501D01*
D02*
G37*
%LPC*%
G36*
X36502917Y2194501D02*
X36415177Y2198813D01*
X36328261Y2211705D01*
X36243046Y2233050D01*
X36160324Y2262650D01*
X36080907Y2300210D01*
X36005554Y2345375D01*
X35934990Y2397709D01*
X35869891Y2456711D01*
X35810889Y2521810D01*
X35758555Y2592374D01*
X35713390Y2667727D01*
X35675830Y2747144D01*
X35646230Y2829866D01*
X35624885Y2915081D01*
X35611993Y3001997D01*
X35607681Y3089737D01*
X35611993Y3177477D01*
X35624885Y3264393D01*
X35646230Y3349608D01*
X35675830Y3432330D01*
X35713390Y3511747D01*
X35758555Y3587100D01*
X35810889Y3657664D01*
X35869891Y3722763D01*
X35934990Y3781765D01*
X36005554Y3834099D01*
X36080907Y3879264D01*
X36160324Y3916824D01*
X36243046Y3946424D01*
X36328261Y3967769D01*
X36415177Y3980661D01*
X36502917Y3984973D01*
X36590657Y3980661D01*
X36677573Y3967769D01*
X36762788Y3946424D01*
X36845510Y3916824D01*
X36924927Y3879264D01*
X37000280Y3834099D01*
X37070844Y3781765D01*
X37135943Y3722763D01*
X37194945Y3657664D01*
X37247279Y3587100D01*
X37292444Y3511747D01*
X37330004Y3432330D01*
X37359604Y3349608D01*
X37380949Y3264393D01*
X37393841Y3177477D01*
X37398153Y3089737D01*
X37393841Y3001997D01*
X37380949Y2915081D01*
X37359604Y2829866D01*
X37330004Y2747144D01*
X37292444Y2667727D01*
X37247279Y2592374D01*
X37194945Y2521810D01*
X37135943Y2456711D01*
X37070844Y2397709D01*
X37000280Y2345375D01*
X36924927Y2300210D01*
X36845510Y2262650D01*
X36762788Y2233050D01*
X36677573Y2211705D01*
X36590657Y2198813D01*
X36502917Y2194501D01*
D02*
G37*
%LPC*%
G36*
X40502917Y2194501D02*
X40415177Y2198813D01*
X40328261Y2211705D01*
X40243046Y2233050D01*
X40160324Y2262650D01*
X40080907Y2300210D01*
X40005554Y2345375D01*
X39934990Y2397709D01*
X39869891Y2456711D01*
X39810889Y2521810D01*
X39758555Y2592374D01*
X39713390Y2667727D01*
X39675830Y2747144D01*
X39646230Y2829866D01*
X39624885Y2915081D01*
X39611993Y3001997D01*
X39607681Y3089737D01*
X39611993Y3177477D01*
X39624885Y3264393D01*
X39646230Y3349608D01*
X39675830Y3432330D01*
X39713390Y3511747D01*
X39758555Y3587100D01*
X39810889Y3657664D01*
X39869891Y3722763D01*
X39934990Y3781765D01*
X40005554Y3834099D01*
X40080907Y3879264D01*
X40160324Y3916824D01*
X40243046Y3946424D01*
X40328261Y3967769D01*
X40415177Y3980661D01*
X40502917Y3984973D01*
X40590657Y3980661D01*
X40677573Y3967769D01*
X40762788Y3946424D01*
X40845510Y3916824D01*
X40924927Y3879264D01*
X41000280Y3834099D01*
X41070844Y3781765D01*
X41135943Y3722763D01*
X41194945Y3657664D01*
X41247279Y3587100D01*
X41292444Y3511747D01*
X41330004Y3432330D01*
X41359604Y3349608D01*
X41380949Y3264393D01*
X41393841Y3177477D01*
X41398153Y3089737D01*
X41393841Y3001997D01*
X41380949Y2915081D01*
X41359604Y2829866D01*
X41330004Y2747144D01*
X41292444Y2667727D01*
X41247279Y2592374D01*
X41194945Y2521810D01*
X41135943Y2456711D01*
X41070844Y2397709D01*
X41000280Y2345375D01*
X40924927Y2300210D01*
X40845510Y2262650D01*
X40762788Y2233050D01*
X40677573Y2211705D01*
X40590657Y2198813D01*
X40502917Y2194501D01*
D02*
G37*
%LPD*%
G01*
%LPD*%
G75*
D10*
X54477083Y6541263D03*
D10*
X52477083Y6541263D03*
D11*
X36055000Y31405000D03*
D12*
X30975000Y37855000D03*
D12*
X33515000Y40395000D03*
D12*
X36055000Y37855000D03*
D13*
X53500000Y52500000D03*
D13*
X48420000Y52500000D03*
D13*
X58580000Y52500000D03*
D11*
X26940000Y31405000D03*
D12*
X21860000Y37855000D03*
D12*
X24400000Y40395000D03*
D12*
X26940000Y37855000D03*
D14*
X24502917Y3089737D03*
D14*
X38502917Y3089737D03*
D14*
X30502917Y3089737D03*
D14*
X28502917Y3089737D03*
D14*
X22502917Y3089737D03*
D14*
X36502917Y3089737D03*
D14*
X26502917Y3089737D03*
D14*
X32502917Y3089737D03*
D14*
X34502917Y3089737D03*
D14*
X40502917Y3089737D03*
D15*
X4500000Y62500000D03*
D15*
X14500000Y62500000D03*
D15*
X9500000Y62500000D03*
D10*
X10477083Y6541263D03*
D10*
X8477083Y6541263D03*
D15*
X48500000Y62500000D03*
D15*
X58500000Y62500000D03*
D15*
X53500000Y62500000D03*
D15*
X4500000Y36500000D03*
D15*
X14500000Y36500000D03*
D15*
X9500000Y36500000D03*
D16*
X46750000Y39000000D03*
D17*
X1000000Y26200000D03*
D17*
X62000000Y64600000D03*
D17*
X54375000Y71000000D03*
D17*
X46750000Y1000000D03*
D16*
X12770000Y49080000D03*
D16*
X39125000Y39000000D03*
D16*
X39125000Y26200000D03*
D16*
X39125000Y13400000D03*
D16*
X36440000Y16400000D03*
D16*
X34000000Y14660000D03*
D16*
X23875000Y13400000D03*
D16*
X16250000Y19800000D03*
D17*
X1000000Y51800000D03*
D17*
X1000000Y32600000D03*
D16*
X8625000Y64600000D03*
D16*
X47720000Y34555000D03*
D17*
X62000000Y13400000D03*
D16*
X31500000Y58200000D03*
D16*
X8625000Y32600000D03*
D16*
X8625000Y39000000D03*
D17*
X46750000Y71000000D03*
D17*
X62000000Y51800000D03*
D16*
X16250000Y58200000D03*
D16*
X54375000Y45400000D03*
D17*
X62000000Y1000000D03*
D17*
X8625000Y71000000D03*
D16*
X16250000Y26200000D03*
D16*
X46750000Y45400000D03*
D16*
X22000000Y61200000D03*
D16*
X39125000Y19800000D03*
D16*
X39125000Y58200000D03*
D16*
X55130000Y28238068D03*
D16*
X39125000Y64600000D03*
D16*
X50020000Y48400000D03*
D17*
X1000000Y19800000D03*
D17*
X62000000Y7000000D03*
D18*
X25240000Y45789996D03*
D17*
X16250000Y1000000D03*
D16*
X36060000Y55330000D03*
D16*
X16250000Y7000000D03*
D17*
X62000000Y32600000D03*
D17*
X31500000Y1000000D03*
D16*
X46750000Y19800000D03*
D16*
X23875000Y32600000D03*
D17*
X62000000Y45400000D03*
D16*
X54375000Y58200000D03*
D17*
X1000000Y71000000D03*
D16*
X46750000Y64600000D03*
D16*
X16250000Y13400000D03*
D16*
X31500000Y64600000D03*
D16*
X46750000Y13400000D03*
D17*
X39125000Y71000000D03*
D18*
X47120000Y36485000D03*
D16*
X24075000Y51800000D03*
D17*
X62000000Y19800000D03*
D17*
X31500000Y71000000D03*
D16*
X34000000Y18140000D03*
D17*
X62000000Y26200000D03*
D16*
X8625000Y13400000D03*
D16*
X39125000Y7000000D03*
D16*
X10880000Y49080000D03*
D17*
X62000000Y39000000D03*
D18*
X55000000Y36455000D03*
D16*
X39125000Y51800000D03*
D16*
X8625000Y19800000D03*
D16*
X28730000Y48950000D03*
D17*
X62000000Y58200000D03*
D17*
X1000000Y1000000D03*
D17*
X8625000Y1000000D03*
D17*
X1000000Y7000000D03*
D17*
X1000000Y45400000D03*
D16*
X54375000Y26200000D03*
D16*
X23875000Y7000000D03*
D17*
X1000000Y58200000D03*
D17*
X23875000Y71000000D03*
D18*
X18980000Y46380000D03*
D16*
X45750000Y26200000D03*
D16*
X31500000Y26200000D03*
D17*
X54375000Y1000000D03*
D17*
X23875000Y1000000D03*
D16*
X5180000Y49080000D03*
D16*
X54375000Y13400000D03*
D16*
X16250000Y64600000D03*
D16*
X23875000Y26200000D03*
D17*
X1000000Y39000000D03*
D16*
X46750000Y58200000D03*
D16*
X31500000Y51800000D03*
D16*
X16250000Y39000000D03*
D17*
X1000000Y13400000D03*
D16*
X16250000Y32600000D03*
D16*
X46450000Y51800000D03*
D17*
X16250000Y71000000D03*
D16*
X54375000Y64600000D03*
D16*
X8625000Y26200000D03*
D18*
X29000000Y19100000D03*
D16*
X23875000Y64600000D03*
D16*
X45750000Y32600000D03*
D16*
X6300000Y54440000D03*
D16*
X23875000Y19800000D03*
D17*
X39125000Y1000000D03*
D16*
X56980000Y48400000D03*
D16*
X39125000Y32600000D03*
D16*
X16250000Y51630000D03*
D17*
X62000000Y71000000D03*
D16*
X39125000Y45400000D03*
D16*
X23875000Y58200000D03*
D16*
X54375000Y19800000D03*
D16*
X50950000Y32505000D03*
D17*
X1000000Y64600000D03*
M02*
