%FSLAX46Y46*%
%MOMM*%
%AMPS23*
1,1,2.300000,0.000000,0.000000*
%
%ADD23PS23*%
%AMPS13*
1,1,1.500000,0.000000,0.000000*
%
%ADD13PS13*%
%AMPS29*
1,1,1.900000,0.000000,0.000000*
%
%ADD29PS29*%
%AMPS28*
1,1,1.900000,0.000000,0.000000*
%
%ADD28PS28*%
%AMPS16*
1,1,2.400000,0.000000,0.000000*
%
%ADD16PS16*%
%AMPS22*
21,1,1.100000,1.200000,0.000000,0.000000,0.000000*
%
%ADD22PS22*%
%AMPS34*
21,1,1.100000,1.200000,0.000000,0.000000,90.000000*
%
%ADD34PS34*%
%AMPS21*
21,1,1.100000,1.200000,0.000000,0.000000,180.000000*
%
%ADD21PS21*%
%AMPS35*
21,1,1.100000,1.200000,0.000000,0.000000,270.000000*
%
%ADD35PS35*%
%AMPS25*
21,1,1.800000,3.400000,0.000000,0.000000,90.000000*
%
%ADD25PS25*%
%AMPS24*
21,1,1.800000,3.400000,0.000000,0.000000,270.000000*
%
%ADD24PS24*%
%AMPS27*
21,1,1.700000,3.000000,0.000000,0.000000,0.000000*
%
%ADD27PS27*%
%AMPS18*
21,1,1.700000,3.000000,0.000000,0.000000,90.000000*
%
%ADD18PS18*%
%AMPS26*
21,1,1.700000,3.000000,0.000000,0.000000,180.000000*
%
%ADD26PS26*%
%AMPS17*
21,1,1.700000,3.000000,0.000000,0.000000,270.000000*
%
%ADD17PS17*%
%AMPS30*
21,1,0.900000,1.100000,0.000000,0.000000,0.000000*
%
%ADD30PS30*%
%AMPS31*
21,1,0.900000,1.100000,0.000000,0.000000,180.000000*
%
%ADD31PS31*%
%AMPS20*
21,1,2.000000,1.300000,0.000000,0.000000,0.000000*
%
%ADD20PS20*%
%AMPS32*
21,1,2.000000,1.300000,0.000000,0.000000,90.000000*
%
%ADD32PS32*%
%AMPS19*
21,1,2.000000,1.300000,0.000000,0.000000,180.000000*
%
%ADD19PS19*%
%AMPS33*
21,1,2.000000,1.300000,0.000000,0.000000,270.000000*
%
%ADD33PS33*%
%AMPS10*
21,1,1.200000,1.100000,0.000000,0.000000,0.000000*
%
%ADD10PS10*%
%AMPS14*
21,1,1.200000,1.100000,0.000000,0.000000,90.000000*
%
%ADD14PS14*%
%AMPS11*
21,1,1.200000,1.100000,0.000000,0.000000,180.000000*
%
%ADD11PS11*%
%AMPS15*
21,1,1.200000,1.100000,0.000000,0.000000,270.000000*
%
%ADD15PS15*%
%AMPS37*
1,1,1.200000,0.000000,0.000000*
%
%ADD37PS37*%
%AMPS36*
1,1,0.550000,0.000000,0.000000*
%
%ADD36PS36*%
%AMPS12*
21,1,2.200000,2.200000,0.000000,0.000000,0.000000*
%
%ADD12PS12*%
G01*
%LPD*%
G01*
%LPD*%
G75*
D10*
X8950000Y46180000D03*
D11*
X8950000Y47780000D03*
D12*
X36055000Y31405000D03*
D13*
X30975000Y37855000D03*
D13*
X33515000Y40395000D03*
D13*
X36055000Y37855000D03*
D14*
X50620000Y36485000D03*
D15*
X49020000Y36485000D03*
D14*
X16250000Y50330000D03*
D15*
X14650000Y50330000D03*
D16*
X53500000Y52500000D03*
D16*
X48420000Y52500000D03*
D16*
X58580000Y52500000D03*
D12*
X26940000Y31405000D03*
D11*
X10880000Y47780000D03*
D10*
X10880000Y46180000D03*
D17*
X50620000Y41005000D03*
D18*
X55319998Y41005000D03*
D19*
X18980000Y51380000D03*
D20*
X18980000Y48380000D03*
D13*
X21860000Y37855000D03*
D13*
X24400000Y40395000D03*
D13*
X26940000Y37855000D03*
D21*
X14650000Y48380000D03*
D22*
X15600000Y46180000D03*
D21*
X16550000Y48380000D03*
D11*
X5180000Y47780000D03*
D10*
X5180000Y46180000D03*
D17*
X28510000Y45789996D03*
D18*
X33209998Y45789996D03*
D15*
X49020000Y34555000D03*
D14*
X50620000Y34555000D03*
D23*
X4500000Y62500000D03*
D23*
X14500000Y62500000D03*
D23*
X9500000Y62500000D03*
D14*
X22000000Y62500000D03*
D15*
X20400000Y62500000D03*
D15*
X52250000Y30575000D03*
D14*
X53850000Y30575000D03*
D15*
X52250000Y32505000D03*
D14*
X53850000Y32505000D03*
D24*
X29000000Y16400000D03*
D25*
X34000000Y16400000D03*
D24*
X6300000Y52800000D03*
D25*
X11300000Y52800000D03*
D10*
X7060000Y46180000D03*
D11*
X7060000Y47780000D03*
D26*
X47870000Y31179999D03*
D27*
X47870000Y26480001D03*
D28*
X54727083Y7691263D03*
D28*
X52227083Y7691263D03*
D23*
X48500000Y62500000D03*
D23*
X58500000Y62500000D03*
D23*
X53500000Y62500000D03*
D25*
X33620000Y55330000D03*
D24*
X28620000Y55330000D03*
D29*
X20249000Y3240000D03*
D29*
X37749000Y3240000D03*
D29*
X35249000Y3240000D03*
D29*
X32749000Y3240000D03*
D29*
X27749000Y3240000D03*
D29*
X42749000Y3240000D03*
D29*
X22749000Y3240000D03*
D29*
X25249000Y3240000D03*
D29*
X40249000Y3240000D03*
D29*
X30249000Y3240000D03*
D14*
X53836500Y28645000D03*
D15*
X52236500Y28645000D03*
D23*
X4500000Y36500000D03*
D23*
X14500000Y36500000D03*
D23*
X9500000Y36500000D03*
D30*
X52550000Y34555000D03*
D30*
X53850000Y34555000D03*
D31*
X53200000Y36455000D03*
D32*
X32000000Y10800000D03*
D33*
X29000000Y10800000D03*
D14*
X28730000Y50250000D03*
D15*
X27130000Y50250000D03*
D28*
X10727083Y7691263D03*
D28*
X8227083Y7691263D03*
D14*
X50020000Y47100000D03*
D15*
X48420000Y47100000D03*
D15*
X56980000Y47100000D03*
D14*
X58580000Y47100000D03*
D34*
X25240000Y50250000D03*
D35*
X23040000Y49300000D03*
D34*
X25240000Y48350000D03*
D11*
X12770000Y47780000D03*
D10*
X12770000Y46180000D03*
D36*
X1000000Y26200000D03*
D36*
X62000000Y64600000D03*
D36*
X54375000Y71000000D03*
D36*
X46750000Y1000000D03*
D36*
X1000000Y51800000D03*
D36*
X1000000Y32600000D03*
D36*
X62000000Y13400000D03*
D36*
X46750000Y71000000D03*
D36*
X62000000Y51800000D03*
D36*
X62000000Y1000000D03*
D36*
X8625000Y71000000D03*
D36*
X1000000Y19800000D03*
D36*
X62000000Y7000000D03*
D37*
X25240000Y45789996D03*
D36*
X16250000Y1000000D03*
D36*
X62000000Y32600000D03*
D36*
X31500000Y1000000D03*
D36*
X62000000Y45400000D03*
D36*
X1000000Y71000000D03*
D36*
X39125000Y71000000D03*
D37*
X47120000Y36485000D03*
D36*
X62000000Y19800000D03*
D36*
X31500000Y71000000D03*
D36*
X62000000Y26200000D03*
D36*
X62000000Y39000000D03*
D37*
X55000000Y36455000D03*
D36*
X62000000Y58200000D03*
D36*
X1000000Y1000000D03*
D36*
X8625000Y1000000D03*
D36*
X1000000Y7000000D03*
D36*
X1000000Y45400000D03*
D36*
X1000000Y58200000D03*
D36*
X23875000Y71000000D03*
D37*
X18980000Y46380000D03*
D36*
X54375000Y1000000D03*
D36*
X23875000Y1000000D03*
D36*
X1000000Y39000000D03*
D36*
X1000000Y13400000D03*
D36*
X16250000Y71000000D03*
D37*
X29000000Y19100000D03*
D36*
X39125000Y1000000D03*
D36*
X62000000Y71000000D03*
D36*
X1000000Y64600000D03*
M02*
