%FSLAX46Y46*%
%MOMM*%
%AMPS13*
1,1,2.300000,0.000000,0.000000*
%
%ADD13PS13*%
%AMPS11*
1,1,1.500000,0.000000,0.000000*
%
%ADD11PS11*%
%AMPS15*
1,1,1.900000,0.000000,0.000000*
%
%ADD15PS15*%
%AMPS14*
1,1,1.900000,0.000000,0.000000*
%
%ADD14PS14*%
%AMPS12*
1,1,2.400000,0.000000,0.000000*
%
%ADD12PS12*%
%AMPS17*
1,1,1.200000,0.000000,0.000000*
%
%ADD17PS17*%
%AMPS16*
1,1,0.550000,0.000000,0.000000*
%
%ADD16PS16*%
%AMPS10*
21,1,2.200000,2.200000,0.000000,0.000000,0.000000*
%
%ADD10PS10*%
G01*
%LPD*%
G01*
%LPD*%
G75*
D10*
X36055000Y31405000D03*
D11*
X30975000Y37855000D03*
D11*
X33515000Y40395000D03*
D11*
X36055000Y37855000D03*
D12*
X53500000Y52500000D03*
D12*
X48420000Y52500000D03*
D12*
X58580000Y52500000D03*
D10*
X26940000Y31405000D03*
D11*
X21860000Y37855000D03*
D11*
X24400000Y40395000D03*
D11*
X26940000Y37855000D03*
D13*
X4500000Y62500000D03*
D13*
X14500000Y62500000D03*
D13*
X9500000Y62500000D03*
D14*
X54727083Y7691263D03*
D14*
X52227083Y7691263D03*
D13*
X48500000Y62500000D03*
D13*
X58500000Y62500000D03*
D13*
X53500000Y62500000D03*
D15*
X20249000Y3240000D03*
D15*
X37749000Y3240000D03*
D15*
X35249000Y3240000D03*
D15*
X32749000Y3240000D03*
D15*
X27749000Y3240000D03*
D15*
X42749000Y3240000D03*
D15*
X22749000Y3240000D03*
D15*
X25249000Y3240000D03*
D15*
X40249000Y3240000D03*
D15*
X30249000Y3240000D03*
D13*
X4500000Y36500000D03*
D13*
X14500000Y36500000D03*
D13*
X9500000Y36500000D03*
D14*
X10727083Y7691263D03*
D14*
X8227083Y7691263D03*
D16*
X1000000Y26200000D03*
D16*
X62000000Y64600000D03*
D16*
X54375000Y71000000D03*
D16*
X46750000Y1000000D03*
D16*
X1000000Y51800000D03*
D16*
X1000000Y32600000D03*
D16*
X62000000Y13400000D03*
D16*
X46750000Y71000000D03*
D16*
X62000000Y51800000D03*
D16*
X62000000Y1000000D03*
D16*
X8625000Y71000000D03*
D16*
X1000000Y19800000D03*
D16*
X62000000Y7000000D03*
D17*
X25240000Y45789996D03*
D16*
X16250000Y1000000D03*
D16*
X62000000Y32600000D03*
D16*
X31500000Y1000000D03*
D16*
X62000000Y45400000D03*
D16*
X1000000Y71000000D03*
D16*
X39125000Y71000000D03*
D17*
X47120000Y36485000D03*
D16*
X62000000Y19800000D03*
D16*
X31500000Y71000000D03*
D16*
X62000000Y26200000D03*
D16*
X62000000Y39000000D03*
D17*
X55000000Y36455000D03*
D16*
X62000000Y58200000D03*
D16*
X1000000Y1000000D03*
D16*
X8625000Y1000000D03*
D16*
X1000000Y7000000D03*
D16*
X1000000Y45400000D03*
D16*
X1000000Y58200000D03*
D16*
X23875000Y71000000D03*
D17*
X18980000Y46380000D03*
D16*
X54375000Y1000000D03*
D16*
X23875000Y1000000D03*
D16*
X1000000Y39000000D03*
D16*
X1000000Y13400000D03*
D16*
X16250000Y71000000D03*
D17*
X29000000Y19100000D03*
D16*
X39125000Y1000000D03*
D16*
X62000000Y71000000D03*
D16*
X1000000Y64600000D03*
M02*
