%FSLAX46Y46*%
%MOMM*%
%ADD10C,0.300000*%
%ADD11C,0.550000*%
%ADD12C,0.800000*%
%AMPS26*
1,1,2.100000,0.000000,0.000000*
%
%ADD26PS26*%
%AMPS16*
1,1,1.300000,0.000000,0.000000*
%
%ADD16PS16*%
%AMPS32*
1,1,1.700000,0.000000,0.000000*
%
%ADD32PS32*%
%AMPS31*
1,1,1.700000,0.000000,0.000000*
%
%ADD31PS31*%
%AMPS19*
1,1,2.200000,0.000000,0.000000*
%
%ADD19PS19*%
%AMPS25*
21,1,0.900000,1.000000,0.000000,0.000000,0.000000*
%
%ADD25PS25*%
%AMPS37*
21,1,0.900000,1.000000,0.000000,0.000000,90.000000*
%
%ADD37PS37*%
%AMPS24*
21,1,0.900000,1.000000,0.000000,0.000000,180.000000*
%
%ADD24PS24*%
%AMPS38*
21,1,0.900000,1.000000,0.000000,0.000000,270.000000*
%
%ADD38PS38*%
%AMPS28*
21,1,1.600000,3.200000,0.000000,0.000000,90.000000*
%
%ADD28PS28*%
%AMPS27*
21,1,1.600000,3.200000,0.000000,0.000000,270.000000*
%
%ADD27PS27*%
%AMPS30*
21,1,1.500000,2.800000,0.000000,0.000000,0.000000*
%
%ADD30PS30*%
%AMPS21*
21,1,1.500000,2.800000,0.000000,0.000000,90.000000*
%
%ADD21PS21*%
%AMPS29*
21,1,1.500000,2.800000,0.000000,0.000000,180.000000*
%
%ADD29PS29*%
%AMPS20*
21,1,1.500000,2.800000,0.000000,0.000000,270.000000*
%
%ADD20PS20*%
%AMPS33*
21,1,0.700000,0.900000,0.000000,0.000000,0.000000*
%
%ADD33PS33*%
%AMPS34*
21,1,0.700000,0.900000,0.000000,0.000000,180.000000*
%
%ADD34PS34*%
%AMPS23*
21,1,1.800000,1.100000,0.000000,0.000000,0.000000*
%
%ADD23PS23*%
%AMPS35*
21,1,1.800000,1.100000,0.000000,0.000000,90.000000*
%
%ADD35PS35*%
%AMPS22*
21,1,1.800000,1.100000,0.000000,0.000000,180.000000*
%
%ADD22PS22*%
%AMPS36*
21,1,1.800000,1.100000,0.000000,0.000000,270.000000*
%
%ADD36PS36*%
%AMPS13*
21,1,1.000000,0.900000,0.000000,0.000000,0.000000*
%
%ADD13PS13*%
%AMPS17*
21,1,1.000000,0.900000,0.000000,0.000000,90.000000*
%
%ADD17PS17*%
%AMPS14*
21,1,1.000000,0.900000,0.000000,0.000000,180.000000*
%
%ADD14PS14*%
%AMPS18*
21,1,1.000000,0.900000,0.000000,0.000000,270.000000*
%
%ADD18PS18*%
%AMPS41*
1,1,1.400000,0.000000,0.000000*
%
%ADD41PS41*%
%AMPS40*
1,1,0.700000,0.000000,0.000000*
%
%ADD40PS40*%
%AMPS39*
1,1,0.700000,0.000000,0.000000*
%
%ADD39PS39*%
%AMPS15*
21,1,2.000000,2.000000,0.000000,0.000000,0.000000*
%
%ADD15PS15*%
G01*
%LPD*%
G36*
X62640000Y360000D02*
X62640000Y71640000D01*
X360000Y71640000D01*
X360000Y360000D01*
X62640000Y360000D01*
D02*
G37*
%LPC*%
G36*
X20085000Y50625000D02*
X17875000Y50625000D01*
X17875000Y51982954D01*
X13512953Y56345000D01*
X10289935Y56345000D01*
X10230548Y56350849D01*
X10163770Y56371106D01*
X10102223Y56404003D01*
X10048155Y56448372D01*
X10041738Y56456215D01*
X5100724Y61397229D01*
X4980360Y61340302D01*
X4864378Y61298803D01*
X4744892Y61268874D01*
X4623027Y61250798D01*
X4500000Y61244752D01*
X4376973Y61250798D01*
X4255108Y61268874D01*
X4135622Y61298803D01*
X4019640Y61340302D01*
X3908282Y61392970D01*
X3802623Y61456300D01*
X3703681Y61529681D01*
X3612406Y61612406D01*
X3529681Y61703681D01*
X3456300Y61802623D01*
X3392970Y61908282D01*
X3340302Y62019640D01*
X3298803Y62135622D01*
X3268874Y62255108D01*
X3250798Y62376973D01*
X3244752Y62500000D01*
X3250798Y62623027D01*
X3268874Y62744892D01*
X3298803Y62864378D01*
X3340302Y62980360D01*
X3392970Y63091718D01*
X3456300Y63197377D01*
X3529681Y63296319D01*
X3612406Y63387594D01*
X3703681Y63470319D01*
X3802623Y63543700D01*
X3908282Y63607030D01*
X4019640Y63659698D01*
X4135622Y63701197D01*
X4255108Y63731126D01*
X4376973Y63749202D01*
X4500000Y63755248D01*
X4623027Y63749202D01*
X4744892Y63731126D01*
X4864378Y63701197D01*
X4980360Y63659698D01*
X5091718Y63607030D01*
X5197377Y63543700D01*
X5296319Y63470319D01*
X5387594Y63387594D01*
X5470319Y63296319D01*
X5543700Y63197377D01*
X5607030Y63091718D01*
X5659698Y62980360D01*
X5701197Y62864378D01*
X5731126Y62744892D01*
X5749202Y62623027D01*
X5755248Y62500000D01*
X5749202Y62376973D01*
X5731126Y62255108D01*
X5701197Y62135622D01*
X5659698Y62019640D01*
X5602771Y61899276D01*
X10447047Y57055000D01*
X13670077Y57055000D01*
X13729451Y57049151D01*
X13796229Y57028893D01*
X13857776Y56995996D01*
X13903897Y56958148D01*
X18727046Y52135000D01*
X20085000Y52135000D01*
X20085000Y50625000D01*
D02*
G37*
%LPC*%
G36*
X23745000Y48645000D02*
X22335000Y48645000D01*
X22335000Y49955000D01*
X22669989Y49955000D01*
X22669989Y53227964D01*
X16652953Y59245000D01*
X12389935Y59245000D01*
X12330548Y59250849D01*
X12263770Y59271106D01*
X12202223Y59304003D01*
X12148155Y59348372D01*
X12141738Y59356215D01*
X10100724Y61397229D01*
X9980360Y61340302D01*
X9864378Y61298803D01*
X9744892Y61268874D01*
X9623027Y61250798D01*
X9500000Y61244752D01*
X9376973Y61250798D01*
X9255108Y61268874D01*
X9135622Y61298803D01*
X9019640Y61340302D01*
X8908282Y61392970D01*
X8802623Y61456300D01*
X8703681Y61529681D01*
X8612406Y61612406D01*
X8529681Y61703681D01*
X8456300Y61802623D01*
X8392970Y61908282D01*
X8340302Y62019640D01*
X8298803Y62135622D01*
X8268874Y62255108D01*
X8250798Y62376973D01*
X8244752Y62500000D01*
X8250798Y62623027D01*
X8268874Y62744892D01*
X8298803Y62864378D01*
X8340302Y62980360D01*
X8392970Y63091718D01*
X8456300Y63197377D01*
X8529681Y63296319D01*
X8612406Y63387594D01*
X8703681Y63470319D01*
X8802623Y63543700D01*
X8908282Y63607030D01*
X9019640Y63659698D01*
X9135622Y63701197D01*
X9255108Y63731126D01*
X9376973Y63749202D01*
X9500000Y63755248D01*
X9623027Y63749202D01*
X9744892Y63731126D01*
X9864378Y63701197D01*
X9980360Y63659698D01*
X10091718Y63607030D01*
X10197377Y63543700D01*
X10296319Y63470319D01*
X10387594Y63387594D01*
X10470319Y63296319D01*
X10543700Y63197377D01*
X10607030Y63091718D01*
X10659698Y62980360D01*
X10701197Y62864378D01*
X10731126Y62744892D01*
X10749202Y62623027D01*
X10755248Y62500000D01*
X10749202Y62376973D01*
X10731126Y62255108D01*
X10701197Y62135622D01*
X10659698Y62019640D01*
X10602771Y61899276D01*
X12547047Y59955000D01*
X16810077Y59955000D01*
X16869451Y59949151D01*
X16936229Y59928893D01*
X16997776Y59895996D01*
X17043897Y59858148D01*
X23283137Y53618908D01*
X23320985Y53572787D01*
X23353882Y53511240D01*
X23374140Y53444462D01*
X23379989Y53385088D01*
X23379989Y49955000D01*
X23745000Y49955000D01*
X23745000Y48645000D01*
D02*
G37*
%LPC*%
G36*
X14500000Y61244752D02*
X14376973Y61250798D01*
X14255108Y61268874D01*
X14135622Y61298803D01*
X14019640Y61340302D01*
X13908282Y61392970D01*
X13802623Y61456300D01*
X13703681Y61529681D01*
X13612406Y61612406D01*
X13529681Y61703681D01*
X13456300Y61802623D01*
X13392970Y61908282D01*
X13340302Y62019640D01*
X13298803Y62135622D01*
X13268874Y62255108D01*
X13250798Y62376973D01*
X13244752Y62500000D01*
X13250798Y62623027D01*
X13268874Y62744892D01*
X13298803Y62864378D01*
X13340302Y62980360D01*
X13392970Y63091718D01*
X13456300Y63197377D01*
X13529681Y63296319D01*
X13612406Y63387594D01*
X13703681Y63470319D01*
X13802623Y63543700D01*
X13908282Y63607030D01*
X14019640Y63659698D01*
X14135622Y63701197D01*
X14255108Y63731126D01*
X14376973Y63749202D01*
X14500000Y63755248D01*
X14623027Y63749202D01*
X14744892Y63731126D01*
X14864378Y63701197D01*
X14980360Y63659698D01*
X15091718Y63607030D01*
X15197377Y63543700D01*
X15296319Y63470319D01*
X15387594Y63387594D01*
X15470319Y63296319D01*
X15543700Y63197377D01*
X15607030Y63091718D01*
X15659698Y62980360D01*
X15704552Y62855000D01*
X19745000Y62855000D01*
X19745000Y63205000D01*
X21055000Y63205000D01*
X21055000Y61795000D01*
X19745000Y61795000D01*
X19745000Y62145000D01*
X15704552Y62145000D01*
X15659698Y62019640D01*
X15607030Y61908282D01*
X15543700Y61802623D01*
X15470319Y61703681D01*
X15387594Y61612406D01*
X15296319Y61529681D01*
X15197377Y61456300D01*
X15091718Y61392970D01*
X14980360Y61340302D01*
X14864378Y61298803D01*
X14744892Y61268874D01*
X14623027Y61250798D01*
X14500000Y61244752D01*
D02*
G37*
%LPC*%
G36*
X56924998Y40050000D02*
X53714998Y40050000D01*
X53714998Y41960000D01*
X56457953Y41960000D01*
X60555000Y46057047D01*
X60555000Y54942953D01*
X54100724Y61397229D01*
X53980360Y61340302D01*
X53864378Y61298803D01*
X53744892Y61268874D01*
X53623027Y61250798D01*
X53500000Y61244752D01*
X53376973Y61250798D01*
X53255108Y61268874D01*
X53135622Y61298803D01*
X53019640Y61340302D01*
X52908282Y61392970D01*
X52802623Y61456300D01*
X52703681Y61529681D01*
X52612406Y61612406D01*
X52529681Y61703681D01*
X52456300Y61802623D01*
X52392970Y61908282D01*
X52340302Y62019640D01*
X52298803Y62135622D01*
X52268874Y62255108D01*
X52250798Y62376973D01*
X52244752Y62500000D01*
X52250798Y62623027D01*
X52268874Y62744892D01*
X52298803Y62864378D01*
X52340302Y62980360D01*
X52392970Y63091718D01*
X52456300Y63197377D01*
X52529681Y63296319D01*
X52612406Y63387594D01*
X52703681Y63470319D01*
X52802623Y63543700D01*
X52908282Y63607030D01*
X53019640Y63659698D01*
X53135622Y63701197D01*
X53255108Y63731126D01*
X53376973Y63749202D01*
X53500000Y63755248D01*
X53623027Y63749202D01*
X53744892Y63731126D01*
X53864378Y63701197D01*
X53980360Y63659698D01*
X54091718Y63607030D01*
X54197377Y63543700D01*
X54296319Y63470319D01*
X54387594Y63387594D01*
X54470319Y63296319D01*
X54543700Y63197377D01*
X54607030Y63091718D01*
X54659698Y62980360D01*
X54701197Y62864378D01*
X54731126Y62744892D01*
X54749202Y62623027D01*
X54755248Y62500000D01*
X54749202Y62376973D01*
X54731126Y62255108D01*
X54701197Y62135622D01*
X54659699Y62019644D01*
X54602771Y61899275D01*
X61168148Y55333897D01*
X61205996Y55287776D01*
X61238893Y55226229D01*
X61259151Y55159451D01*
X61265000Y55100077D01*
X61265000Y45899923D01*
X61259151Y45840548D01*
X61238893Y45773770D01*
X61205996Y45712222D01*
X61162220Y45658877D01*
X61154448Y45652401D01*
X56924998Y41422951D01*
X56924998Y40050000D01*
D02*
G37*
%LPC*%
G36*
X49810066Y43845000D02*
X43889935Y43845000D01*
X43830548Y43850849D01*
X43763770Y43871106D01*
X43702223Y43904003D01*
X43648157Y43948371D01*
X43641740Y43956214D01*
X41572953Y46025000D01*
X34814998Y46025000D01*
X34814998Y44834996D01*
X31604998Y44834996D01*
X31604998Y46744996D01*
X34814998Y46744996D01*
X34814998Y46735000D01*
X41730077Y46735000D01*
X41789451Y46729151D01*
X41856229Y46708893D01*
X41917776Y46675996D01*
X41963897Y46638148D01*
X44047047Y44555000D01*
X49652953Y44555000D01*
X53145000Y48047047D01*
X53145000Y51242408D01*
X53000506Y51294108D01*
X52884712Y51348874D01*
X52774844Y51414727D01*
X52671961Y51491031D01*
X52577051Y51577051D01*
X52491031Y51671961D01*
X52414727Y51774844D01*
X52348874Y51884712D01*
X52294108Y52000506D01*
X52250956Y52121107D01*
X52219835Y52245352D01*
X52201039Y52372063D01*
X52194753Y52500000D01*
X52201039Y52627937D01*
X52219835Y52754648D01*
X52250956Y52878893D01*
X52294108Y52999494D01*
X52359724Y53138229D01*
X48256215Y57241738D01*
X48248372Y57248155D01*
X48204003Y57302223D01*
X48171106Y57363770D01*
X48150849Y57430548D01*
X48145000Y57489935D01*
X48145000Y61295448D01*
X48019640Y61340302D01*
X47908282Y61392970D01*
X47802623Y61456300D01*
X47703681Y61529681D01*
X47612406Y61612406D01*
X47529681Y61703681D01*
X47456300Y61802623D01*
X47392970Y61908282D01*
X47340302Y62019640D01*
X47298803Y62135622D01*
X47268874Y62255108D01*
X47250798Y62376973D01*
X47244752Y62500000D01*
X47250798Y62623027D01*
X47268874Y62744892D01*
X47298803Y62864378D01*
X47340302Y62980360D01*
X47392970Y63091718D01*
X47456300Y63197377D01*
X47529681Y63296319D01*
X47612406Y63387594D01*
X47703681Y63470319D01*
X47802623Y63543700D01*
X47908282Y63607030D01*
X48019640Y63659698D01*
X48135622Y63701197D01*
X48255108Y63731126D01*
X48376973Y63749202D01*
X48500000Y63755248D01*
X48623027Y63749202D01*
X48744892Y63731126D01*
X48864378Y63701197D01*
X48980360Y63659698D01*
X49091718Y63607030D01*
X49197377Y63543700D01*
X49296319Y63470319D01*
X49387594Y63387594D01*
X49470319Y63296319D01*
X49543700Y63197377D01*
X49607030Y63091718D01*
X49659698Y62980360D01*
X49701197Y62864378D01*
X49731126Y62744892D01*
X49749202Y62623027D01*
X49755248Y62500000D01*
X49749202Y62376973D01*
X49731126Y62255108D01*
X49701197Y62135622D01*
X49659698Y62019640D01*
X49607030Y61908282D01*
X49543700Y61802623D01*
X49470319Y61703681D01*
X49387594Y61612406D01*
X49296319Y61529681D01*
X49197377Y61456300D01*
X49091718Y61392970D01*
X48980360Y61340302D01*
X48855000Y61295448D01*
X48855000Y57647047D01*
X52861770Y53640276D01*
X53000506Y53705892D01*
X53121107Y53749044D01*
X53245352Y53780165D01*
X53372063Y53798961D01*
X53500000Y53805247D01*
X53627937Y53798961D01*
X53754648Y53780165D01*
X53878893Y53749044D01*
X53999494Y53705892D01*
X54115288Y53651126D01*
X54225156Y53585273D01*
X54328039Y53508969D01*
X54422949Y53422949D01*
X54508969Y53328039D01*
X54585273Y53225156D01*
X54651126Y53115288D01*
X54705892Y52999494D01*
X54749044Y52878893D01*
X54780165Y52754648D01*
X54798961Y52627937D01*
X54805247Y52500000D01*
X54798961Y52372063D01*
X54780165Y52245352D01*
X54749044Y52121107D01*
X54705892Y52000506D01*
X54651126Y51884712D01*
X54585273Y51774844D01*
X54508969Y51671961D01*
X54422949Y51577051D01*
X54328039Y51491031D01*
X54225156Y51414727D01*
X54115288Y51348874D01*
X53999494Y51294108D01*
X53855000Y51242408D01*
X53855000Y47889923D01*
X53849151Y47830548D01*
X53828893Y47763770D01*
X53795996Y47702222D01*
X53752220Y47648877D01*
X53744448Y47642401D01*
X50057598Y43955551D01*
X50051122Y43947779D01*
X49997777Y43904003D01*
X49936229Y43871106D01*
X49869451Y43850849D01*
X49810066Y43845000D01*
D02*
G37*
%LPC*%
G36*
X59740147Y62650000D02*
X58650000Y62650000D01*
X58650000Y63740147D01*
X58743912Y63726217D01*
X58862927Y63696405D01*
X58978444Y63655073D01*
X59089358Y63602615D01*
X59194596Y63539537D01*
X59293143Y63466449D01*
X59384054Y63384054D01*
X59466449Y63293143D01*
X59539537Y63194596D01*
X59602615Y63089358D01*
X59655073Y62978444D01*
X59696405Y62862927D01*
X59726217Y62743912D01*
X59740147Y62650000D01*
D02*
G37*
%LPC*%
G36*
X58350000Y62650000D02*
X57259853Y62650000D01*
X57273783Y62743912D01*
X57303595Y62862927D01*
X57344927Y62978444D01*
X57397385Y63089358D01*
X57460463Y63194596D01*
X57533551Y63293143D01*
X57615946Y63384054D01*
X57706857Y63466449D01*
X57805404Y63539537D01*
X57910642Y63602615D01*
X58021556Y63655073D01*
X58137073Y63696405D01*
X58256088Y63726217D01*
X58350000Y63740147D01*
X58350000Y62650000D01*
D02*
G37*
%LPC*%
G36*
X22650000Y62650000D02*
X22150000Y62650000D01*
X22150000Y63200000D01*
X22650000Y63200000D01*
X22650000Y62650000D01*
D02*
G37*
%LPC*%
G36*
X21850000Y62650000D02*
X21350000Y62650000D01*
X21350000Y63200000D01*
X21850000Y63200000D01*
X21850000Y62650000D01*
D02*
G37*
%LPC*%
G36*
X58650000Y61259853D02*
X58650000Y62350000D01*
X59740147Y62350000D01*
X59726217Y62256088D01*
X59696405Y62137073D01*
X59655073Y62021556D01*
X59602615Y61910642D01*
X59539537Y61805404D01*
X59466449Y61706857D01*
X59384054Y61615946D01*
X59293143Y61533551D01*
X59194596Y61460463D01*
X59089358Y61397385D01*
X58978444Y61344927D01*
X58862927Y61303595D01*
X58743912Y61273783D01*
X58650000Y61259853D01*
D02*
G37*
%LPC*%
G36*
X58350000Y61259853D02*
X58256088Y61273783D01*
X58137073Y61303595D01*
X58021556Y61344927D01*
X57910642Y61397385D01*
X57805404Y61460463D01*
X57706857Y61533551D01*
X57615946Y61615946D01*
X57533551Y61706857D01*
X57460463Y61805404D01*
X57397385Y61910642D01*
X57344927Y62021556D01*
X57303595Y62137073D01*
X57273783Y62256088D01*
X57259853Y62350000D01*
X58350000Y62350000D01*
X58350000Y61259853D01*
D02*
G37*
%LPC*%
G36*
X22650000Y61800000D02*
X22150000Y61800000D01*
X22150000Y62350000D01*
X22650000Y62350000D01*
X22650000Y61800000D01*
D02*
G37*
%LPC*%
G36*
X21850000Y61800000D02*
X21350000Y61800000D01*
X21350000Y62350000D01*
X21850000Y62350000D01*
X21850000Y61800000D01*
D02*
G37*
%LPC*%
G36*
X27785000Y49545000D02*
X26475000Y49545000D01*
X26475000Y49895000D01*
X25945000Y49895000D01*
X25945000Y49595000D01*
X24535000Y49595000D01*
X24535000Y50905000D01*
X25945000Y50905000D01*
X25945000Y50605000D01*
X26475000Y50605000D01*
X26475000Y50955000D01*
X26825000Y50955000D01*
X26825000Y54325000D01*
X26815000Y54325000D01*
X26815000Y56335000D01*
X30425000Y56335000D01*
X30425000Y54325000D01*
X27535000Y54325000D01*
X27535000Y50955000D01*
X27785000Y50955000D01*
X27785000Y49545000D01*
D02*
G37*
%LPC*%
G36*
X33470000Y55480000D02*
X31820000Y55480000D01*
X31820000Y56330000D01*
X33470000Y56330000D01*
X33470000Y55480000D01*
D02*
G37*
%LPC*%
G36*
X35420000Y55480000D02*
X33770000Y55480000D01*
X33770000Y56330000D01*
X35420000Y56330000D01*
X35420000Y55480000D01*
D02*
G37*
%LPC*%
G36*
X33470000Y54330000D02*
X31820000Y54330000D01*
X31820000Y55180000D01*
X33470000Y55180000D01*
X33470000Y54330000D01*
D02*
G37*
%LPC*%
G36*
X35420000Y54330000D02*
X33770000Y54330000D01*
X33770000Y55180000D01*
X35420000Y55180000D01*
X35420000Y54330000D01*
D02*
G37*
%LPC*%
G36*
X59235000Y46395000D02*
X57925000Y46395000D01*
X57925000Y47805000D01*
X58225000Y47805000D01*
X58225000Y51242408D01*
X58080506Y51294108D01*
X57964712Y51348874D01*
X57854844Y51414727D01*
X57751961Y51491031D01*
X57657051Y51577051D01*
X57571031Y51671961D01*
X57494727Y51774844D01*
X57428874Y51884712D01*
X57374108Y52000506D01*
X57330956Y52121107D01*
X57299835Y52245352D01*
X57281039Y52372063D01*
X57274753Y52500000D01*
X57281039Y52627937D01*
X57299835Y52754648D01*
X57330956Y52878893D01*
X57374108Y52999494D01*
X57428874Y53115288D01*
X57494727Y53225156D01*
X57571031Y53328039D01*
X57657051Y53422949D01*
X57751961Y53508969D01*
X57854844Y53585273D01*
X57964712Y53651126D01*
X58080506Y53705892D01*
X58201107Y53749044D01*
X58325352Y53780165D01*
X58452063Y53798961D01*
X58580000Y53805247D01*
X58707937Y53798961D01*
X58834648Y53780165D01*
X58958893Y53749044D01*
X59079494Y53705892D01*
X59195288Y53651126D01*
X59305156Y53585273D01*
X59408039Y53508969D01*
X59502949Y53422949D01*
X59588969Y53328039D01*
X59665273Y53225156D01*
X59731126Y53115288D01*
X59785892Y52999494D01*
X59829044Y52878893D01*
X59860165Y52754648D01*
X59878961Y52627937D01*
X59885247Y52500000D01*
X59878961Y52372063D01*
X59860165Y52245352D01*
X59829044Y52121107D01*
X59785892Y52000506D01*
X59731126Y51884712D01*
X59665273Y51774844D01*
X59588969Y51671961D01*
X59502949Y51577051D01*
X59408039Y51491031D01*
X59305156Y51414727D01*
X59195288Y51348874D01*
X59079494Y51294108D01*
X58935000Y51242408D01*
X58935000Y47805000D01*
X59235000Y47805000D01*
X59235000Y46395000D01*
D02*
G37*
%LPC*%
G36*
X49075000Y46395000D02*
X47765000Y46395000D01*
X47765000Y47805000D01*
X48065000Y47805000D01*
X48065000Y51242408D01*
X47920506Y51294108D01*
X47804712Y51348874D01*
X47694844Y51414727D01*
X47591961Y51491031D01*
X47497051Y51577051D01*
X47411031Y51671961D01*
X47334727Y51774844D01*
X47268874Y51884712D01*
X47214108Y52000506D01*
X47170956Y52121107D01*
X47139835Y52245352D01*
X47121039Y52372063D01*
X47114753Y52500000D01*
X47121039Y52627937D01*
X47139835Y52754648D01*
X47170956Y52878893D01*
X47214108Y52999494D01*
X47268874Y53115288D01*
X47334727Y53225156D01*
X47411031Y53328039D01*
X47497051Y53422949D01*
X47591961Y53508969D01*
X47694844Y53585273D01*
X47804712Y53651126D01*
X47920506Y53705892D01*
X48041107Y53749044D01*
X48165352Y53780165D01*
X48292063Y53798961D01*
X48420000Y53805247D01*
X48547937Y53798961D01*
X48674648Y53780165D01*
X48798893Y53749044D01*
X48919494Y53705892D01*
X49035288Y53651126D01*
X49145156Y53585273D01*
X49248039Y53508969D01*
X49342949Y53422949D01*
X49428969Y53328039D01*
X49505273Y53225156D01*
X49571126Y53115288D01*
X49625892Y52999494D01*
X49669044Y52878893D01*
X49700165Y52754648D01*
X49718961Y52627937D01*
X49725247Y52500000D01*
X49718961Y52372063D01*
X49700165Y52245352D01*
X49669044Y52121107D01*
X49625892Y52000506D01*
X49571126Y51884712D01*
X49505273Y51774844D01*
X49428969Y51671961D01*
X49342949Y51577051D01*
X49248039Y51491031D01*
X49145156Y51414727D01*
X49035288Y51348874D01*
X48919494Y51294108D01*
X48775000Y51242408D01*
X48775000Y47805000D01*
X49075000Y47805000D01*
X49075000Y46395000D01*
D02*
G37*
%LPC*%
G36*
X15305000Y47675000D02*
X13995000Y47675000D01*
X13995000Y49085000D01*
X14295000Y49085000D01*
X14295000Y49625000D01*
X13995000Y49625000D01*
X13995000Y50502953D01*
X12702953Y51795000D01*
X9495000Y51795000D01*
X9495000Y53805000D01*
X13105000Y53805000D01*
X13105000Y52397046D01*
X14467046Y51035000D01*
X15305000Y51035000D01*
X15305000Y49625000D01*
X15005000Y49625000D01*
X15005000Y49085000D01*
X15305000Y49085000D01*
X15305000Y47675000D01*
D02*
G37*
%LPC*%
G36*
X6150000Y52950000D02*
X4500000Y52950000D01*
X4500000Y53800000D01*
X6150000Y53800000D01*
X6150000Y52950000D01*
D02*
G37*
%LPC*%
G36*
X8100000Y52950000D02*
X6450000Y52950000D01*
X6450000Y53800000D01*
X8100000Y53800000D01*
X8100000Y52950000D01*
D02*
G37*
%LPC*%
G36*
X8100000Y51800000D02*
X6450000Y51800000D01*
X6450000Y52650000D01*
X8100000Y52650000D01*
X8100000Y51800000D01*
D02*
G37*
%LPC*%
G36*
X6150000Y51800000D02*
X4500000Y51800000D01*
X4500000Y52650000D01*
X6150000Y52650000D01*
X6150000Y51800000D01*
D02*
G37*
%LPC*%
G36*
X16900000Y50480000D02*
X16400000Y50480000D01*
X16400000Y51030000D01*
X16900000Y51030000D01*
X16900000Y50480000D01*
D02*
G37*
%LPC*%
G36*
X16100000Y50480000D02*
X15600000Y50480000D01*
X15600000Y51030000D01*
X16100000Y51030000D01*
X16100000Y50480000D01*
D02*
G37*
%LPC*%
G36*
X29380000Y50400000D02*
X28880000Y50400000D01*
X28880000Y50950000D01*
X29380000Y50950000D01*
X29380000Y50400000D01*
D02*
G37*
%LPC*%
G36*
X28580000Y50400000D02*
X28080000Y50400000D01*
X28080000Y50950000D01*
X28580000Y50950000D01*
X28580000Y50400000D01*
D02*
G37*
%LPC*%
G36*
X16100000Y49630000D02*
X15600000Y49630000D01*
X15600000Y50180000D01*
X16100000Y50180000D01*
X16100000Y49630000D01*
D02*
G37*
%LPC*%
G36*
X16900000Y49630000D02*
X16400000Y49630000D01*
X16400000Y50180000D01*
X16900000Y50180000D01*
X16900000Y49630000D01*
D02*
G37*
%LPC*%
G36*
X28580000Y49550000D02*
X28080000Y49550000D01*
X28080000Y50100000D01*
X28580000Y50100000D01*
X28580000Y49550000D01*
D02*
G37*
%LPC*%
G36*
X29380000Y49550000D02*
X28880000Y49550000D01*
X28880000Y50100000D01*
X29380000Y50100000D01*
X29380000Y49550000D01*
D02*
G37*
%LPC*%
G36*
X18980000Y45474753D02*
X18891268Y45479113D01*
X18803388Y45492149D01*
X18717224Y45513731D01*
X18633579Y45543661D01*
X18553263Y45581648D01*
X18477079Y45627310D01*
X18405715Y45680237D01*
X18339894Y45739894D01*
X18280237Y45805715D01*
X18227310Y45877079D01*
X18181648Y45953263D01*
X18143661Y46033579D01*
X18113731Y46117224D01*
X18092149Y46203388D01*
X18079113Y46291268D01*
X18074753Y46380000D01*
X18079113Y46468732D01*
X18092149Y46556612D01*
X18113731Y46642776D01*
X18143661Y46726421D01*
X18181648Y46806737D01*
X18227310Y46882921D01*
X18280237Y46954285D01*
X18339892Y47020104D01*
X18375000Y47051923D01*
X18375000Y47625000D01*
X17875000Y47625000D01*
X17875000Y47775000D01*
X17205000Y47775000D01*
X17205000Y47675000D01*
X15895000Y47675000D01*
X15895000Y49085000D01*
X17205000Y49085000D01*
X17205000Y48985000D01*
X17875000Y48985000D01*
X17875000Y49135000D01*
X20085000Y49135000D01*
X20085000Y47625000D01*
X19585000Y47625000D01*
X19585000Y47051923D01*
X19620108Y47020104D01*
X19679763Y46954285D01*
X19732690Y46882921D01*
X19778352Y46806737D01*
X19816339Y46726421D01*
X19846269Y46642776D01*
X19867851Y46556612D01*
X19880887Y46468732D01*
X19885247Y46380000D01*
X19880887Y46291268D01*
X19867851Y46203388D01*
X19846269Y46117224D01*
X19816339Y46033579D01*
X19778352Y45953263D01*
X19732690Y45877079D01*
X19679763Y45805715D01*
X19620106Y45739894D01*
X19554285Y45680237D01*
X19482921Y45627310D01*
X19406737Y45581648D01*
X19326421Y45543661D01*
X19242776Y45513731D01*
X19156612Y45492149D01*
X19068732Y45479113D01*
X18980000Y45474753D01*
D02*
G37*
%LPC*%
G36*
X30115000Y44834996D02*
X26905000Y44834996D01*
X26905000Y45184996D01*
X25911923Y45184996D01*
X25880104Y45149888D01*
X25814285Y45090233D01*
X25742921Y45037306D01*
X25666737Y44991644D01*
X25586421Y44953657D01*
X25502776Y44923727D01*
X25416612Y44902145D01*
X25328732Y44889109D01*
X25240000Y44884749D01*
X25151268Y44889109D01*
X25063388Y44902145D01*
X24977224Y44923727D01*
X24893579Y44953657D01*
X24813263Y44991644D01*
X24737079Y45037306D01*
X24665715Y45090233D01*
X24599894Y45149890D01*
X24540237Y45215711D01*
X24487310Y45287075D01*
X24441648Y45363259D01*
X24403661Y45443575D01*
X24373731Y45527220D01*
X24352149Y45613384D01*
X24339113Y45701264D01*
X24334753Y45789996D01*
X24339113Y45878728D01*
X24352149Y45966608D01*
X24373731Y46052772D01*
X24403661Y46136417D01*
X24441648Y46216733D01*
X24487310Y46292917D01*
X24540237Y46364281D01*
X24599892Y46430100D01*
X24635000Y46461919D01*
X24635000Y47695000D01*
X24535000Y47695000D01*
X24535000Y49005000D01*
X25945000Y49005000D01*
X25945000Y47695000D01*
X25845000Y47695000D01*
X25845000Y46461919D01*
X25880106Y46430102D01*
X25911923Y46394996D01*
X26905000Y46394996D01*
X26905000Y46744996D01*
X30115000Y46744996D01*
X30115000Y44834996D01*
D02*
G37*
%LPC*%
G36*
X7765000Y47125000D02*
X6355000Y47125000D01*
X6355000Y48435000D01*
X7765000Y48435000D01*
X7765000Y48135000D01*
X8245000Y48135000D01*
X8245000Y48435000D01*
X9655000Y48435000D01*
X9655000Y47125000D01*
X8245000Y47125000D01*
X8245000Y47425000D01*
X7765000Y47425000D01*
X7765000Y47125000D01*
D02*
G37*
%LPC*%
G36*
X10730000Y47930000D02*
X10180000Y47930000D01*
X10180000Y48430000D01*
X10730000Y48430000D01*
X10730000Y47930000D01*
D02*
G37*
%LPC*%
G36*
X5880000Y47930000D02*
X5330000Y47930000D01*
X5330000Y48430000D01*
X5880000Y48430000D01*
X5880000Y47930000D01*
D02*
G37*
%LPC*%
G36*
X5030000Y47930000D02*
X4480000Y47930000D01*
X4480000Y48430000D01*
X5030000Y48430000D01*
X5030000Y47930000D01*
D02*
G37*
%LPC*%
G36*
X11580000Y47930000D02*
X11030000Y47930000D01*
X11030000Y48430000D01*
X11580000Y48430000D01*
X11580000Y47930000D01*
D02*
G37*
%LPC*%
G36*
X12620000Y47930000D02*
X12070000Y47930000D01*
X12070000Y48430000D01*
X12620000Y48430000D01*
X12620000Y47930000D01*
D02*
G37*
%LPC*%
G36*
X13470000Y47930000D02*
X12920000Y47930000D01*
X12920000Y48430000D01*
X13470000Y48430000D01*
X13470000Y47930000D01*
D02*
G37*
%LPC*%
G36*
X57630000Y47250000D02*
X57130000Y47250000D01*
X57130000Y47800000D01*
X57630000Y47800000D01*
X57630000Y47250000D01*
D02*
G37*
%LPC*%
G36*
X56830000Y47250000D02*
X56330000Y47250000D01*
X56330000Y47800000D01*
X56830000Y47800000D01*
X56830000Y47250000D01*
D02*
G37*
%LPC*%
G36*
X50670000Y47250000D02*
X50170000Y47250000D01*
X50170000Y47800000D01*
X50670000Y47800000D01*
X50670000Y47250000D01*
D02*
G37*
%LPC*%
G36*
X49870000Y47250000D02*
X49370000Y47250000D01*
X49370000Y47800000D01*
X49870000Y47800000D01*
X49870000Y47250000D01*
D02*
G37*
%LPC*%
G36*
X5030000Y47130000D02*
X4480000Y47130000D01*
X4480000Y47630000D01*
X5030000Y47630000D01*
X5030000Y47130000D01*
D02*
G37*
%LPC*%
G36*
X5880000Y47130000D02*
X5330000Y47130000D01*
X5330000Y47630000D01*
X5880000Y47630000D01*
X5880000Y47130000D01*
D02*
G37*
%LPC*%
G36*
X10730000Y47130000D02*
X10180000Y47130000D01*
X10180000Y47630000D01*
X10730000Y47630000D01*
X10730000Y47130000D01*
D02*
G37*
%LPC*%
G36*
X11580000Y47130000D02*
X11030000Y47130000D01*
X11030000Y47630000D01*
X11580000Y47630000D01*
X11580000Y47130000D01*
D02*
G37*
%LPC*%
G36*
X12620000Y47130000D02*
X12070000Y47130000D01*
X12070000Y47630000D01*
X12620000Y47630000D01*
X12620000Y47130000D01*
D02*
G37*
%LPC*%
G36*
X13470000Y47130000D02*
X12920000Y47130000D01*
X12920000Y47630000D01*
X13470000Y47630000D01*
X13470000Y47130000D01*
D02*
G37*
%LPC*%
G36*
X56830000Y46400000D02*
X56330000Y46400000D01*
X56330000Y46950000D01*
X56830000Y46950000D01*
X56830000Y46400000D01*
D02*
G37*
%LPC*%
G36*
X50670000Y46400000D02*
X50170000Y46400000D01*
X50170000Y46950000D01*
X50670000Y46950000D01*
X50670000Y46400000D01*
D02*
G37*
%LPC*%
G36*
X49870000Y46400000D02*
X49370000Y46400000D01*
X49370000Y46950000D01*
X49870000Y46950000D01*
X49870000Y46400000D01*
D02*
G37*
%LPC*%
G36*
X57630000Y46400000D02*
X57130000Y46400000D01*
X57130000Y46950000D01*
X57630000Y46950000D01*
X57630000Y46400000D01*
D02*
G37*
%LPC*%
G36*
X16255000Y45475000D02*
X14945000Y45475000D01*
X14945000Y45825000D01*
X13475000Y45825000D01*
X13475000Y45525000D01*
X12065000Y45525000D01*
X12065000Y45825000D01*
X11585000Y45825000D01*
X11585000Y45525000D01*
X10175000Y45525000D01*
X10175000Y45825000D01*
X9655000Y45825000D01*
X9655000Y45525000D01*
X8245000Y45525000D01*
X8245000Y46835000D01*
X9655000Y46835000D01*
X9655000Y46535000D01*
X10175000Y46535000D01*
X10175000Y46835000D01*
X11585000Y46835000D01*
X11585000Y46535000D01*
X12065000Y46535000D01*
X12065000Y46835000D01*
X13475000Y46835000D01*
X13475000Y46535000D01*
X14945000Y46535000D01*
X14945000Y46885000D01*
X16255000Y46885000D01*
X16255000Y45475000D01*
D02*
G37*
%LPC*%
G36*
X20249000Y2184753D02*
X20145567Y2189835D01*
X20043127Y2205031D01*
X19942680Y2230191D01*
X19845180Y2265078D01*
X19751554Y2309358D01*
X19662742Y2362591D01*
X19579556Y2424286D01*
X19502828Y2493828D01*
X19433286Y2570556D01*
X19371591Y2653742D01*
X19318358Y2742554D01*
X19274078Y2836180D01*
X19239191Y2933680D01*
X19214031Y3034127D01*
X19198835Y3136567D01*
X19193753Y3240000D01*
X19198835Y3343433D01*
X19214031Y3445873D01*
X19239191Y3546320D01*
X19274078Y3643820D01*
X19318358Y3737446D01*
X19371591Y3826258D01*
X19433286Y3909444D01*
X19502828Y3986172D01*
X19579556Y4055714D01*
X19662742Y4117409D01*
X19751554Y4170642D01*
X19894000Y4238012D01*
X19894000Y5603953D01*
X2006215Y23491738D01*
X1998372Y23498155D01*
X1954003Y23552223D01*
X1921106Y23613770D01*
X1900849Y23680548D01*
X1895000Y23739935D01*
X1895000Y43260066D01*
X1900849Y43319451D01*
X1921106Y43386229D01*
X1954003Y43447777D01*
X1997779Y43501122D01*
X2005551Y43507598D01*
X4475000Y45977047D01*
X4475000Y46835000D01*
X5885000Y46835000D01*
X5885000Y46535000D01*
X6355000Y46535000D01*
X6355000Y46835000D01*
X7765000Y46835000D01*
X7765000Y45525000D01*
X6355000Y45525000D01*
X6355000Y45825000D01*
X5885000Y45825000D01*
X5885000Y45525000D01*
X5027047Y45525000D01*
X2605000Y43102953D01*
X2605000Y23897047D01*
X20507148Y5994897D01*
X20544996Y5948776D01*
X20577893Y5887229D01*
X20598151Y5820451D01*
X20604000Y5761077D01*
X20604000Y4238012D01*
X20746446Y4170642D01*
X20835258Y4117409D01*
X20918444Y4055714D01*
X20995172Y3986172D01*
X21064714Y3909444D01*
X21126409Y3826258D01*
X21179642Y3737446D01*
X21223922Y3643820D01*
X21258809Y3546320D01*
X21283969Y3445873D01*
X21299165Y3343433D01*
X21304247Y3240000D01*
X21299165Y3136567D01*
X21283969Y3034127D01*
X21258809Y2933680D01*
X21223922Y2836180D01*
X21179642Y2742554D01*
X21126409Y2653742D01*
X21064714Y2570556D01*
X20995172Y2493828D01*
X20918444Y2424286D01*
X20835258Y2362591D01*
X20746446Y2309358D01*
X20652820Y2265078D01*
X20555320Y2230191D01*
X20454873Y2205031D01*
X20352433Y2189835D01*
X20249000Y2184753D01*
D02*
G37*
%LPC*%
G36*
X54505000Y29870000D02*
X53195000Y29870000D01*
X53195000Y31280000D01*
X53495000Y31280000D01*
X53495000Y31800000D01*
X53195000Y31800000D01*
X53195000Y33210000D01*
X53495000Y33210000D01*
X53495000Y33900000D01*
X51995000Y33900000D01*
X51995000Y34200000D01*
X51275000Y34200000D01*
X51275000Y33850000D01*
X49965000Y33850000D01*
X49965000Y35260000D01*
X50265000Y35260000D01*
X50265000Y35780000D01*
X49965000Y35780000D01*
X49965000Y37190000D01*
X50265000Y37190000D01*
X50265000Y40050000D01*
X49015000Y40050000D01*
X49015000Y41960000D01*
X52225000Y41960000D01*
X52225000Y40050000D01*
X50975000Y40050000D01*
X50975000Y37190000D01*
X51275000Y37190000D01*
X51275000Y35780000D01*
X50975000Y35780000D01*
X50975000Y35260000D01*
X51275000Y35260000D01*
X51275000Y34910000D01*
X51995000Y34910000D01*
X51995000Y35210000D01*
X54405000Y35210000D01*
X54405000Y33900000D01*
X54205000Y33900000D01*
X54205000Y33210000D01*
X54505000Y33210000D01*
X54505000Y31800000D01*
X54205000Y31800000D01*
X54205000Y31280000D01*
X54505000Y31280000D01*
X54505000Y29870000D01*
D02*
G37*
%LPC*%
G36*
X24400000Y39539753D02*
X24316170Y39543872D01*
X24233142Y39556189D01*
X24151738Y39576578D01*
X24072709Y39604856D01*
X23996842Y39640739D01*
X23924852Y39683888D01*
X23857438Y39733886D01*
X23795249Y39790249D01*
X23738886Y39852438D01*
X23688888Y39919852D01*
X23645739Y39991842D01*
X23609856Y40067709D01*
X23581578Y40146738D01*
X23561189Y40228142D01*
X23548872Y40311170D01*
X23544753Y40395000D01*
X23548872Y40478830D01*
X23561189Y40561858D01*
X23581578Y40643262D01*
X23609856Y40722291D01*
X23645739Y40798158D01*
X23688888Y40870148D01*
X23738886Y40937562D01*
X23795249Y40999751D01*
X23857438Y41056114D01*
X23924852Y41106112D01*
X23996842Y41149261D01*
X24072709Y41185144D01*
X24151738Y41213422D01*
X24233142Y41233811D01*
X24316170Y41246128D01*
X24400000Y41250247D01*
X24483830Y41246128D01*
X24566858Y41233811D01*
X24648262Y41213422D01*
X24727291Y41185144D01*
X24803158Y41149261D01*
X24875148Y41106112D01*
X24942562Y41056114D01*
X25004751Y40999751D01*
X25061114Y40937562D01*
X25111112Y40870148D01*
X25154261Y40798158D01*
X25190144Y40722291D01*
X25218422Y40643262D01*
X25238811Y40561858D01*
X25251128Y40478830D01*
X25255247Y40395000D01*
X25251128Y40311170D01*
X25238811Y40228142D01*
X25218422Y40146738D01*
X25190144Y40067709D01*
X25154261Y39991842D01*
X25111112Y39919852D01*
X25061114Y39852438D01*
X25004751Y39790249D01*
X24942562Y39733886D01*
X24875148Y39683888D01*
X24803158Y39640739D01*
X24727291Y39604856D01*
X24648262Y39576578D01*
X24566858Y39556189D01*
X24483830Y39543872D01*
X24400000Y39539753D01*
D02*
G37*
%LPC*%
G36*
X33515000Y39539753D02*
X33431170Y39543872D01*
X33348142Y39556189D01*
X33266738Y39576578D01*
X33187709Y39604856D01*
X33111842Y39640739D01*
X33039852Y39683888D01*
X32972438Y39733886D01*
X32910249Y39790249D01*
X32853886Y39852438D01*
X32803888Y39919852D01*
X32760739Y39991842D01*
X32724856Y40067709D01*
X32696578Y40146738D01*
X32676189Y40228142D01*
X32663872Y40311170D01*
X32659753Y40395000D01*
X32663872Y40478830D01*
X32676189Y40561858D01*
X32696578Y40643262D01*
X32724856Y40722291D01*
X32760739Y40798158D01*
X32803888Y40870148D01*
X32853886Y40937562D01*
X32910249Y40999751D01*
X32972438Y41056114D01*
X33039852Y41106112D01*
X33111842Y41149261D01*
X33187709Y41185144D01*
X33266738Y41213422D01*
X33348142Y41233811D01*
X33431170Y41246128D01*
X33515000Y41250247D01*
X33598830Y41246128D01*
X33681858Y41233811D01*
X33763262Y41213422D01*
X33842291Y41185144D01*
X33918158Y41149261D01*
X33990148Y41106112D01*
X34057562Y41056114D01*
X34119751Y40999751D01*
X34176114Y40937562D01*
X34226112Y40870148D01*
X34269261Y40798158D01*
X34305144Y40722291D01*
X34333422Y40643262D01*
X34353811Y40561858D01*
X34366128Y40478830D01*
X34370247Y40395000D01*
X34366128Y40311170D01*
X34353811Y40228142D01*
X34333422Y40146738D01*
X34305144Y40067709D01*
X34269261Y39991842D01*
X34226112Y39919852D01*
X34176114Y39852438D01*
X34119751Y39790249D01*
X34057562Y39733886D01*
X33990148Y39683888D01*
X33918158Y39640739D01*
X33842291Y39604856D01*
X33763262Y39576578D01*
X33681858Y39556189D01*
X33598830Y39543872D01*
X33515000Y39539753D01*
D02*
G37*
%LPC*%
G36*
X21860000Y36999753D02*
X21776170Y37003872D01*
X21693142Y37016189D01*
X21611738Y37036578D01*
X21532709Y37064856D01*
X21456842Y37100739D01*
X21384852Y37143888D01*
X21317438Y37193886D01*
X21255249Y37250249D01*
X21198886Y37312438D01*
X21148888Y37379852D01*
X21105739Y37451842D01*
X21069856Y37527709D01*
X21041578Y37606738D01*
X21021189Y37688142D01*
X21008872Y37771170D01*
X21004753Y37855000D01*
X21008872Y37938830D01*
X21021189Y38021858D01*
X21041578Y38103262D01*
X21069856Y38182291D01*
X21105739Y38258158D01*
X21148888Y38330148D01*
X21198886Y38397562D01*
X21255249Y38459751D01*
X21317438Y38516114D01*
X21384852Y38566112D01*
X21456842Y38609261D01*
X21532709Y38645144D01*
X21611738Y38673422D01*
X21693142Y38693811D01*
X21776170Y38706128D01*
X21860000Y38710247D01*
X21943830Y38706128D01*
X22026858Y38693811D01*
X22108262Y38673422D01*
X22187291Y38645144D01*
X22263158Y38609261D01*
X22335148Y38566112D01*
X22402562Y38516114D01*
X22464751Y38459751D01*
X22521114Y38397562D01*
X22571112Y38330148D01*
X22614261Y38258158D01*
X22650144Y38182291D01*
X22678422Y38103262D01*
X22698811Y38021858D01*
X22711128Y37938830D01*
X22715247Y37855000D01*
X22711128Y37771170D01*
X22698811Y37688142D01*
X22678422Y37606738D01*
X22650144Y37527709D01*
X22614261Y37451842D01*
X22571112Y37379852D01*
X22521114Y37312438D01*
X22464751Y37250249D01*
X22402562Y37193886D01*
X22335148Y37143888D01*
X22263158Y37100739D01*
X22187291Y37064856D01*
X22108262Y37036578D01*
X22026858Y37016189D01*
X21943830Y37003872D01*
X21860000Y36999753D01*
D02*
G37*
%LPC*%
G36*
X26940000Y36999753D02*
X26856170Y37003872D01*
X26773142Y37016189D01*
X26691738Y37036578D01*
X26612709Y37064856D01*
X26536842Y37100739D01*
X26464852Y37143888D01*
X26397438Y37193886D01*
X26335249Y37250249D01*
X26278886Y37312438D01*
X26228888Y37379852D01*
X26185739Y37451842D01*
X26149856Y37527709D01*
X26121578Y37606738D01*
X26101189Y37688142D01*
X26088872Y37771170D01*
X26084753Y37855000D01*
X26088872Y37938830D01*
X26101189Y38021858D01*
X26121578Y38103262D01*
X26149856Y38182291D01*
X26185739Y38258158D01*
X26228888Y38330148D01*
X26278886Y38397562D01*
X26335249Y38459751D01*
X26397438Y38516114D01*
X26464852Y38566112D01*
X26536842Y38609261D01*
X26612709Y38645144D01*
X26691738Y38673422D01*
X26773142Y38693811D01*
X26856170Y38706128D01*
X26940000Y38710247D01*
X27023830Y38706128D01*
X27106858Y38693811D01*
X27188262Y38673422D01*
X27267291Y38645144D01*
X27343158Y38609261D01*
X27415148Y38566112D01*
X27482562Y38516114D01*
X27544751Y38459751D01*
X27601114Y38397562D01*
X27651112Y38330148D01*
X27694261Y38258158D01*
X27730144Y38182291D01*
X27758422Y38103262D01*
X27778811Y38021858D01*
X27791128Y37938830D01*
X27795247Y37855000D01*
X27791128Y37771170D01*
X27778811Y37688142D01*
X27758422Y37606738D01*
X27730144Y37527709D01*
X27694261Y37451842D01*
X27651112Y37379852D01*
X27601114Y37312438D01*
X27544751Y37250249D01*
X27482562Y37193886D01*
X27415148Y37143888D01*
X27343158Y37100739D01*
X27267291Y37064856D01*
X27188262Y37036578D01*
X27106858Y37016189D01*
X27023830Y37003872D01*
X26940000Y36999753D01*
D02*
G37*
%LPC*%
G36*
X30975000Y36999753D02*
X30891170Y37003872D01*
X30808142Y37016189D01*
X30726738Y37036578D01*
X30647709Y37064856D01*
X30571842Y37100739D01*
X30499852Y37143888D01*
X30432438Y37193886D01*
X30370249Y37250249D01*
X30313886Y37312438D01*
X30263888Y37379852D01*
X30220739Y37451842D01*
X30184856Y37527709D01*
X30156578Y37606738D01*
X30136189Y37688142D01*
X30123872Y37771170D01*
X30119753Y37855000D01*
X30123872Y37938830D01*
X30136189Y38021858D01*
X30156578Y38103262D01*
X30184856Y38182291D01*
X30220739Y38258158D01*
X30263888Y38330148D01*
X30313886Y38397562D01*
X30370249Y38459751D01*
X30432438Y38516114D01*
X30499852Y38566112D01*
X30571842Y38609261D01*
X30647709Y38645144D01*
X30726738Y38673422D01*
X30808142Y38693811D01*
X30891170Y38706128D01*
X30975000Y38710247D01*
X31058830Y38706128D01*
X31141858Y38693811D01*
X31223262Y38673422D01*
X31302291Y38645144D01*
X31378158Y38609261D01*
X31450148Y38566112D01*
X31517562Y38516114D01*
X31579751Y38459751D01*
X31636114Y38397562D01*
X31686112Y38330148D01*
X31729261Y38258158D01*
X31765144Y38182291D01*
X31793422Y38103262D01*
X31813811Y38021858D01*
X31826128Y37938830D01*
X31830247Y37855000D01*
X31826128Y37771170D01*
X31813811Y37688142D01*
X31793422Y37606738D01*
X31765144Y37527709D01*
X31729261Y37451842D01*
X31686112Y37379852D01*
X31636114Y37312438D01*
X31579751Y37250249D01*
X31517562Y37193886D01*
X31450148Y37143888D01*
X31378158Y37100739D01*
X31302291Y37064856D01*
X31223262Y37036578D01*
X31141858Y37016189D01*
X31058830Y37003872D01*
X30975000Y36999753D01*
D02*
G37*
%LPC*%
G36*
X36055000Y36999753D02*
X35971170Y37003872D01*
X35888142Y37016189D01*
X35806738Y37036578D01*
X35727709Y37064856D01*
X35651842Y37100739D01*
X35579852Y37143888D01*
X35512438Y37193886D01*
X35450249Y37250249D01*
X35393886Y37312438D01*
X35343888Y37379852D01*
X35300739Y37451842D01*
X35264856Y37527709D01*
X35236578Y37606738D01*
X35216189Y37688142D01*
X35203872Y37771170D01*
X35199753Y37855000D01*
X35203872Y37938830D01*
X35216189Y38021858D01*
X35236578Y38103262D01*
X35264856Y38182291D01*
X35300739Y38258158D01*
X35343888Y38330148D01*
X35393886Y38397562D01*
X35450249Y38459751D01*
X35512438Y38516114D01*
X35579852Y38566112D01*
X35651842Y38609261D01*
X35727709Y38645144D01*
X35806738Y38673422D01*
X35888142Y38693811D01*
X35971170Y38706128D01*
X36055000Y38710247D01*
X36138830Y38706128D01*
X36221858Y38693811D01*
X36303262Y38673422D01*
X36382291Y38645144D01*
X36458158Y38609261D01*
X36530148Y38566112D01*
X36597562Y38516114D01*
X36659751Y38459751D01*
X36716114Y38397562D01*
X36766112Y38330148D01*
X36809261Y38258158D01*
X36845144Y38182291D01*
X36873422Y38103262D01*
X36893811Y38021858D01*
X36906128Y37938830D01*
X36910247Y37855000D01*
X36906128Y37771170D01*
X36893811Y37688142D01*
X36873422Y37606738D01*
X36845144Y37527709D01*
X36809261Y37451842D01*
X36766112Y37379852D01*
X36716114Y37312438D01*
X36659751Y37250249D01*
X36597562Y37193886D01*
X36530148Y37143888D01*
X36458158Y37100739D01*
X36382291Y37064856D01*
X36303262Y37036578D01*
X36221858Y37016189D01*
X36138830Y37003872D01*
X36055000Y36999753D01*
D02*
G37*
%LPC*%
G36*
X4500000Y35244752D02*
X4376973Y35250798D01*
X4255108Y35268874D01*
X4135622Y35298803D01*
X4019640Y35340302D01*
X3908282Y35392970D01*
X3802623Y35456300D01*
X3703681Y35529681D01*
X3612406Y35612406D01*
X3529681Y35703681D01*
X3456300Y35802623D01*
X3392970Y35908282D01*
X3340302Y36019640D01*
X3298803Y36135622D01*
X3268874Y36255108D01*
X3250798Y36376973D01*
X3244752Y36500000D01*
X3250798Y36623027D01*
X3268874Y36744892D01*
X3298803Y36864378D01*
X3340302Y36980360D01*
X3392970Y37091718D01*
X3456300Y37197377D01*
X3529681Y37296319D01*
X3612406Y37387594D01*
X3703681Y37470319D01*
X3802623Y37543700D01*
X3908282Y37607030D01*
X4019640Y37659698D01*
X4135622Y37701197D01*
X4255108Y37731126D01*
X4376973Y37749202D01*
X4500000Y37755248D01*
X4623027Y37749202D01*
X4744892Y37731126D01*
X4864378Y37701197D01*
X4980360Y37659698D01*
X5091718Y37607030D01*
X5197377Y37543700D01*
X5296319Y37470319D01*
X5387594Y37387594D01*
X5470319Y37296319D01*
X5543700Y37197377D01*
X5607030Y37091718D01*
X5659698Y36980360D01*
X5701197Y36864378D01*
X5731126Y36744892D01*
X5749202Y36623027D01*
X5755248Y36500000D01*
X5749202Y36376973D01*
X5731126Y36255108D01*
X5701197Y36135622D01*
X5659698Y36019640D01*
X5607030Y35908282D01*
X5543700Y35802623D01*
X5470319Y35703681D01*
X5387594Y35612406D01*
X5296319Y35529681D01*
X5197377Y35456300D01*
X5091718Y35392970D01*
X4980360Y35340302D01*
X4864378Y35298803D01*
X4744892Y35268874D01*
X4623027Y35250798D01*
X4500000Y35244752D01*
D02*
G37*
%LPC*%
G36*
X9500000Y35244752D02*
X9376973Y35250798D01*
X9255108Y35268874D01*
X9135622Y35298803D01*
X9019640Y35340302D01*
X8908282Y35392970D01*
X8802623Y35456300D01*
X8703681Y35529681D01*
X8612406Y35612406D01*
X8529681Y35703681D01*
X8456300Y35802623D01*
X8392970Y35908282D01*
X8340302Y36019640D01*
X8298803Y36135622D01*
X8268874Y36255108D01*
X8250798Y36376973D01*
X8244752Y36500000D01*
X8250798Y36623027D01*
X8268874Y36744892D01*
X8298803Y36864378D01*
X8340302Y36980360D01*
X8392970Y37091718D01*
X8456300Y37197377D01*
X8529681Y37296319D01*
X8612406Y37387594D01*
X8703681Y37470319D01*
X8802623Y37543700D01*
X8908282Y37607030D01*
X9019640Y37659698D01*
X9135622Y37701197D01*
X9255108Y37731126D01*
X9376973Y37749202D01*
X9500000Y37755248D01*
X9623027Y37749202D01*
X9744892Y37731126D01*
X9864378Y37701197D01*
X9980360Y37659698D01*
X10091718Y37607030D01*
X10197377Y37543700D01*
X10296319Y37470319D01*
X10387594Y37387594D01*
X10470319Y37296319D01*
X10543700Y37197377D01*
X10607030Y37091718D01*
X10659698Y36980360D01*
X10701197Y36864378D01*
X10731126Y36744892D01*
X10749202Y36623027D01*
X10755248Y36500000D01*
X10749202Y36376973D01*
X10731126Y36255108D01*
X10701197Y36135622D01*
X10659698Y36019640D01*
X10607030Y35908282D01*
X10543700Y35802623D01*
X10470319Y35703681D01*
X10387594Y35612406D01*
X10296319Y35529681D01*
X10197377Y35456300D01*
X10091718Y35392970D01*
X9980360Y35340302D01*
X9864378Y35298803D01*
X9744892Y35268874D01*
X9623027Y35250798D01*
X9500000Y35244752D01*
D02*
G37*
%LPC*%
G36*
X14500000Y35244752D02*
X14376973Y35250798D01*
X14255108Y35268874D01*
X14135622Y35298803D01*
X14019640Y35340302D01*
X13908282Y35392970D01*
X13802623Y35456300D01*
X13703681Y35529681D01*
X13612406Y35612406D01*
X13529681Y35703681D01*
X13456300Y35802623D01*
X13392970Y35908282D01*
X13340302Y36019640D01*
X13298803Y36135622D01*
X13268874Y36255108D01*
X13250798Y36376973D01*
X13244752Y36500000D01*
X13250798Y36623027D01*
X13268874Y36744892D01*
X13298803Y36864378D01*
X13340302Y36980360D01*
X13392970Y37091718D01*
X13456300Y37197377D01*
X13529681Y37296319D01*
X13612406Y37387594D01*
X13703681Y37470319D01*
X13802623Y37543700D01*
X13908282Y37607030D01*
X14019640Y37659698D01*
X14135622Y37701197D01*
X14255108Y37731126D01*
X14376973Y37749202D01*
X14500000Y37755248D01*
X14623027Y37749202D01*
X14744892Y37731126D01*
X14864378Y37701197D01*
X14980360Y37659698D01*
X15091718Y37607030D01*
X15197377Y37543700D01*
X15296319Y37470319D01*
X15387594Y37387594D01*
X15470319Y37296319D01*
X15543700Y37197377D01*
X15607030Y37091718D01*
X15659698Y36980360D01*
X15701197Y36864378D01*
X15731126Y36744892D01*
X15749202Y36623027D01*
X15755248Y36500000D01*
X15749202Y36376973D01*
X15731126Y36255108D01*
X15701197Y36135622D01*
X15659698Y36019640D01*
X15607030Y35908282D01*
X15543700Y35802623D01*
X15470319Y35703681D01*
X15387594Y35612406D01*
X15296319Y35529681D01*
X15197377Y35456300D01*
X15091718Y35392970D01*
X14980360Y35340302D01*
X14864378Y35298803D01*
X14744892Y35268874D01*
X14623027Y35250798D01*
X14500000Y35244752D01*
D02*
G37*
%LPC*%
G36*
X47120000Y35579753D02*
X47031268Y35584113D01*
X46943388Y35597149D01*
X46857224Y35618731D01*
X46773579Y35648661D01*
X46693263Y35686648D01*
X46617079Y35732310D01*
X46545715Y35785237D01*
X46479894Y35844894D01*
X46420237Y35910715D01*
X46367310Y35982079D01*
X46321648Y36058263D01*
X46283661Y36138579D01*
X46253731Y36222224D01*
X46232149Y36308388D01*
X46219113Y36396268D01*
X46214753Y36485000D01*
X46219113Y36573732D01*
X46232149Y36661612D01*
X46253731Y36747776D01*
X46283661Y36831421D01*
X46321648Y36911737D01*
X46367310Y36987921D01*
X46420237Y37059285D01*
X46479894Y37125106D01*
X46545715Y37184763D01*
X46617079Y37237690D01*
X46693263Y37283352D01*
X46773579Y37321339D01*
X46857224Y37351269D01*
X46943388Y37372851D01*
X47031268Y37385887D01*
X47120000Y37390247D01*
X47208732Y37385887D01*
X47296612Y37372851D01*
X47382776Y37351269D01*
X47466421Y37321339D01*
X47546737Y37283352D01*
X47622921Y37237690D01*
X47694285Y37184763D01*
X47760104Y37125108D01*
X47791923Y37090000D01*
X48365000Y37090000D01*
X48365000Y37190000D01*
X49675000Y37190000D01*
X49675000Y35780000D01*
X48365000Y35780000D01*
X48365000Y35880000D01*
X47791923Y35880000D01*
X47760104Y35844892D01*
X47694285Y35785237D01*
X47622921Y35732310D01*
X47546737Y35686648D01*
X47466421Y35648661D01*
X47382776Y35618731D01*
X47296612Y35597149D01*
X47208732Y35584113D01*
X47120000Y35579753D01*
D02*
G37*
%LPC*%
G36*
X55000000Y35549753D02*
X54911268Y35554113D01*
X54823388Y35567149D01*
X54737224Y35588731D01*
X54653579Y35618661D01*
X54573263Y35656648D01*
X54497079Y35702310D01*
X54425715Y35755237D01*
X54359894Y35814894D01*
X54300233Y35880719D01*
X54230311Y35975000D01*
X53755000Y35975000D01*
X53755000Y35800000D01*
X52645000Y35800000D01*
X52645000Y37110000D01*
X53755000Y37110000D01*
X53755000Y36935000D01*
X54230311Y36935000D01*
X54300233Y37029281D01*
X54359894Y37095106D01*
X54425715Y37154763D01*
X54497079Y37207690D01*
X54573263Y37253352D01*
X54653579Y37291339D01*
X54737224Y37321269D01*
X54823388Y37342851D01*
X54911268Y37355887D01*
X55000000Y37360247D01*
X55088732Y37355887D01*
X55176612Y37342851D01*
X55262776Y37321269D01*
X55346421Y37291339D01*
X55426737Y37253352D01*
X55502921Y37207690D01*
X55574285Y37154763D01*
X55640106Y37095106D01*
X55699763Y37029285D01*
X55752690Y36957921D01*
X55798352Y36881737D01*
X55836339Y36801421D01*
X55866269Y36717776D01*
X55887851Y36631612D01*
X55900887Y36543732D01*
X55905247Y36455000D01*
X55900887Y36366268D01*
X55887851Y36278388D01*
X55866269Y36192224D01*
X55836339Y36108579D01*
X55798352Y36028263D01*
X55752690Y35952079D01*
X55699763Y35880715D01*
X55640106Y35814894D01*
X55574285Y35755237D01*
X55502921Y35702310D01*
X55426737Y35656648D01*
X55346421Y35618661D01*
X55262776Y35588731D01*
X55176612Y35567149D01*
X55088732Y35554113D01*
X55000000Y35549753D01*
D02*
G37*
%LPC*%
G36*
X49670000Y34705000D02*
X49170000Y34705000D01*
X49170000Y35255000D01*
X49670000Y35255000D01*
X49670000Y34705000D01*
D02*
G37*
%LPC*%
G36*
X48870000Y34705000D02*
X48370000Y34705000D01*
X48370000Y35255000D01*
X48870000Y35255000D01*
X48870000Y34705000D01*
D02*
G37*
%LPC*%
G36*
X49670000Y33855000D02*
X49170000Y33855000D01*
X49170000Y34405000D01*
X49670000Y34405000D01*
X49670000Y33855000D01*
D02*
G37*
%LPC*%
G36*
X48870000Y33855000D02*
X48370000Y33855000D01*
X48370000Y34405000D01*
X48870000Y34405000D01*
X48870000Y33855000D01*
D02*
G37*
%LPC*%
G36*
X52900000Y32655000D02*
X52400000Y32655000D01*
X52400000Y33205000D01*
X52900000Y33205000D01*
X52900000Y32655000D01*
D02*
G37*
%LPC*%
G36*
X52100000Y32655000D02*
X51600000Y32655000D01*
X51600000Y33205000D01*
X52100000Y33205000D01*
X52100000Y32655000D01*
D02*
G37*
%LPC*%
G36*
X48825000Y29574999D02*
X46915000Y29574999D01*
X46915000Y32784999D01*
X48825000Y32784999D01*
X48825000Y30930000D01*
X51595000Y30930000D01*
X51595000Y31280000D01*
X52905000Y31280000D01*
X52905000Y29870000D01*
X51595000Y29870000D01*
X51595000Y30220000D01*
X48825000Y30220000D01*
X48825000Y29574999D01*
D02*
G37*
%LPC*%
G36*
X37260000Y30200000D02*
X34850000Y30200000D01*
X34850000Y32610000D01*
X37260000Y32610000D01*
X37260000Y30200000D01*
D02*
G37*
%LPC*%
G36*
X28145000Y30200000D02*
X25735000Y30200000D01*
X25735000Y32610000D01*
X28145000Y32610000D01*
X28145000Y30200000D01*
D02*
G37*
%LPC*%
G36*
X52100000Y31805000D02*
X51600000Y31805000D01*
X51600000Y32355000D01*
X52100000Y32355000D01*
X52100000Y31805000D01*
D02*
G37*
%LPC*%
G36*
X52900000Y31805000D02*
X52400000Y31805000D01*
X52400000Y32355000D01*
X52900000Y32355000D01*
X52900000Y31805000D01*
D02*
G37*
%LPC*%
G36*
X42749000Y2184753D02*
X42645567Y2189835D01*
X42543127Y2205031D01*
X42442680Y2230191D01*
X42345180Y2265078D01*
X42251554Y2309358D01*
X42162742Y2362591D01*
X42079556Y2424286D01*
X42002828Y2493828D01*
X41933286Y2570556D01*
X41871591Y2653742D01*
X41818358Y2742554D01*
X41774078Y2836180D01*
X41739191Y2933680D01*
X41714031Y3034127D01*
X41698835Y3136567D01*
X41693753Y3240000D01*
X41698835Y3343433D01*
X41714031Y3445873D01*
X41739191Y3546320D01*
X41774078Y3643820D01*
X41818358Y3737446D01*
X41871591Y3826258D01*
X41933286Y3909444D01*
X42002828Y3986172D01*
X42079556Y4055714D01*
X42162742Y4117409D01*
X42251554Y4170642D01*
X42345180Y4214922D01*
X42442680Y4249809D01*
X42543127Y4274969D01*
X42645567Y4290165D01*
X42749000Y4295247D01*
X42852433Y4290165D01*
X42954873Y4274969D01*
X43055320Y4249809D01*
X43203678Y4196724D01*
X47515000Y8508047D01*
X47515000Y24875001D01*
X46915000Y24875001D01*
X46915000Y28085001D01*
X48825000Y28085001D01*
X48825000Y26835001D01*
X49924454Y26835001D01*
X51581500Y28492046D01*
X51581500Y29350000D01*
X52891500Y29350000D01*
X52891500Y27940000D01*
X52033546Y27940000D01*
X50329099Y26235552D01*
X50322623Y26227780D01*
X50269278Y26184004D01*
X50207730Y26151107D01*
X50140952Y26130850D01*
X50081567Y26125001D01*
X48825000Y26125001D01*
X48825000Y24875001D01*
X48225000Y24875001D01*
X48225000Y8350923D01*
X48219151Y8291548D01*
X48198893Y8224770D01*
X48165996Y8163222D01*
X48122220Y8109877D01*
X48114448Y8103401D01*
X43705724Y3694678D01*
X43758809Y3546320D01*
X43783969Y3445873D01*
X43799165Y3343433D01*
X43804247Y3240000D01*
X43799165Y3136567D01*
X43783969Y3034127D01*
X43758809Y2933680D01*
X43723922Y2836180D01*
X43679642Y2742554D01*
X43626409Y2653742D01*
X43564714Y2570556D01*
X43495172Y2493828D01*
X43418444Y2424286D01*
X43335258Y2362591D01*
X43246446Y2309358D01*
X43152820Y2265078D01*
X43055320Y2230191D01*
X42954873Y2205031D01*
X42852433Y2189835D01*
X42749000Y2184753D01*
D02*
G37*
%LPC*%
G36*
X54486500Y28795000D02*
X53986500Y28795000D01*
X53986500Y29345000D01*
X54486500Y29345000D01*
X54486500Y28795000D01*
D02*
G37*
%LPC*%
G36*
X53686500Y28795000D02*
X53186500Y28795000D01*
X53186500Y29345000D01*
X53686500Y29345000D01*
X53686500Y28795000D01*
D02*
G37*
%LPC*%
G36*
X54486500Y27945000D02*
X53986500Y27945000D01*
X53986500Y28495000D01*
X54486500Y28495000D01*
X54486500Y27945000D01*
D02*
G37*
%LPC*%
G36*
X53686500Y27945000D02*
X53186500Y27945000D01*
X53186500Y28495000D01*
X53686500Y28495000D01*
X53686500Y27945000D01*
D02*
G37*
%LPC*%
G36*
X30155000Y9245000D02*
X27845000Y9245000D01*
X27845000Y12945000D01*
X26745000Y12945000D01*
X26745000Y20555000D01*
X31255000Y20555000D01*
X31255000Y12945000D01*
X30155000Y12945000D01*
X30155000Y9245000D01*
D02*
G37*
%LPD*%
G36*
X29900000Y9500000D02*
X29900000Y13200000D01*
X31000000Y13200000D01*
X31000000Y20300000D01*
X27000000Y20300000D01*
X27000000Y13200000D01*
X28100000Y13200000D01*
X28100000Y9500000D01*
X29900000Y9500000D01*
D02*
G37*
%LPC*%
G36*
X35800000Y16550000D02*
X34150000Y16550000D01*
X34150000Y17400000D01*
X35800000Y17400000D01*
X35800000Y16550000D01*
D02*
G37*
%LPC*%
G36*
X33850000Y16550000D02*
X32200000Y16550000D01*
X32200000Y17400000D01*
X33850000Y17400000D01*
X33850000Y16550000D01*
D02*
G37*
%LPC*%
G36*
X35800000Y15400000D02*
X34150000Y15400000D01*
X34150000Y16250000D01*
X35800000Y16250000D01*
X35800000Y15400000D01*
D02*
G37*
%LPC*%
G36*
X33850000Y15400000D02*
X32200000Y15400000D01*
X32200000Y16250000D01*
X33850000Y16250000D01*
X33850000Y15400000D01*
D02*
G37*
%LPC*%
G36*
X31495000Y1745000D02*
X29005000Y1745000D01*
X29005000Y8255000D01*
X30845000Y8255000D01*
X30845000Y12355000D01*
X33155000Y12355000D01*
X33155000Y5545000D01*
X31495000Y5545000D01*
X31495000Y1745000D01*
D02*
G37*
%LPD*%
G36*
X31240000Y2000000D02*
X31240000Y5800000D01*
X32900000Y5800000D01*
X32900000Y12100000D01*
X31100000Y12100000D01*
X31100000Y8000000D01*
X29260000Y8000000D01*
X29260000Y2000000D01*
X31240000Y2000000D01*
D02*
G37*
%LPC*%
G36*
X54727083Y6636016D02*
X54623650Y6641098D01*
X54521210Y6656294D01*
X54420763Y6681454D01*
X54323263Y6716341D01*
X54229637Y6760621D01*
X54140825Y6813854D01*
X54057639Y6875549D01*
X53980911Y6945091D01*
X53911369Y7021819D01*
X53849674Y7105005D01*
X53796441Y7193817D01*
X53752161Y7287443D01*
X53717274Y7384943D01*
X53692114Y7485390D01*
X53676918Y7587830D01*
X53671836Y7691263D01*
X53676918Y7794696D01*
X53692114Y7897136D01*
X53717274Y7997583D01*
X53752161Y8095083D01*
X53796441Y8188709D01*
X53849674Y8277521D01*
X53911369Y8360707D01*
X53980911Y8437435D01*
X54057639Y8506977D01*
X54140825Y8568672D01*
X54229637Y8621905D01*
X54323263Y8666185D01*
X54420763Y8701072D01*
X54521210Y8726232D01*
X54623650Y8741428D01*
X54727083Y8746510D01*
X54830516Y8741428D01*
X54932956Y8726232D01*
X55033403Y8701072D01*
X55130903Y8666185D01*
X55224529Y8621905D01*
X55313341Y8568672D01*
X55396527Y8506977D01*
X55473255Y8437435D01*
X55542797Y8360707D01*
X55604492Y8277521D01*
X55657725Y8188709D01*
X55702005Y8095083D01*
X55736892Y7997583D01*
X55762052Y7897136D01*
X55777248Y7794696D01*
X55782330Y7691263D01*
X55777248Y7587830D01*
X55762052Y7485390D01*
X55736892Y7384943D01*
X55702005Y7287443D01*
X55657725Y7193817D01*
X55604492Y7105005D01*
X55542797Y7021819D01*
X55473255Y6945091D01*
X55396527Y6875549D01*
X55313341Y6813854D01*
X55224529Y6760621D01*
X55130903Y6716341D01*
X55033403Y6681454D01*
X54932956Y6656294D01*
X54830516Y6641098D01*
X54727083Y6636016D01*
D02*
G37*
%LPC*%
G36*
X10727083Y6636016D02*
X10623650Y6641098D01*
X10521210Y6656294D01*
X10420763Y6681454D01*
X10323263Y6716341D01*
X10229637Y6760621D01*
X10140825Y6813854D01*
X10057639Y6875549D01*
X9980911Y6945091D01*
X9911369Y7021819D01*
X9849674Y7105005D01*
X9796441Y7193817D01*
X9752161Y7287443D01*
X9717274Y7384943D01*
X9692114Y7485390D01*
X9676918Y7587830D01*
X9671836Y7691263D01*
X9676918Y7794696D01*
X9692114Y7897136D01*
X9717274Y7997583D01*
X9752161Y8095083D01*
X9796441Y8188709D01*
X9849674Y8277521D01*
X9911369Y8360707D01*
X9980911Y8437435D01*
X10057639Y8506977D01*
X10140825Y8568672D01*
X10229637Y8621905D01*
X10323263Y8666185D01*
X10420763Y8701072D01*
X10521210Y8726232D01*
X10623650Y8741428D01*
X10727083Y8746510D01*
X10830516Y8741428D01*
X10932956Y8726232D01*
X11033403Y8701072D01*
X11130903Y8666185D01*
X11224529Y8621905D01*
X11313341Y8568672D01*
X11396527Y8506977D01*
X11473255Y8437435D01*
X11542797Y8360707D01*
X11604492Y8277521D01*
X11657725Y8188709D01*
X11702005Y8095083D01*
X11736892Y7997583D01*
X11762052Y7897136D01*
X11777248Y7794696D01*
X11782330Y7691263D01*
X11777248Y7587830D01*
X11762052Y7485390D01*
X11736892Y7384943D01*
X11702005Y7287443D01*
X11657725Y7193817D01*
X11604492Y7105005D01*
X11542797Y7021819D01*
X11473255Y6945091D01*
X11396527Y6875549D01*
X11313341Y6813854D01*
X11224529Y6760621D01*
X11130903Y6716341D01*
X11033403Y6681454D01*
X10932956Y6656294D01*
X10830516Y6641098D01*
X10727083Y6636016D01*
D02*
G37*
%LPC*%
G36*
X8077083Y7841263D02*
X7188881Y7841263D01*
X7197024Y7896160D01*
X7222066Y7996134D01*
X7256788Y8093174D01*
X7300847Y8186333D01*
X7353846Y8274754D01*
X7415233Y8357525D01*
X7484451Y8433895D01*
X7560821Y8503113D01*
X7643592Y8564500D01*
X7732013Y8617499D01*
X7825172Y8661558D01*
X7922212Y8696280D01*
X8022186Y8721322D01*
X8077083Y8729465D01*
X8077083Y7841263D01*
D02*
G37*
%LPC*%
G36*
X9265285Y7841263D02*
X8377083Y7841263D01*
X8377083Y8729465D01*
X8431980Y8721322D01*
X8531954Y8696280D01*
X8628994Y8661558D01*
X8722153Y8617499D01*
X8810574Y8564500D01*
X8893345Y8503113D01*
X8969715Y8433895D01*
X9038933Y8357525D01*
X9100320Y8274754D01*
X9153319Y8186333D01*
X9197378Y8093174D01*
X9232100Y7996134D01*
X9257142Y7896160D01*
X9265285Y7841263D01*
D02*
G37*
%LPC*%
G36*
X52077083Y7841263D02*
X51188881Y7841263D01*
X51197024Y7896160D01*
X51222066Y7996134D01*
X51256788Y8093174D01*
X51300847Y8186333D01*
X51353846Y8274754D01*
X51415233Y8357525D01*
X51484451Y8433895D01*
X51560821Y8503113D01*
X51643592Y8564500D01*
X51732013Y8617499D01*
X51825172Y8661558D01*
X51922212Y8696280D01*
X52022186Y8721322D01*
X52077083Y8729465D01*
X52077083Y7841263D01*
D02*
G37*
%LPC*%
G36*
X53265285Y7841263D02*
X52377083Y7841263D01*
X52377083Y8729465D01*
X52431980Y8721322D01*
X52531954Y8696280D01*
X52628994Y8661558D01*
X52722153Y8617499D01*
X52810574Y8564500D01*
X52893345Y8503113D01*
X52969715Y8433895D01*
X53038933Y8357525D01*
X53100320Y8274754D01*
X53153319Y8186333D01*
X53197378Y8093174D01*
X53232100Y7996134D01*
X53257142Y7896160D01*
X53265285Y7841263D01*
D02*
G37*
%LPC*%
G36*
X52377083Y6653061D02*
X52377083Y7541263D01*
X53265285Y7541263D01*
X53257142Y7486366D01*
X53232100Y7386392D01*
X53197378Y7289352D01*
X53153319Y7196193D01*
X53100320Y7107772D01*
X53038933Y7025001D01*
X52969715Y6948631D01*
X52893345Y6879413D01*
X52810574Y6818026D01*
X52722153Y6765027D01*
X52628994Y6720968D01*
X52531954Y6686246D01*
X52431980Y6661204D01*
X52377083Y6653061D01*
D02*
G37*
%LPC*%
G36*
X52077083Y6653061D02*
X52022186Y6661204D01*
X51922212Y6686246D01*
X51825172Y6720968D01*
X51732013Y6765027D01*
X51643592Y6818026D01*
X51560821Y6879413D01*
X51484451Y6948631D01*
X51415233Y7025001D01*
X51353846Y7107772D01*
X51300847Y7196193D01*
X51256788Y7289352D01*
X51222066Y7386392D01*
X51197024Y7486366D01*
X51188881Y7541263D01*
X52077083Y7541263D01*
X52077083Y6653061D01*
D02*
G37*
%LPC*%
G36*
X8377083Y6653061D02*
X8377083Y7541263D01*
X9265285Y7541263D01*
X9257142Y7486366D01*
X9232100Y7386392D01*
X9197378Y7289352D01*
X9153319Y7196193D01*
X9100320Y7107772D01*
X9038933Y7025001D01*
X8969715Y6948631D01*
X8893345Y6879413D01*
X8810574Y6818026D01*
X8722153Y6765027D01*
X8628994Y6720968D01*
X8531954Y6686246D01*
X8431980Y6661204D01*
X8377083Y6653061D01*
D02*
G37*
%LPC*%
G36*
X8077083Y6653061D02*
X8022186Y6661204D01*
X7922212Y6686246D01*
X7825172Y6720968D01*
X7732013Y6765027D01*
X7643592Y6818026D01*
X7560821Y6879413D01*
X7484451Y6948631D01*
X7415233Y7025001D01*
X7353846Y7107772D01*
X7300847Y7196193D01*
X7256788Y7289352D01*
X7222066Y7386392D01*
X7197024Y7486366D01*
X7188881Y7541263D01*
X8077083Y7541263D01*
X8077083Y6653061D01*
D02*
G37*
%LPC*%
G36*
X37749000Y2184753D02*
X37645567Y2189835D01*
X37543127Y2205031D01*
X37442680Y2230191D01*
X37345180Y2265078D01*
X37251554Y2309358D01*
X37162742Y2362591D01*
X37079556Y2424286D01*
X37002828Y2493828D01*
X36933286Y2570556D01*
X36871591Y2653742D01*
X36818358Y2742554D01*
X36774078Y2836180D01*
X36739191Y2933680D01*
X36714031Y3034127D01*
X36698835Y3136567D01*
X36693753Y3240000D01*
X36698835Y3343433D01*
X36714031Y3445873D01*
X36739191Y3546320D01*
X36774078Y3643820D01*
X36818358Y3737446D01*
X36871591Y3826258D01*
X36933286Y3909444D01*
X37002828Y3986172D01*
X37079556Y4055714D01*
X37162742Y4117409D01*
X37251554Y4170642D01*
X37345180Y4214922D01*
X37442680Y4249809D01*
X37543127Y4274969D01*
X37645567Y4290165D01*
X37749000Y4295247D01*
X37852433Y4290165D01*
X37954873Y4274969D01*
X38055320Y4249809D01*
X38152820Y4214922D01*
X38246446Y4170642D01*
X38335258Y4117409D01*
X38418444Y4055714D01*
X38495172Y3986172D01*
X38564714Y3909444D01*
X38626409Y3826258D01*
X38679642Y3737446D01*
X38723922Y3643820D01*
X38758809Y3546320D01*
X38783969Y3445873D01*
X38799165Y3343433D01*
X38804247Y3240000D01*
X38799165Y3136567D01*
X38783969Y3034127D01*
X38758809Y2933680D01*
X38723922Y2836180D01*
X38679642Y2742554D01*
X38626409Y2653742D01*
X38564714Y2570556D01*
X38495172Y2493828D01*
X38418444Y2424286D01*
X38335258Y2362591D01*
X38246446Y2309358D01*
X38152820Y2265078D01*
X38055320Y2230191D01*
X37954873Y2205031D01*
X37852433Y2189835D01*
X37749000Y2184753D01*
D02*
G37*
%LPC*%
G36*
X35249000Y2184753D02*
X35145567Y2189835D01*
X35043127Y2205031D01*
X34942680Y2230191D01*
X34845180Y2265078D01*
X34751554Y2309358D01*
X34662742Y2362591D01*
X34579556Y2424286D01*
X34502828Y2493828D01*
X34433286Y2570556D01*
X34371591Y2653742D01*
X34318358Y2742554D01*
X34274078Y2836180D01*
X34239191Y2933680D01*
X34214031Y3034127D01*
X34198835Y3136567D01*
X34193753Y3240000D01*
X34198835Y3343433D01*
X34214031Y3445873D01*
X34239191Y3546320D01*
X34274078Y3643820D01*
X34318358Y3737446D01*
X34371591Y3826258D01*
X34433286Y3909444D01*
X34502828Y3986172D01*
X34579556Y4055714D01*
X34662742Y4117409D01*
X34751554Y4170642D01*
X34845180Y4214922D01*
X34942680Y4249809D01*
X35043127Y4274969D01*
X35145567Y4290165D01*
X35249000Y4295247D01*
X35352433Y4290165D01*
X35454873Y4274969D01*
X35555320Y4249809D01*
X35652820Y4214922D01*
X35746446Y4170642D01*
X35835258Y4117409D01*
X35918444Y4055714D01*
X35995172Y3986172D01*
X36064714Y3909444D01*
X36126409Y3826258D01*
X36179642Y3737446D01*
X36223922Y3643820D01*
X36258809Y3546320D01*
X36283969Y3445873D01*
X36299165Y3343433D01*
X36304247Y3240000D01*
X36299165Y3136567D01*
X36283969Y3034127D01*
X36258809Y2933680D01*
X36223922Y2836180D01*
X36179642Y2742554D01*
X36126409Y2653742D01*
X36064714Y2570556D01*
X35995172Y2493828D01*
X35918444Y2424286D01*
X35835258Y2362591D01*
X35746446Y2309358D01*
X35652820Y2265078D01*
X35555320Y2230191D01*
X35454873Y2205031D01*
X35352433Y2189835D01*
X35249000Y2184753D01*
D02*
G37*
%LPC*%
G36*
X32749000Y2184753D02*
X32645567Y2189835D01*
X32543127Y2205031D01*
X32442680Y2230191D01*
X32345180Y2265078D01*
X32251554Y2309358D01*
X32162742Y2362591D01*
X32079556Y2424286D01*
X32002828Y2493828D01*
X31933286Y2570556D01*
X31871591Y2653742D01*
X31818358Y2742554D01*
X31774078Y2836180D01*
X31739191Y2933680D01*
X31714031Y3034127D01*
X31698835Y3136567D01*
X31693753Y3240000D01*
X31698835Y3343433D01*
X31714031Y3445873D01*
X31739191Y3546320D01*
X31774078Y3643820D01*
X31818358Y3737446D01*
X31871591Y3826258D01*
X31933286Y3909444D01*
X32002828Y3986172D01*
X32079556Y4055714D01*
X32162742Y4117409D01*
X32251554Y4170642D01*
X32345180Y4214922D01*
X32442680Y4249809D01*
X32543127Y4274969D01*
X32645567Y4290165D01*
X32749000Y4295247D01*
X32852433Y4290165D01*
X32954873Y4274969D01*
X33055320Y4249809D01*
X33152820Y4214922D01*
X33246446Y4170642D01*
X33335258Y4117409D01*
X33418444Y4055714D01*
X33495172Y3986172D01*
X33564714Y3909444D01*
X33626409Y3826258D01*
X33679642Y3737446D01*
X33723922Y3643820D01*
X33758809Y3546320D01*
X33783969Y3445873D01*
X33799165Y3343433D01*
X33804247Y3240000D01*
X33799165Y3136567D01*
X33783969Y3034127D01*
X33758809Y2933680D01*
X33723922Y2836180D01*
X33679642Y2742554D01*
X33626409Y2653742D01*
X33564714Y2570556D01*
X33495172Y2493828D01*
X33418444Y2424286D01*
X33335258Y2362591D01*
X33246446Y2309358D01*
X33152820Y2265078D01*
X33055320Y2230191D01*
X32954873Y2205031D01*
X32852433Y2189835D01*
X32749000Y2184753D01*
D02*
G37*
%LPC*%
G36*
X25249000Y2184753D02*
X25145567Y2189835D01*
X25043127Y2205031D01*
X24942680Y2230191D01*
X24845180Y2265078D01*
X24751554Y2309358D01*
X24662742Y2362591D01*
X24579556Y2424286D01*
X24502828Y2493828D01*
X24433286Y2570556D01*
X24371591Y2653742D01*
X24318358Y2742554D01*
X24274078Y2836180D01*
X24239191Y2933680D01*
X24214031Y3034127D01*
X24198835Y3136567D01*
X24193753Y3240000D01*
X24198835Y3343433D01*
X24214031Y3445873D01*
X24239191Y3546320D01*
X24274078Y3643820D01*
X24318358Y3737446D01*
X24371591Y3826258D01*
X24433286Y3909444D01*
X24502828Y3986172D01*
X24579556Y4055714D01*
X24662742Y4117409D01*
X24751554Y4170642D01*
X24845180Y4214922D01*
X24942680Y4249809D01*
X25043127Y4274969D01*
X25145567Y4290165D01*
X25249000Y4295247D01*
X25352433Y4290165D01*
X25454873Y4274969D01*
X25555320Y4249809D01*
X25652820Y4214922D01*
X25746446Y4170642D01*
X25835258Y4117409D01*
X25918444Y4055714D01*
X25995172Y3986172D01*
X26064714Y3909444D01*
X26126409Y3826258D01*
X26179642Y3737446D01*
X26223922Y3643820D01*
X26258809Y3546320D01*
X26283969Y3445873D01*
X26299165Y3343433D01*
X26304247Y3240000D01*
X26299165Y3136567D01*
X26283969Y3034127D01*
X26258809Y2933680D01*
X26223922Y2836180D01*
X26179642Y2742554D01*
X26126409Y2653742D01*
X26064714Y2570556D01*
X25995172Y2493828D01*
X25918444Y2424286D01*
X25835258Y2362591D01*
X25746446Y2309358D01*
X25652820Y2265078D01*
X25555320Y2230191D01*
X25454873Y2205031D01*
X25352433Y2189835D01*
X25249000Y2184753D01*
D02*
G37*
%LPC*%
G36*
X22599000Y3390000D02*
X21710798Y3390000D01*
X21718941Y3444897D01*
X21743983Y3544871D01*
X21778705Y3641911D01*
X21822764Y3735070D01*
X21875763Y3823491D01*
X21937150Y3906262D01*
X22006368Y3982632D01*
X22082738Y4051850D01*
X22165509Y4113237D01*
X22253930Y4166236D01*
X22347089Y4210295D01*
X22444129Y4245017D01*
X22544103Y4270059D01*
X22599000Y4278202D01*
X22599000Y3390000D01*
D02*
G37*
%LPC*%
G36*
X23787202Y3390000D02*
X22899000Y3390000D01*
X22899000Y4278202D01*
X22953897Y4270059D01*
X23053871Y4245017D01*
X23150911Y4210295D01*
X23244070Y4166236D01*
X23332491Y4113237D01*
X23415262Y4051850D01*
X23491632Y3982632D01*
X23560850Y3906262D01*
X23622237Y3823491D01*
X23675236Y3735070D01*
X23719295Y3641911D01*
X23754017Y3544871D01*
X23779059Y3444897D01*
X23787202Y3390000D01*
D02*
G37*
%LPC*%
G36*
X27599000Y3390000D02*
X26710798Y3390000D01*
X26718941Y3444897D01*
X26743983Y3544871D01*
X26778705Y3641911D01*
X26822764Y3735070D01*
X26875763Y3823491D01*
X26937150Y3906262D01*
X27006368Y3982632D01*
X27082738Y4051850D01*
X27165509Y4113237D01*
X27253930Y4166236D01*
X27347089Y4210295D01*
X27444129Y4245017D01*
X27544103Y4270059D01*
X27599000Y4278202D01*
X27599000Y3390000D01*
D02*
G37*
%LPC*%
G36*
X28787202Y3390000D02*
X27899000Y3390000D01*
X27899000Y4278202D01*
X27953897Y4270059D01*
X28053871Y4245017D01*
X28150911Y4210295D01*
X28244070Y4166236D01*
X28332491Y4113237D01*
X28415262Y4051850D01*
X28491632Y3982632D01*
X28560850Y3906262D01*
X28622237Y3823491D01*
X28675236Y3735070D01*
X28719295Y3641911D01*
X28754017Y3544871D01*
X28779059Y3444897D01*
X28787202Y3390000D01*
D02*
G37*
%LPC*%
G36*
X40099000Y3390000D02*
X39210798Y3390000D01*
X39218941Y3444897D01*
X39243983Y3544871D01*
X39278705Y3641911D01*
X39322764Y3735070D01*
X39375763Y3823491D01*
X39437150Y3906262D01*
X39506368Y3982632D01*
X39582738Y4051850D01*
X39665509Y4113237D01*
X39753930Y4166236D01*
X39847089Y4210295D01*
X39944129Y4245017D01*
X40044103Y4270059D01*
X40099000Y4278202D01*
X40099000Y3390000D01*
D02*
G37*
%LPC*%
G36*
X41287202Y3390000D02*
X40399000Y3390000D01*
X40399000Y4278202D01*
X40453897Y4270059D01*
X40553871Y4245017D01*
X40650911Y4210295D01*
X40744070Y4166236D01*
X40832491Y4113237D01*
X40915262Y4051850D01*
X40991632Y3982632D01*
X41060850Y3906262D01*
X41122237Y3823491D01*
X41175236Y3735070D01*
X41219295Y3641911D01*
X41254017Y3544871D01*
X41279059Y3444897D01*
X41287202Y3390000D01*
D02*
G37*
%LPC*%
G36*
X40399000Y2201798D02*
X40399000Y3090000D01*
X41287202Y3090000D01*
X41279059Y3035103D01*
X41254017Y2935129D01*
X41219295Y2838089D01*
X41175236Y2744930D01*
X41122237Y2656509D01*
X41060850Y2573738D01*
X40991632Y2497368D01*
X40915262Y2428150D01*
X40832491Y2366763D01*
X40744070Y2313764D01*
X40650911Y2269705D01*
X40553871Y2234983D01*
X40453897Y2209941D01*
X40399000Y2201798D01*
D02*
G37*
%LPC*%
G36*
X40099000Y2201798D02*
X40044103Y2209941D01*
X39944129Y2234983D01*
X39847089Y2269705D01*
X39753930Y2313764D01*
X39665509Y2366763D01*
X39582738Y2428150D01*
X39506368Y2497368D01*
X39437150Y2573738D01*
X39375763Y2656509D01*
X39322764Y2744930D01*
X39278705Y2838089D01*
X39243983Y2935129D01*
X39218941Y3035103D01*
X39210798Y3090000D01*
X40099000Y3090000D01*
X40099000Y2201798D01*
D02*
G37*
%LPC*%
G36*
X27899000Y2201798D02*
X27899000Y3090000D01*
X28787202Y3090000D01*
X28779059Y3035103D01*
X28754017Y2935129D01*
X28719295Y2838089D01*
X28675236Y2744930D01*
X28622237Y2656509D01*
X28560850Y2573738D01*
X28491632Y2497368D01*
X28415262Y2428150D01*
X28332491Y2366763D01*
X28244070Y2313764D01*
X28150911Y2269705D01*
X28053871Y2234983D01*
X27953897Y2209941D01*
X27899000Y2201798D01*
D02*
G37*
%LPC*%
G36*
X27599000Y2201798D02*
X27544103Y2209941D01*
X27444129Y2234983D01*
X27347089Y2269705D01*
X27253930Y2313764D01*
X27165509Y2366763D01*
X27082738Y2428150D01*
X27006368Y2497368D01*
X26937150Y2573738D01*
X26875763Y2656509D01*
X26822764Y2744930D01*
X26778705Y2838089D01*
X26743983Y2935129D01*
X26718941Y3035103D01*
X26710798Y3090000D01*
X27599000Y3090000D01*
X27599000Y2201798D01*
D02*
G37*
%LPC*%
G36*
X22899000Y2201798D02*
X22899000Y3090000D01*
X23787202Y3090000D01*
X23779059Y3035103D01*
X23754017Y2935129D01*
X23719295Y2838089D01*
X23675236Y2744930D01*
X23622237Y2656509D01*
X23560850Y2573738D01*
X23491632Y2497368D01*
X23415262Y2428150D01*
X23332491Y2366763D01*
X23244070Y2313764D01*
X23150911Y2269705D01*
X23053871Y2234983D01*
X22953897Y2209941D01*
X22899000Y2201798D01*
D02*
G37*
%LPC*%
G36*
X22599000Y2201798D02*
X22544103Y2209941D01*
X22444129Y2234983D01*
X22347089Y2269705D01*
X22253930Y2313764D01*
X22165509Y2366763D01*
X22082738Y2428150D01*
X22006368Y2497368D01*
X21937150Y2573738D01*
X21875763Y2656509D01*
X21822764Y2744930D01*
X21778705Y2838089D01*
X21743983Y2935129D01*
X21718941Y3035103D01*
X21710798Y3090000D01*
X22599000Y3090000D01*
X22599000Y2201798D01*
D02*
G37*
%LPD*%
G01*
%LPD*%
D10*
X23024989Y53375011D02*
X16800000Y59600000D01*
D10*
X53500000Y52500000D02*
X48500000Y57500000D01*
D11*
X55000000Y36455000D02*
X53200000Y36455000D01*
D10*
X53850000Y30575000D02*
X53850000Y32505000D01*
D10*
X27180000Y50300000D02*
X27180000Y55330000D01*
D10*
X50071501Y26480001D02*
X52236500Y28645000D01*
D10*
X2250000Y23750000D02*
X2250000Y43250000D01*
D10*
X41720000Y46380000D02*
X33800002Y46380000D01*
D10*
X27130000Y50250000D02*
X27180000Y50300000D01*
D12*
X16550000Y48380000D02*
X18980000Y48380000D01*
D10*
X12770000Y46180000D02*
X15600000Y46180000D01*
D12*
X47120000Y36485000D02*
X49020000Y36485000D01*
D10*
X7060000Y47780000D02*
X8950000Y47780000D01*
D10*
X53500000Y52500000D02*
X53500000Y47900000D01*
D10*
X23024989Y49315011D02*
X23024989Y53375011D01*
D10*
X18980000Y51380000D02*
X13660000Y56700000D01*
D12*
X25240000Y45789996D02*
X25240000Y48350000D01*
D10*
X48500000Y57500000D02*
X48500000Y62500000D01*
D10*
X5180000Y46180000D02*
X7060000Y46180000D01*
D10*
X8950000Y46180000D02*
X10880000Y46180000D01*
D10*
X53850000Y34555000D02*
X53850000Y32505000D01*
D10*
X48474999Y30575000D02*
X47870000Y31179999D01*
D10*
X48420000Y52500000D02*
X48420000Y47100000D01*
D10*
X27180000Y55330000D02*
X28620000Y55330000D01*
D10*
X10880000Y46180000D02*
X12770000Y46180000D01*
D10*
X12200000Y52800000D02*
X14650000Y50350000D01*
D10*
X11300000Y52800000D02*
X12200000Y52800000D01*
D10*
X47870000Y8361000D02*
X42749000Y3240000D01*
D10*
X33800002Y46380000D02*
X33209998Y45789996D01*
D10*
X56005000Y41005000D02*
X55319998Y41005000D01*
D10*
X2250000Y43250000D02*
X5180000Y46180000D01*
D10*
X52250000Y30575000D02*
X48474999Y30575000D01*
D10*
X47870000Y26480001D02*
X50071501Y26480001D01*
D10*
X13660000Y56700000D02*
X10300000Y56700000D01*
D10*
X12400000Y59600000D02*
X9500000Y62500000D01*
D10*
X43900000Y44200000D02*
X41720000Y46380000D01*
D10*
X14650000Y50350000D02*
X14650000Y50330000D01*
D10*
X60910000Y55090000D02*
X60910000Y45910000D01*
D10*
X16800000Y59600000D02*
X12400000Y59600000D01*
D10*
X20249000Y5751000D02*
X2250000Y23750000D01*
D10*
X53500000Y62500000D02*
X60910000Y55090000D01*
D10*
X50620000Y34555000D02*
X50620000Y36485000D01*
D10*
X23040000Y49300000D02*
X23024989Y49315011D01*
D10*
X14650000Y48380000D02*
X14650000Y50330000D01*
D10*
X10300000Y56700000D02*
X4500000Y62500000D01*
D10*
X60910000Y45910000D02*
X56005000Y41005000D01*
D12*
X18980000Y46380000D02*
X18980000Y48380000D01*
D12*
X25240000Y45789996D02*
X28510000Y45789996D01*
D10*
X50620000Y34555000D02*
X52550000Y34555000D01*
D10*
X20249000Y3240000D02*
X20249000Y5751000D01*
D10*
X49800000Y44200000D02*
X43900000Y44200000D01*
D10*
X58580000Y52500000D02*
X58580000Y47100000D01*
D10*
X47870000Y26480001D02*
X47870000Y8361000D01*
D10*
X25240000Y50250000D02*
X27130000Y50250000D01*
D10*
X50620000Y41005000D02*
X50620000Y36485000D01*
D10*
X53500000Y47900000D02*
X49800000Y44200000D01*
D10*
X14500000Y62500000D02*
X20400000Y62500000D01*
G75*
D13*
X8950000Y46180000D03*
D14*
X8950000Y47780000D03*
D15*
X36055000Y31405000D03*
D16*
X30975000Y37855000D03*
D16*
X33515000Y40395000D03*
D16*
X36055000Y37855000D03*
D17*
X50620000Y36485000D03*
D18*
X49020000Y36485000D03*
D17*
X16250000Y50330000D03*
D18*
X14650000Y50330000D03*
D19*
X53500000Y52500000D03*
D19*
X48420000Y52500000D03*
D19*
X58580000Y52500000D03*
D15*
X26940000Y31405000D03*
D14*
X10880000Y47780000D03*
D13*
X10880000Y46180000D03*
D20*
X50620000Y41005000D03*
D21*
X55319998Y41005000D03*
D22*
X18980000Y51380000D03*
D23*
X18980000Y48380000D03*
D16*
X21860000Y37855000D03*
D16*
X24400000Y40395000D03*
D16*
X26940000Y37855000D03*
D24*
X14650000Y48380000D03*
D25*
X15600000Y46180000D03*
D24*
X16550000Y48380000D03*
D14*
X5180000Y47780000D03*
D13*
X5180000Y46180000D03*
D20*
X28510000Y45789996D03*
D21*
X33209998Y45789996D03*
D18*
X49020000Y34555000D03*
D17*
X50620000Y34555000D03*
D26*
X4500000Y62500000D03*
D26*
X14500000Y62500000D03*
D26*
X9500000Y62500000D03*
D17*
X22000000Y62500000D03*
D18*
X20400000Y62500000D03*
D18*
X52250000Y30575000D03*
D17*
X53850000Y30575000D03*
D18*
X52250000Y32505000D03*
D17*
X53850000Y32505000D03*
D27*
X29000000Y16400000D03*
D28*
X34000000Y16400000D03*
D27*
X6300000Y52800000D03*
D28*
X11300000Y52800000D03*
D13*
X7060000Y46180000D03*
D14*
X7060000Y47780000D03*
D29*
X47870000Y31179999D03*
D30*
X47870000Y26480001D03*
D31*
X54727083Y7691263D03*
D31*
X52227083Y7691263D03*
D26*
X48500000Y62500000D03*
D26*
X58500000Y62500000D03*
D26*
X53500000Y62500000D03*
D28*
X33620000Y55330000D03*
D27*
X28620000Y55330000D03*
D32*
X20249000Y3240000D03*
D32*
X37749000Y3240000D03*
D32*
X35249000Y3240000D03*
D32*
X32749000Y3240000D03*
D32*
X27749000Y3240000D03*
D32*
X42749000Y3240000D03*
D32*
X22749000Y3240000D03*
D32*
X25249000Y3240000D03*
D32*
X40249000Y3240000D03*
D32*
X30249000Y3240000D03*
D17*
X53836500Y28645000D03*
D18*
X52236500Y28645000D03*
D26*
X4500000Y36500000D03*
D26*
X14500000Y36500000D03*
D26*
X9500000Y36500000D03*
D33*
X52550000Y34555000D03*
D33*
X53850000Y34555000D03*
D34*
X53200000Y36455000D03*
D35*
X32000000Y10800000D03*
D36*
X29000000Y10800000D03*
D17*
X28730000Y50250000D03*
D18*
X27130000Y50250000D03*
D31*
X10727083Y7691263D03*
D31*
X8227083Y7691263D03*
D17*
X50020000Y47100000D03*
D18*
X48420000Y47100000D03*
D18*
X56980000Y47100000D03*
D17*
X58580000Y47100000D03*
D37*
X25240000Y50250000D03*
D38*
X23040000Y49300000D03*
D37*
X25240000Y48350000D03*
D14*
X12770000Y47780000D03*
D13*
X12770000Y46180000D03*
D39*
X46750000Y39000000D03*
D40*
X1000000Y26200000D03*
D40*
X62000000Y64600000D03*
D40*
X54375000Y71000000D03*
D40*
X46750000Y1000000D03*
D39*
X12770000Y49080000D03*
D39*
X39125000Y39000000D03*
D39*
X39125000Y26200000D03*
D39*
X39125000Y13400000D03*
D39*
X36440000Y16400000D03*
D39*
X34000000Y14660000D03*
D39*
X23875000Y13400000D03*
D39*
X16250000Y19800000D03*
D40*
X1000000Y51800000D03*
D40*
X1000000Y32600000D03*
D39*
X36040000Y55450000D03*
D39*
X8625000Y64600000D03*
D39*
X47720000Y34555000D03*
D40*
X62000000Y13400000D03*
D39*
X31500000Y58200000D03*
D39*
X8625000Y32600000D03*
D39*
X8625000Y39000000D03*
D40*
X46750000Y71000000D03*
D40*
X62000000Y51800000D03*
D39*
X16250000Y58200000D03*
D39*
X54375000Y45400000D03*
D40*
X62000000Y1000000D03*
D40*
X8625000Y71000000D03*
D39*
X16250000Y26200000D03*
D39*
X46750000Y45400000D03*
D39*
X22000000Y61200000D03*
D39*
X39125000Y19800000D03*
D39*
X39125000Y58200000D03*
D39*
X55130000Y28238068D03*
D39*
X39125000Y64600000D03*
D39*
X50020000Y48400000D03*
D40*
X1000000Y19800000D03*
D40*
X62000000Y7000000D03*
D41*
X25240000Y45789996D03*
D40*
X16250000Y1000000D03*
D39*
X16250000Y7000000D03*
D40*
X62000000Y32600000D03*
D40*
X31500000Y1000000D03*
D39*
X46750000Y19800000D03*
D39*
X23875000Y32600000D03*
D40*
X62000000Y45400000D03*
D39*
X54375000Y58200000D03*
D40*
X1000000Y71000000D03*
D39*
X46750000Y64600000D03*
D39*
X16250000Y13400000D03*
D39*
X31500000Y64600000D03*
D39*
X46750000Y13400000D03*
D40*
X39125000Y71000000D03*
D41*
X47120000Y36485000D03*
D39*
X24075000Y51800000D03*
D40*
X62000000Y19800000D03*
D40*
X31500000Y71000000D03*
D39*
X34000000Y18140000D03*
D40*
X62000000Y26200000D03*
D39*
X8625000Y13400000D03*
D39*
X39125000Y7000000D03*
D39*
X10880000Y49080000D03*
D40*
X62000000Y39000000D03*
D41*
X55000000Y36455000D03*
D39*
X39125000Y51800000D03*
D39*
X8625000Y19800000D03*
D40*
X62000000Y58200000D03*
D40*
X1000000Y1000000D03*
D40*
X8625000Y1000000D03*
D40*
X1000000Y7000000D03*
D40*
X1000000Y45400000D03*
D39*
X54375000Y26200000D03*
D39*
X23875000Y7000000D03*
D40*
X1000000Y58200000D03*
D40*
X23875000Y71000000D03*
D41*
X18980000Y46380000D03*
D39*
X45750000Y26200000D03*
D39*
X31500000Y26200000D03*
D40*
X54375000Y1000000D03*
D40*
X23875000Y1000000D03*
D39*
X5180000Y49080000D03*
D39*
X54375000Y13400000D03*
D39*
X16250000Y64600000D03*
D39*
X23875000Y26200000D03*
D40*
X1000000Y39000000D03*
D39*
X46750000Y58200000D03*
D39*
X31500000Y51800000D03*
D39*
X16250000Y39000000D03*
D40*
X1000000Y13400000D03*
D39*
X16250000Y32600000D03*
D39*
X46450000Y51800000D03*
D40*
X16250000Y71000000D03*
D39*
X54375000Y64600000D03*
D39*
X8625000Y26200000D03*
D41*
X29000000Y19100000D03*
D39*
X23875000Y64600000D03*
D39*
X45750000Y32600000D03*
D39*
X6300000Y54440000D03*
D39*
X23875000Y19800000D03*
D40*
X39125000Y1000000D03*
D39*
X56980000Y48400000D03*
D39*
X39125000Y32600000D03*
D39*
X16250000Y51630000D03*
D40*
X62000000Y71000000D03*
D39*
X39125000Y45400000D03*
D39*
X23875000Y58200000D03*
D39*
X54375000Y19800000D03*
D39*
X50950000Y32505000D03*
D39*
X28900000Y48950000D03*
D40*
X1000000Y64600000D03*
M02*
