M48
FMAT,2
METRIC,TZ
T6C0.350
T2C0.600
T5C1.000
T1C1.300
T4C1.400
T3C1.500
%
G90
G05
M71
T6
X46.750Y39.000
X1.000Y26.200
X62.000Y64.600
X54.375Y71.000
X46.750Y1.000
X12.770Y49.080
X39.125Y39.000
X39.125Y26.200
X39.125Y13.400
X36.440Y16.400
X34.000Y14.660
X23.875Y13.400
X16.250Y19.800
X1.000Y51.800
X1.000Y32.600
X36.040Y55.450
X8.625Y64.600
X47.720Y34.555
X62.000Y13.400
X31.500Y58.200
X8.625Y32.600
X8.625Y39.000
X46.750Y71.000
X62.000Y51.800
X16.250Y58.200
X54.375Y45.400
X62.000Y1.000
X8.625Y71.000
X16.250Y26.200
X46.750Y45.400
X22.000Y61.200
X39.125Y19.800
X39.125Y58.200
X55.130Y28.238
X39.125Y64.600
X50.020Y48.400
X1.000Y19.800
X62.000Y7.000
X16.250Y1.000
X16.250Y7.000
X62.000Y32.600
X31.500Y1.000
X46.750Y19.800
X23.875Y32.600
X62.000Y45.400
X54.375Y58.200
X1.000Y71.000
X46.750Y64.600
X16.250Y13.400
X31.500Y64.600
X46.750Y13.400
X39.125Y71.000
X24.075Y51.800
X62.000Y19.800
X31.500Y71.000
X34.000Y18.140
X62.000Y26.200
X8.625Y13.400
X39.125Y7.000
X10.880Y49.080
X62.000Y39.000
X39.125Y51.800
X8.625Y19.800
X62.000Y58.200
X1.000Y1.000
X8.625Y1.000
X1.000Y7.000
X1.000Y45.400
X54.375Y26.200
X23.875Y7.000
X1.000Y58.200
X23.875Y71.000
X45.750Y26.200
X31.500Y26.200
X54.375Y1.000
X23.875Y1.000
X5.180Y49.080
X54.375Y13.400
X16.250Y64.600
X23.875Y26.200
X1.000Y39.000
X46.750Y58.200
X31.500Y51.800
X16.250Y39.000
X1.000Y13.400
X16.250Y32.600
X46.450Y51.800
X16.250Y71.000
X54.375Y64.600
X8.625Y26.200
X23.875Y64.600
X45.750Y32.600
X6.300Y54.440
X23.875Y19.800
X39.125Y1.000
X56.980Y48.400
X39.125Y32.600
X16.250Y51.630
X62.000Y71.000
X39.125Y45.400
X23.875Y58.200
X54.375Y19.800
X50.950Y32.505
X28.900Y48.950
X1.000Y64.600
T2
X30.975Y37.855
X33.515Y40.395
X36.055Y37.855
X21.860Y37.855
X24.400Y40.395
X26.940Y37.855
T5
X54.727Y7.691
X52.227Y7.691
X20.249Y3.240
X37.749Y3.240
X35.249Y3.240
X32.749Y3.240
X27.749Y3.240
X42.749Y3.240
X22.749Y3.240
X25.249Y3.240
X40.249Y3.240
X30.249Y3.240
X10.727Y7.691
X8.227Y7.691
X25.240Y45.790
X47.120Y36.485
X55.000Y36.455
X18.980Y46.380
X29.000Y19.100
T1
X36.055Y31.405
X26.940Y31.405
T4
X4.500Y62.500
X14.500Y62.500
X9.500Y62.500
X48.500Y62.500
X58.500Y62.500
X53.500Y62.500
X4.500Y36.500
X14.500Y36.500
X9.500Y36.500
T3
X53.500Y52.500
X48.420Y52.500
X58.580Y52.500
M30
